<?plantuml 1.2026.2beta3?><svg xmlns="http://www.w3.org/2000/svg" xmlns:xlink="http://www.w3.org/1999/xlink" contentStyleType="text/css" data-diagram-type="CLASS" height="774px" preserveAspectRatio="none" style="width:1060px;height:774px;background:#FFFFFF;" version="1.1" viewBox="0 0 1060 774" width="1060px" zoomAndPan="magnify"><defs/><g><!--cluster P7 ? Notifications--><g class="cluster" data-qualified-name="P7 . Notifications" data-source-line="46" id="ent0004"><rect fill="#F8F0FF" height="606.98" rx="2.5" ry="2.5" style="stroke:#888888;stroke-width:1.5;" width="356" x="589" y="23.3"/><text fill="#333333" font-family="Arial" font-size="14" font-weight="bold" lengthAdjust="spacing" textLength="135.9395" x="699.0303" y="38.2951">P7 &#183; Notifications</text></g><!--cluster P8 ? Journal & Audit--><g class="cluster" data-qualified-name="P8 . Journal . Audit" data-source-line="87" id="ent0010"><rect fill="#F0F0FF" height="761.8" rx="2.5" ry="2.5" style="stroke:#888888;stroke-width:1.5;" width="482" x="7" y="7"/><text fill="#333333" font-family="Arial" font-size="14" font-weight="bold" lengthAdjust="spacing" textLength="155.251" x="170.3745" y="21.9951">P8 &#183; Journal &amp; Audit</text></g><!--class Notification--><g class="entity" data-qualified-name="P7 . Notifications.Notification" data-source-line="48" id="ent0005"><rect fill="#FFFFFF" height="145.7813" rx="2.5" ry="2.5" style="stroke:#555555;stroke-width:0.5;" width="218.8896" x="657.56" y="58.3"/><rect fill="#F2F2F2" height="32" rx="2.5" ry="2.5" style="stroke:#F2F2F2;stroke-width:0.5;" width="218.8896" x="657.56" y="58.3"/><rect fill="#F2F2F2" height="2.5" style="stroke:#F2F2F2;stroke-width:0.5;" width="218.8896" x="657.56" y="87.8"/><rect fill="none" height="145.7813" rx="2.5" ry="2.5" style="stroke:#555555;stroke-width:0.5;" width="218.8896" x="657.56" y="58.3"/><ellipse cx="734.0659" cy="74.3" fill="#ADD1B2" rx="11" ry="11" style="stroke:#181818;stroke-width:1;"/><path d="M737.0346,79.9406 Q736.4565,80.2375 735.8159,80.3781 Q735.1752,80.5344 734.4721,80.5344 Q731.9721,80.5344 730.644,78.8937 Q729.3315,77.2375 729.3315,74.1125 Q729.3315,70.9875 730.644,69.3312 Q731.9721,67.675 734.4721,67.675 Q735.1752,67.675 735.8159,67.8312 Q736.4721,67.9875 737.0346,68.2844 L737.0346,71.0031 Q736.4096,70.425 735.8159,70.1594 Q735.2221,69.8781 734.5971,69.8781 Q733.2534,69.8781 732.5659,70.9562 Q731.8784,72.0187 731.8784,74.1125 Q731.8784,76.2062 732.5659,77.2844 Q733.2534,78.3469 734.5971,78.3469 Q735.2221,78.3469 735.8159,78.0812 Q736.4096,77.8 737.0346,77.2219 L737.0346,79.9406 Z " fill="#000000"/><text fill="#111111" font-family="Arial" font-size="10" lengthAdjust="spacing" textLength="57.3779" x="754.5659" y="77.7619">Notification</text><line style="stroke:#555555;stroke-width:0.5;" x1="658.56" x2="875.4496" y1="90.3" y2="90.3"/><text fill="#000000" font-family="Arial" font-size="14" lengthAdjust="spacing" textLength="184.6113" x="663.56" y="107.2951">+dateCreation : DateTime</text><text fill="#000000" font-family="Arial" font-size="14" lengthAdjust="spacing" textLength="176.8799" x="663.56" y="123.592">+dateEnvoi    : DateTime</text><text fill="#000000" font-family="Arial" font-size="14" lengthAdjust="spacing" textLength="155.4219" x="663.56" y="139.8889">+estLue       : Boolean</text><text fill="#000000" font-family="Arial" font-size="14" lengthAdjust="spacing" textLength="206.8896" x="663.56" y="156.1857">+type         : TypeNotification</text><text fill="#000000" font-family="Arial" font-size="14" lengthAdjust="spacing" textLength="146.3643" x="663.56" y="172.4826">+contenu      : String</text><text fill="#000000" font-family="Arial" font-size="14" lengthAdjust="spacing" textLength="145.0928" x="663.56" y="188.7795">+refEntiteId  : String</text><line style="stroke:#555555;stroke-width:0.5;" x1="658.56" x2="875.4496" y1="196.0812" y2="196.0812"/></g><!--class TypeNotification--><g class="entity" data-qualified-name="P7 . Notifications.TypeNotification" data-source-line="60" id="ent0006"><rect fill="#FFFFFF" height="178.375" rx="2.5" ry="2.5" style="stroke:#555555;stroke-width:0.5;" width="324.2246" x="604.89" y="435.9"/><rect fill="#F2F2F2" height="32" rx="2.5" ry="2.5" style="stroke:#F2F2F2;stroke-width:0.5;" width="324.2246" x="604.89" y="435.9"/><rect fill="#F2F2F2" height="2.5" style="stroke:#F2F2F2;stroke-width:0.5;" width="324.2246" x="604.89" y="465.4"/><rect fill="none" height="178.375" rx="2.5" ry="2.5" style="stroke:#555555;stroke-width:0.5;" width="324.2246" x="604.89" y="435.9"/><ellipse cx="721.8002" cy="451.9" fill="#EB937F" rx="11" ry="11" style="stroke:#181818;stroke-width:1;"/><path d="M725.9095,457.9 L718.1908,457.9 L718.1908,445.5094 L725.9095,445.5094 L725.9095,447.6656 L720.6439,447.6656 L720.6439,450.3375 L725.4095,450.3375 L725.4095,452.4938 L720.6439,452.4938 L720.6439,455.7438 L725.9095,455.7438 L725.9095,457.9 Z " fill="#000000"/><text fill="#111111" font-family="Arial" font-size="10" lengthAdjust="spacing" textLength="81.9043" x="742.3002" y="455.3619">TypeNotification</text><line style="stroke:#555555;stroke-width:0.5;" x1="605.89" x2="928.1146" y1="467.9" y2="467.9"/><text fill="#000000" font-family="Arial" font-size="14" lengthAdjust="spacing" textLength="275.3174" x="610.89" y="484.8951">RAPPEL_ROLE_EXPIRATION_IMMINENTE</text><text fill="#000000" font-family="Arial" font-size="14" lengthAdjust="spacing" textLength="312.2246" x="610.89" y="501.192">RELANCE_PROPOSITION_AVANT_ARCHIVAGE</text><text fill="#000000" font-family="Arial" font-size="14" lengthAdjust="spacing" textLength="285.2773" x="610.89" y="517.4889">PANIER_ANNULE_OFFRE_REMISE_ACTIVE</text><text fill="#000000" font-family="Arial" font-size="14" lengthAdjust="spacing" textLength="195.5762" x="610.89" y="533.7857">INTENTION_DON_ACCEPTEE</text><text fill="#000000" font-family="Arial" font-size="14" lengthAdjust="spacing" textLength="186.3682" x="610.89" y="550.0826">INTENTION_DON_REFUSEE</text><text fill="#000000" font-family="Arial" font-size="14" lengthAdjust="spacing" textLength="300.624" x="610.89" y="566.3795">INTENTION_DON_CONFIRMATION_REQUISE</text><text fill="#000000" font-family="Arial" font-size="14" lengthAdjust="spacing" textLength="240.7822" x="610.89" y="582.6764">OFFRE_SATISFAITE_75_POURCENT</text><text fill="#000000" font-family="Arial" font-size="14" lengthAdjust="spacing" textLength="289.5361" x="610.89" y="598.9732">SUGGESTION_APPARIEMENT_DISPONIBLE</text><line style="stroke:#555555;stroke-width:0.5;" x1="605.89" x2="928.1146" y1="606.275" y2="606.275"/></g><!--class EntreeJournal--><g class="entity" data-qualified-name="P8 . Journal . Audit.EntreeJournal" data-source-line="89" id="ent0011"><rect fill="#FFFFFF" height="178.375" rx="2.5" ry="2.5" style="stroke:#555555;stroke-width:0.5;" width="251.2031" x="23.4" y="42"/><rect fill="#F2F2F2" height="32" rx="2.5" ry="2.5" style="stroke:#F2F2F2;stroke-width:0.5;" width="251.2031" x="23.4" y="42"/><rect fill="#F2F2F2" height="2.5" style="stroke:#F2F2F2;stroke-width:0.5;" width="251.2031" x="23.4" y="71.5"/><rect fill="none" height="178.375" rx="2.5" ry="2.5" style="stroke:#555555;stroke-width:0.5;" width="251.2031" x="23.4" y="42"/><ellipse cx="110.8746" cy="58" fill="#ADD1B2" rx="11" ry="11" style="stroke:#181818;stroke-width:1;"/><path d="M113.8434,63.6406 Q113.2652,63.9375 112.6246,64.0781 Q111.984,64.2344 111.2809,64.2344 Q108.7809,64.2344 107.4527,62.5938 Q106.1402,60.9375 106.1402,57.8125 Q106.1402,54.6875 107.4527,53.0313 Q108.7809,51.375 111.2809,51.375 Q111.984,51.375 112.6246,51.5313 Q113.2809,51.6875 113.8434,51.9844 L113.8434,54.7031 Q113.2184,54.125 112.6246,53.8594 Q112.0309,53.5781 111.4059,53.5781 Q110.0621,53.5781 109.3746,54.6563 Q108.6871,55.7188 108.6871,57.8125 Q108.6871,59.9063 109.3746,60.9844 Q110.0621,62.0469 111.4059,62.0469 Q112.0309,62.0469 112.6246,61.7813 Q113.2184,61.5 113.8434,60.9219 L113.8434,63.6406 Z " fill="#000000"/><text fill="#111111" font-family="Arial" font-size="10" lengthAdjust="spacing" textLength="67.7539" x="131.3746" y="61.4619">EntreeJournal</text><line style="stroke:#555555;stroke-width:0.5;" x1="24.4" x2="273.6031" y1="74" y2="74"/><text fill="#000000" font-family="Arial" font-size="14" lengthAdjust="spacing" textLength="194.1543" x="29.4" y="90.9951">+dateHeure       : DateTime</text><text fill="#000000" font-family="Arial" font-size="14" lengthAdjust="spacing" textLength="239.2031" x="29.4" y="107.292">+typeOperation   : TypeOperation</text><text fill="#000000" font-family="Arial" font-size="14" lengthAdjust="spacing" textLength="149.9258" x="29.4" y="123.5889">+acteurId        : UUID</text><text fill="#000000" font-family="Arial" font-size="14" lengthAdjust="spacing" textLength="158.3613" x="29.4" y="139.8857">+entityCibleId   : UUID</text><text fill="#000000" font-family="Arial" font-size="14" lengthAdjust="spacing" textLength="177.1602" x="29.4" y="156.1826">+entityCibleType : String</text><text fill="#000000" font-family="Arial" font-size="14" lengthAdjust="spacing" textLength="149.3721" x="29.4" y="172.4795">+details         : String</text><text fill="#000000" font-family="Arial" font-size="14" lengthAdjust="spacing" textLength="161.4375" x="29.4" y="188.7764">+adresseIP       : String</text><text fill="#000000" font-family="Arial" font-size="14" lengthAdjust="spacing" textLength="158.6689" x="29.4" y="205.0732">+sessionId       : String</text><line style="stroke:#555555;stroke-width:0.5;" x1="24.4" x2="273.6031" y1="212.375" y2="212.375"/></g><!--class TypeOperation--><g class="entity" data-qualified-name="P8 . Journal . Audit.TypeOperation" data-source-line="103" id="ent0012"><rect fill="#FFFFFF" height="455.4219" rx="2.5" ry="2.5" style="stroke:#555555;stroke-width:0.5;" width="287.4951" x="23.25" y="297.38"/><rect fill="#F2F2F2" height="32" rx="2.5" ry="2.5" style="stroke:#F2F2F2;stroke-width:0.5;" width="287.4951" x="23.25" y="297.38"/><rect fill="#F2F2F2" height="2.5" style="stroke:#F2F2F2;stroke-width:0.5;" width="287.4951" x="23.25" y="326.88"/><rect fill="none" height="455.4219" rx="2.5" ry="2.5" style="stroke:#555555;stroke-width:0.5;" width="287.4951" x="23.25" y="297.38"/><ellipse cx="125.6016" cy="313.38" fill="#EB937F" rx="11" ry="11" style="stroke:#181818;stroke-width:1;"/><path d="M129.7109,319.38 L121.9922,319.38 L121.9922,306.9894 L129.7109,306.9894 L129.7109,309.1456 L124.4453,309.1456 L124.4453,311.8175 L129.2109,311.8175 L129.2109,313.9737 L124.4453,313.9737 L124.4453,317.2237 L129.7109,317.2237 L129.7109,319.38 Z " fill="#000000"/><text fill="#111111" font-family="Arial" font-size="10" lengthAdjust="spacing" textLength="74.292" x="146.1016" y="316.8419">TypeOperation</text><line style="stroke:#555555;stroke-width:0.5;" x1="24.25" x2="309.7451" y1="329.38" y2="329.38"/><text fill="#000000" font-family="Arial" font-size="14" lengthAdjust="spacing" textLength="85.7979" x="29.25" y="346.3751">CONNEXION</text><text fill="#000000" font-family="Arial" font-size="14" lengthAdjust="spacing" textLength="105.4238" x="29.25" y="362.672">DECONNEXION</text><text fill="#000000" font-family="Arial" font-size="14" lengthAdjust="spacing" textLength="137.8125" x="29.25" y="378.9689">CREATION_COMPTE</text><text fill="#000000" font-family="Arial" font-size="14" lengthAdjust="spacing" textLength="213.9238" x="29.25" y="395.2657">RETABLISSEMENT_CONFIANCE</text><text fill="#000000" font-family="Arial" font-size="14" lengthAdjust="spacing" textLength="150.4795" x="29.25" y="411.5626">DEPOT_PROPOSITION</text><text fill="#000000" font-family="Arial" font-size="14" lengthAdjust="spacing" textLength="206.5547" x="29.25" y="427.8595">MODIFICATION_PROPOSITION</text><text fill="#000000" font-family="Arial" font-size="14" lengthAdjust="spacing" textLength="168.8066" x="29.25" y="444.1564">CLOTURE_PROPOSITION</text><text fill="#000000" font-family="Arial" font-size="14" lengthAdjust="spacing" textLength="185.4248" x="29.25" y="460.4532">ARCHIVAGE_PROPOSITION</text><text fill="#000000" font-family="Arial" font-size="14" lengthAdjust="spacing" textLength="186.5869" x="29.25" y="476.7501">RECYCLAGE_PROPOSITION</text><text fill="#000000" font-family="Arial" font-size="14" lengthAdjust="spacing" textLength="155.7705" x="29.25" y="493.047">DEBUT_TRANSACTION</text><text fill="#000000" font-family="Arial" font-size="14" lengthAdjust="spacing" textLength="216.7471" x="29.25" y="509.3439">CONFIRMATION_TRANSACTION</text><text fill="#000000" font-family="Arial" font-size="14" lengthAdjust="spacing" textLength="200.0605" x="29.25" y="525.6407">ANNULATION_TRANSACTION</text><text fill="#000000" font-family="Arial" font-size="14" lengthAdjust="spacing" textLength="119.0137" x="29.25" y="541.9376">ENVOI_MESSAGE</text><text fill="#000000" font-family="Arial" font-size="14" lengthAdjust="spacing" textLength="235.7305" x="29.25" y="558.2345">BASCULE_VISIBILITE_DISCUSSION</text><text fill="#000000" font-family="Arial" font-size="14" lengthAdjust="spacing" textLength="130.293" x="29.25" y="574.5314">CREATION_PANIER</text><text fill="#000000" font-family="Arial" font-size="14" lengthAdjust="spacing" textLength="167.2002" x="29.25" y="590.8282">CONFIRMATION_PANIER</text><text fill="#000000" font-family="Arial" font-size="14" lengthAdjust="spacing" textLength="150.5137" x="29.25" y="607.1251">ANNULATION_PANIER</text><text fill="#000000" font-family="Arial" font-size="14" lengthAdjust="spacing" textLength="138.9541" x="29.25" y="623.422">ATTRIBUTION_ROLE</text><text fill="#000000" font-family="Arial" font-size="14" lengthAdjust="spacing" textLength="137.0879" x="29.25" y="639.7189">REVOCATION_ROLE</text><text fill="#000000" font-family="Arial" font-size="14" lengthAdjust="spacing" textLength="105.2324" x="29.25" y="656.0157">MANDAT_CREE</text><text fill="#000000" font-family="Arial" font-size="14" lengthAdjust="spacing" textLength="137.3203" x="29.25" y="672.3126">MANDAT_REVOQUE</text><text fill="#000000" font-family="Arial" font-size="14" lengthAdjust="spacing" textLength="117.6123" x="29.25" y="688.6095">ENTITE_AJOUTEE</text><text fill="#000000" font-family="Arial" font-size="14" lengthAdjust="spacing" textLength="136.042" x="29.25" y="704.9064">ENTITE_SUPPRIMEE</text><text fill="#000000" font-family="Arial" font-size="14" lengthAdjust="spacing" textLength="196" x="29.25" y="721.2032">MODIFICATION_TAXONOMIE</text><text fill="#000000" font-family="Arial" font-size="14" lengthAdjust="spacing" textLength="275.4951" x="29.25" y="737.5001">MODIFICATION_CONFIG_CATASTROPHE</text><line style="stroke:#555555;stroke-width:0.5;" x1="24.25" x2="309.7451" y1="744.8019" y2="744.8019"/></g><g class="entity" data-qualified-name="P8 . Journal . Audit.GMN15" data-source-line="141" id="ent0016"><path d="M309.29,97.26 L309.29,127.19 L274.73,131.19 L309.29,135.19 L309.29,165.1194 A2.5,2.5 0 0 0 311.79,167.6194 L470.2036,167.6194 A2.5,2.5 0 0 0 472.7036,165.1194 L472.7036,104.76 L462.7036,94.76 L311.79,94.76 A2.5,2.5 0 0 0 309.29,97.26" fill="#FFFDE7" style="stroke:#F9A825;stroke-width:0.5;"/><path d="M462.7036,94.76 L462.7036,103.51 A1.25,1.25 0 0 0 463.9536,104.76 L472.7036,104.76 L462.7036,94.76" fill="#FFFDE7" style="stroke:#F9A825;stroke-width:0.5;"/><text fill="#000000" font-family="Arial" font-size="9" lengthAdjust="spacing" textLength="105.6621" x="315.29" y="108.114">&#167;5 ex.10 : le journal est</text><text fill="#000000" font-family="Arial" font-size="9" font-weight="bold" lengthAdjust="spacing" textLength="47.0918" x="315.29" y="118.5906">structur&#233;</text><text fill="#000000" font-family="Arial" font-size="9" lengthAdjust="spacing" textLength="82.8457" x="365.2426" y="118.5906">(pas un simple log</text><text fill="#000000" font-family="Arial" font-size="9" lengthAdjust="spacing" textLength="118.6699" x="315.29" y="129.0671">texte) pour permettre une</text><text fill="#000000" font-family="Arial" font-size="9" font-weight="bold" lengthAdjust="spacing" textLength="106.8574" x="315.29" y="139.5437">analyse automatique</text><text fill="#000000" font-family="Arial" font-size="9" lengthAdjust="spacing" textLength="2.8608" x="422.1474" y="139.5437">.</text><text fill="#000000" font-family="Arial" font-size="9" lengthAdjust="spacing" textLength="142.4136" x="315.29" y="150.0203">TypeOperation couvre 25 types</text><text fill="#000000" font-family="Arial" font-size="9" lengthAdjust="spacing" textLength="107.8506" x="315.29" y="160.4968">d'&#233;v&#233;nements syst&#232;me.</text></g><!--class Acteur--><g class="entity" data-qualified-name="Acteur" data-source-line="40" id="ent0002"><rect fill="#F0F0F0" height="35.6094" rx="2.5" ry="2.5" style="stroke:#AAAAAA;stroke-width:0.5;" width="64.8613" x="504.57" y="507.28"/><ellipse cx="519.57" cy="525.0847" fill="#ADD1B2" rx="11" ry="11" style="stroke:#181818;stroke-width:1;"/><path d="M522.5388,530.7253 Q521.9606,531.0222 521.32,531.1628 Q520.6794,531.3191 519.9763,531.3191 Q517.4763,531.3191 516.1481,529.6784 Q514.8356,528.0222 514.8356,524.8972 Q514.8356,521.7722 516.1481,520.1159 Q517.4763,518.4597 519.9763,518.4597 Q520.6794,518.4597 521.32,518.6159 Q521.9763,518.7722 522.5388,519.0691 L522.5388,521.7878 Q521.9138,521.2097 521.32,520.9441 Q520.7263,520.6628 520.1013,520.6628 Q518.7575,520.6628 518.07,521.7409 Q517.3825,522.8034 517.3825,524.8972 Q517.3825,526.9909 518.07,528.0691 Q518.7575,529.1316 520.1013,529.1316 Q520.7263,529.1316 521.32,528.8659 Q521.9138,528.5847 522.5388,528.0066 L522.5388,530.7253 Z " fill="#000000"/><text fill="#000000" font-family="Arial" font-size="12" font-style="italic" lengthAdjust="spacing" textLength="33.873" x="533.0641" y="523.4187">&#171;ext&#187;</text><text fill="#777777" font-family="Arial" font-size="10" lengthAdjust="spacing" textLength="32.8613" x="533.57" y="535.531">Acteur</text></g><!--class Proposition--><g class="entity" data-qualified-name="Proposition" data-source-line="41" id="ent0003"><rect fill="#F0F0F0" height="35.6094" rx="2.5" ry="2.5" style="stroke:#AAAAAA;stroke-width:0.5;" width="87.8691" x="964.07" y="507.28"/><ellipse cx="979.07" cy="525.0847" fill="#ADD1B2" rx="11" ry="11" style="stroke:#181818;stroke-width:1;"/><path d="M982.0388,530.7253 Q981.4606,531.0222 980.82,531.1628 Q980.1794,531.3191 979.4763,531.3191 Q976.9763,531.3191 975.6481,529.6784 Q974.3356,528.0222 974.3356,524.8972 Q974.3356,521.7722 975.6481,520.1159 Q976.9763,518.4597 979.4763,518.4597 Q980.1794,518.4597 980.82,518.6159 Q981.4763,518.7722 982.0388,519.0691 L982.0388,521.7878 Q981.4138,521.2097 980.82,520.9441 Q980.2263,520.6628 979.6013,520.6628 Q978.2575,520.6628 977.57,521.7409 Q976.8825,522.8034 976.8825,524.8972 Q976.8825,526.9909 977.57,528.0691 Q978.2575,529.1316 979.6013,529.1316 Q980.2263,529.1316 980.82,528.8659 Q981.4138,528.5847 982.0388,528.0066 L982.0388,530.7253 Z " fill="#000000"/><text fill="#000000" font-family="Arial" font-size="12" font-style="italic" lengthAdjust="spacing" textLength="33.873" x="1004.068" y="523.4187">&#171;ext&#187;</text><text fill="#777777" font-family="Arial" font-size="10" lengthAdjust="spacing" textLength="55.8691" x="993.07" y="535.531">Proposition</text></g><!--link Notification to Acteur--><g class="link" data-entity-1="ent0005" data-entity-2="ent0002" data-link-type="dependency" data-source-line="77" id="lnk7"><path codeLine="77" d="M668.59,204.46 C639.04,230.68 609.15,262.52 589,297.38 C548.38,367.65 539.7852,461.3373 537.8352,500.9273" fill="none" id="Notification-to-Acteur" style="stroke:#444444;stroke-width:1;"/><polygon fill="#444444" points="537.54,506.92,541.9779,498.1277,537.786,501.9261,533.9876,497.7341,537.54,506.92" style="stroke:#444444;stroke-width:1;"/><text fill="#000000" font-family="Arial" font-size="13" lengthAdjust="spacing" textLength="108.3418" x="621" y="263.4469">destinataire (P1)</text><text fill="#000000" font-family="Arial" font-size="13" lengthAdjust="spacing" textLength="6.5" x="652.9477" y="224.2316">*</text><text fill="#000000" font-family="Arial" font-size="13" lengthAdjust="spacing" textLength="8.271" x="528.5217" y="496.1474">1</text></g><!--link Notification to TypeNotification--><g class="link" data-entity-1="ent0005" data-entity-2="ent0006" data-link-type="dependency" data-source-line="78" id="lnk8"><path codeLine="78" d="M767,204.53 C767,269.77 767,359.92 767,429.7" fill="none" id="Notification-to-TypeNotification" style="stroke:#444444;stroke-width:1;"/><polygon fill="#444444" points="767,435.7,771,426.7,767,430.7,763,426.7,767,435.7" style="stroke:#444444;stroke-width:1;"/><text fill="#000000" font-family="Arial" font-size="13" lengthAdjust="spacing" textLength="29.0405" x="768" y="263.4469">type</text></g><!--link Notification to Proposition--><g class="link" data-entity-1="ent0005" data-entity-2="ent0003" data-link-type="dependency" data-source-line="82" id="lnk9"><path codeLine="82" d="M863.55,204.19 C893.34,230.6 923.84,262.63 945,297.38 C987.7,367.51 1001.5502,461.3042 1005.8002,500.9342" fill="none" id="Notification-to-Proposition" style="stroke:#444444;stroke-width:1;stroke-dasharray:7,7;"/><polygon fill="#444444" points="1006.44,506.9,1009.4575,497.5248,1005.9068,501.9285,1001.5031,498.3778,1006.44,506.9" style="stroke:#444444;stroke-width:1;"/><text fill="#000000" font-family="Arial" font-size="13" lengthAdjust="spacing" textLength="129.1367" x="923" y="263.4469">ref. optionnelle (P4)</text></g><!--link EntreeJournal to Acteur--><g class="link" data-entity-1="ent0011" data-entity-2="ent0002" data-link-type="dependency" data-source-line="137" id="lnk13"><path codeLine="137" d="M275.02,211.57 C280.71,214.63 286.39,217.58 292,220.38 C376.13,262.33 428.19,225.69 489,297.38 C541.83,359.66 541.436,459.7318 538.846,500.9818" fill="none" id="EntreeJournal-to-Acteur" style="stroke:#444444;stroke-width:1;"/><polygon fill="#444444" points="538.47,506.97,543.0261,498.2383,538.7833,501.9798,535.0418,497.737,538.47,506.97" style="stroke:#444444;stroke-width:1;"/><text fill="#000000" font-family="Arial" font-size="13" lengthAdjust="spacing" textLength="107.3833" x="455" y="263.4469">r&#233;alis&#233;e par (P1)</text><text fill="#000000" font-family="Arial" font-size="13" lengthAdjust="spacing" textLength="6.5" x="282.4933" y="212.8543">*</text><text fill="#000000" font-family="Arial" font-size="13" lengthAdjust="spacing" textLength="8.271" x="540.1865" y="496.2127">1</text></g><!--link EntreeJournal to TypeOperation--><g class="link" data-entity-1="ent0011" data-entity-2="ent0012" data-link-type="dependency" data-source-line="138" id="lnk14"><path codeLine="138" d="M153.06,220.63 C154.13,243.88 155.0546,264.0663 156.2946,291.0563" fill="none" id="EntreeJournal-to-TypeOperation" style="stroke:#444444;stroke-width:1;"/><polygon fill="#444444" points="156.57,297.05,160.1527,287.8759,156.3405,292.0553,152.1612,288.2431,156.57,297.05" style="stroke:#444444;stroke-width:1;"/><text fill="#000000" font-family="Arial" font-size="13" lengthAdjust="spacing" textLength="93.7358" x="156" y="263.4469">typeOperation</text></g><?plantuml-src jLVTRjis5BxtKn0frlmiyPeqMTAW3Q38TABEbbH9phehWx5eXwiigIILDYiAz27w0BlQvli1kw_Vf4-oGr9o9Di51hHZSY6Tx_3myFnzyYPwzXMhjOdyO_JvmqVaPfADsOX8bgK2VO_y4or-dXKy9GbwYAmYPX9jnVEP92n1esoQ9rHk6miXg8seGAVeqvz7YBvj_xYhdjhxwdc_V6u_DWy7IbX_FbH6JbQDx3y2uAkkrnAlM9eJJgPeb10XB2avkouaTKPP6hBVA7gqhDBDKgcH_JgKaz4hCg6Xl4ieudGaIJf9Q4r1t90uUyFI2HgJHDGHdXLfFCfuIZawgibZEYP58jLvBfbIP756aXMFqRiMGkTm-aJRiRCau-Zd6oQfacSyfjp87Xpf1LABy-nDAJpK2uJgc5AshnV8BYc1xSl67tGFr5_hVSsLD9DqhISFkjrk1nyl-z9zOfqS79N7wcW-QTWhmsbCrZUUwDNqzx5UbJ6TWUiiYS4WbCVUtXuAvhFnVCPfggg7lfKKOYqKyb-2-VGfx3Wx0vyVgR-cGmlGqglkrm8wrWkykM4nHPLuIgVNb8jMonniZIGjEDAhL2aHdsTv9fZgkmNojMKFxMJPFraNMFNcQREtlzPsbReDCFtfdwRj3OZY2KIn2u66M9aBrZLq0X2CbvX8QdDgXAUe0wyHcz8QYjFRZAdN5PGAsIkeYIMWvrcMK9AMeBpBAqY14RpM7IYreFibJOjAAuIfa4vAZDCnJYKqc1ClOPiDx1aQ39mEj35ADgaIpcVAxWYgRpwZvGQ4jce9teLI_JkXkyWdAQDy5pdA3OLqilJpXp-sorsDa4tcCp38mIOYXSoc87rTq2diWpRY2Bf1t0av_ql7vxsAEznikdBpClI1vVkuDmoy7XxYbxuJM97ZkKEdttTSx4ROAE6UvTfuw0UUxuMErh2kB3SQMe5zwLn1PMaztt8T70mjrns0EQ_R3V0mm7qdn4FBZfmhe-M0MLVRw2Wxjetz2A-30jmTX6iHstExJj0tlWRunG2Eq6hcp120i6iv4HuU7mrzRn3Oi5ahX8EB2noQ6_Y-5JYu3z2muuI-vphdFLo6lE8jNG-Sv3bD45V90cdEk0aXcqvP2e6dzvjAYbERQ48W-oY7V7EcQP93ocu998hmqGsxXRQfRJGq21jpNGo8f6cHG0tjdQ5iFEOmmH9sRH8lwkV17kralNOG6OreBbMD_A2Aj13c4UfnpFZKUC_fwuA9Xk_WkBQb3qG2zCIOG7cZ-U_e-0Xzj-pk8UYAOZA15bGMuqq85E7CL6FCH9wbx3fP56AZ_ZPsDc0cdw6D_Ot6E2nxC5OsKsAYjkNlRo_lrqiPK6kbkazrvnjE-Fpn0_oZ019YqWQHudlbu18b_7__jnhkjTjdZKclocNSHbcktbAQ9EhEXzlVSlAVm25Bds_VRlQVgDc_P7sZvD36z8TnoIcjDElZ_n8gu7wAByrubKmlfxnAlPda2qcfHNGPgJbTcL4ZkQ89DPFlR5MFMkDBe3Ayp04nLH-vebQU3PZ4q9w2ElvwM008JYxyMYAHnTSj0B-MWG4MYRn1X4EOvmBA0lg-fEkAHnOhZ8A17Gq2Z7BOZ20aKmgVjHGLAOmRC7Od6aonQc4h9mAqaM3g6nubsGH9zTcal_ZdiriW7DtHGgLXFXFRAyHodvftfVcovspuMI3X1WzHQ89GjPjMWp7kufSmY_LR1pVVxG2R0MzxVN_1H95rtdF2q8njpGEAcfgdrZghSLu7-rvKPp4jxNiTf-lOvgnbqEvvAhOhyWNnhI01jd-nU-kGXNyH9wc0OjN-FKHz8e4EuAT2mzNpGJIC0iiD5NLMtjHvRndKjBiUmkwLvmpxE0mhgZwtGbkHz9KJEkTEJr4bSA0z2CCLRyt7IJDnLMeCuw_wLfFNtAf95zQj63YK2LdMJ-qGAue21wAWETxhLGLmvPMfMiZwbjkne1W2t7XNgYy6k0n0fAveFLTDrH250zyFd7wrjLuBaVNISxs-imRIbxqOmfi5_UVvbtXDCyEbYf4iWB5DQwvlHjr9pR7uPMe4dfZFIC8qdwlFlP8Pc_lhrDXipzFc95L7wzzod4rk9D1-qv2-K_r6C1sg2GNqhE6TdVjhxkoicILQIy-JxJKJghIn9ZGxE-tMwWL6MN4BEm-Ez4NCE8mt6qEg-lnjwmaLwmkstlyB?></g></svg>