<?plantuml 1.2026.2beta3?><svg xmlns="http://www.w3.org/2000/svg" xmlns:xlink="http://www.w3.org/1999/xlink" contentStyleType="text/css" data-diagram-type="CLASS" height="638px" preserveAspectRatio="none" style="width:664px;height:638px;background:#FFFFFF;" version="1.1" viewBox="0 0 664 638" width="664px" zoomAndPan="magnify"><defs/><g><!--cluster P3 ? Configuration & Taxonomie--><g class="cluster" data-qualified-name="P3 . Configuration . Taxonomie" data-source-line="45" id="ent0004"><rect fill="#FFF0F0" height="527.07" rx="2.5" ry="2.5" style="stroke:#888888;stroke-width:1.5;" width="651" x="7" y="105.61"/><text fill="#333333" font-family="Arial" font-size="14" font-weight="bold" lengthAdjust="spacing" textLength="251.3027" x="206.8486" y="120.6051">P3 &#183; Configuration &amp; Taxonomie</text></g><!--class ConfigCatastrophe--><g class="entity" data-qualified-name="P3 . Configuration . Taxonomie.ConfigCatastrophe" data-source-line="47" id="ent0005"><rect fill="#FFFFFF" height="210.9688" rx="2.5" ry="2.5" style="stroke:#555555;stroke-width:0.5;" width="304.7285" x="22.64" y="140.61"/><rect fill="#F2F2F2" height="32" rx="2.5" ry="2.5" style="stroke:#F2F2F2;stroke-width:0.5;" width="304.7285" x="22.64" y="140.61"/><rect fill="#F2F2F2" height="2.5" style="stroke:#F2F2F2;stroke-width:0.5;" width="304.7285" x="22.64" y="170.11"/><rect fill="none" height="210.9688" rx="2.5" ry="2.5" style="stroke:#555555;stroke-width:0.5;" width="304.7285" x="22.64" y="140.61"/><ellipse cx="124.0331" cy="156.61" fill="#ADD1B2" rx="11" ry="11" style="stroke:#181818;stroke-width:1;"/><path d="M127.0018,162.2506 Q126.4237,162.5475 125.7831,162.6881 Q125.1424,162.8444 124.4393,162.8444 Q121.9393,162.8444 120.6112,161.2037 Q119.2987,159.5475 119.2987,156.4225 Q119.2987,153.2975 120.6112,151.6412 Q121.9393,149.985 124.4393,149.985 Q125.1424,149.985 125.7831,150.1412 Q126.4393,150.2975 127.0018,150.5944 L127.0018,153.3131 Q126.3768,152.735 125.7831,152.4694 Q125.1893,152.1881 124.5643,152.1881 Q123.2206,152.1881 122.5331,153.2662 Q121.8456,154.3287 121.8456,156.4225 Q121.8456,158.5162 122.5331,159.5944 Q123.2206,160.6569 124.5643,160.6569 Q125.1893,160.6569 125.7831,160.3912 Q126.3768,160.11 127.0018,159.5319 L127.0018,162.2506 Z " fill="#000000"/><text fill="#111111" font-family="Arial" font-size="10" lengthAdjust="spacing" textLength="93.4424" x="144.5331" y="160.0719">ConfigCatastrophe</text><line style="stroke:#555555;stroke-width:0.5;" x1="23.64" x2="326.3685" y1="172.61" y2="172.61"/><text fill="#000000" font-family="Arial" font-size="14" lengthAdjust="spacing" textLength="196.1094" x="28.64" y="189.6051">+nom                       : String</text><text fill="#000000" font-family="Arial" font-size="14" lengthAdjust="spacing" textLength="207.2725" x="28.64" y="205.902">+description               : String</text><text fill="#000000" font-family="Arial" font-size="14" lengthAdjust="spacing" textLength="239.8525" x="28.64" y="222.1989">+zoneGeographique          : String</text><text fill="#000000" font-family="Arial" font-size="14" lengthAdjust="spacing" textLength="213.7666" x="28.64" y="238.4957">+etatReferent              : String</text><text fill="#000000" font-family="Arial" font-size="14" lengthAdjust="spacing" textLength="269.8691" x="28.64" y="254.7926">+languesActives            : List&lt;String&gt;</text><text fill="#000000" font-family="Arial" font-size="14" lengthAdjust="spacing" textLength="241.042" x="28.64" y="271.0895">+delaiArchivageJours       : Integer</text><text fill="#000000" font-family="Arial" font-size="14" lengthAdjust="spacing" textLength="269.1104" x="28.64" y="287.3864">+delaiRappelAvantArchivage : Integer</text><text fill="#000000" font-family="Arial" font-size="14" lengthAdjust="spacing" textLength="292.7285" x="28.64" y="303.6832">+modesIdentificationActifs : List&lt;String&gt;</text><text fill="#000000" font-family="Arial" font-size="14" lengthAdjust="spacing" textLength="204.2236" x="28.64" y="319.9801">+dateDebut                 : Date</text><text fill="#000000" font-family="Arial" font-size="14" lengthAdjust="spacing" textLength="218.1895" x="28.64" y="336.277">+estActive                 : Boolean</text><line style="stroke:#555555;stroke-width:0.5;" x1="23.64" x2="326.3685" y1="343.5787" y2="343.5787"/></g><!--class CategorieTaxonomie--><g class="entity" data-qualified-name="P3 . Configuration . Taxonomie.CategorieTaxonomie" data-source-line="65" id="ent0006"><rect fill="#FFFFFF" height="113.1875" rx="2.5" ry="2.5" style="stroke:#555555;stroke-width:0.5;" width="270.501" x="22.75" y="466.04"/><rect fill="#F2F2F2" height="32" rx="2.5" ry="2.5" style="stroke:#F2F2F2;stroke-width:0.5;" width="270.501" x="22.75" y="466.04"/><rect fill="#F2F2F2" height="2.5" style="stroke:#F2F2F2;stroke-width:0.5;" width="270.501" x="22.75" y="495.54"/><rect fill="none" height="113.1875" rx="2.5" ry="2.5" style="stroke:#555555;stroke-width:0.5;" width="270.501" x="22.75" y="466.04"/><ellipse cx="101.7046" cy="482.04" fill="#ADD1B2" rx="11" ry="11" style="stroke:#181818;stroke-width:1;"/><path d="M104.6733,487.6806 Q104.0952,487.9775 103.4546,488.1181 Q102.814,488.2744 102.1108,488.2744 Q99.6108,488.2744 98.2827,486.6337 Q96.9702,484.9775 96.9702,481.8525 Q96.9702,478.7275 98.2827,477.0712 Q99.6108,475.415 102.1108,475.415 Q102.814,475.415 103.4546,475.5712 Q104.1108,475.7275 104.6733,476.0244 L104.6733,478.7431 Q104.0483,478.165 103.4546,477.8994 Q102.8608,477.6181 102.2358,477.6181 Q100.8921,477.6181 100.2046,478.6962 Q99.5171,479.7587 99.5171,481.8525 Q99.5171,483.9462 100.2046,485.0244 Q100.8921,486.0869 102.2358,486.0869 Q102.8608,486.0869 103.4546,485.8212 Q104.0483,485.54 104.6733,484.9619 L104.6733,487.6806 Z " fill="#000000"/><text fill="#111111" font-family="Arial" font-size="10" lengthAdjust="spacing" textLength="104.0918" x="122.2046" y="485.5019">CategorieTaxonomie</text><line style="stroke:#555555;stroke-width:0.5;" x1="23.75" x2="292.251" y1="498.04" y2="498.04"/><text fill="#000000" font-family="Arial" font-size="14" lengthAdjust="spacing" textLength="132.043" x="28.75" y="515.0351">+code        : String</text><text fill="#000000" font-family="Arial" font-size="14" lengthAdjust="spacing" textLength="247.3379" x="28.75" y="531.332">+nom         : Map&lt;Langue, String&gt;</text><text fill="#000000" font-family="Arial" font-size="14" lengthAdjust="spacing" textLength="258.501" x="28.75" y="547.6289">+description : Map&lt;Langue, String&gt;</text><text fill="#000000" font-family="Arial" font-size="14" lengthAdjust="spacing" textLength="155.8867" x="28.75" y="563.9257">+estActive   : Boolean</text><line style="stroke:#555555;stroke-width:0.5;" x1="23.75" x2="292.251" y1="571.2275" y2="571.2275"/></g><g class="entity" data-qualified-name="P3 . Configuration . Taxonomie.GMN7" data-source-line="75" id="ent0008"><path d="M460.45,431.08 L460.45,518.63 L293.48,522.63 L460.45,526.63 L460.45,614.1816 A2.5,2.5 0 0 0 462.95,616.6816 L639.0472,616.6816 A2.5,2.5 0 0 0 641.5472,614.1816 L641.5472,438.58 L631.5472,428.58 L462.95,428.58 A2.5,2.5 0 0 0 460.45,431.08" fill="#FFFDE7" style="stroke:#F9A825;stroke-width:0.5;"/><path d="M631.5472,428.58 L631.5472,437.33 A1.25,1.25 0 0 0 632.7972,438.58 L641.5472,438.58 L631.5472,428.58" fill="#FFFDE7" style="stroke:#F9A825;stroke-width:0.5;"/><text fill="#000000" font-family="Arial" font-size="9" font-weight="bold" lengthAdjust="spacing" textLength="136.0195" x="466.45" y="441.934">Cat&#233;gories de base (&#167;5.3) :</text><text fill="#000000" font-family="Arial" font-size="9" lengthAdjust="spacing" textLength="56.7554" x="466.45" y="452.4106">1. Logement</text><text fill="#000000" font-family="Arial" font-size="9" lengthAdjust="spacing" textLength="61.3828" x="466.45" y="462.8871">2. &#201;vacuation</text><text fill="#000000" font-family="Arial" font-size="9" lengthAdjust="spacing" textLength="87.7017" x="466.45" y="473.3637">3. Soins personnels</text><text fill="#000000" font-family="Arial" font-size="9" lengthAdjust="spacing" textLength="142.0049" x="466.45" y="483.8403">4. Informations contextualis&#233;es</text><text fill="#000000" font-family="Arial" font-size="9" lengthAdjust="spacing" textLength="126.9185" x="466.45" y="494.3168">5. Offre / demande d'emploi</text><text fill="#000000" font-family="Arial" font-size="9" lengthAdjust="spacing" textLength="79.0313" x="466.45" y="504.7934">6. Aide financi&#232;re</text><text fill="#000000" font-family="Arial" font-size="9" lengthAdjust="spacing" textLength="103.2847" x="466.45" y="515.2699">7. Assistance m&#233;dicale</text><text fill="#000000" font-family="Arial" font-size="9" lengthAdjust="spacing" textLength="62.8989" x="466.45" y="525.7465">8. Fournitures</text><text fill="#000000" font-family="Arial" font-size="9" lengthAdjust="spacing" textLength="78.1084" x="466.45" y="536.2231">9. Aide logistique</text><text fill="#000000" font-family="Arial" font-size="9" lengthAdjust="spacing" textLength="157.1353" x="466.45" y="546.6996">&#9472;&#9472;&#9472;&#9472;&#9472;&#9472;&#9472;&#9472;&#9472;&#9472;&#9472;&#9472;&#9472;&#9472;&#9472;&#9472;&#9472;&#9472;&#9472;&#9472;&#9472;&#9472;&#9472;&#9472;&#9472;&#9472;&#9472;&#9472;&#9472;</text><text fill="#000000" font-family="Arial" font-size="9" font-weight="bold" lengthAdjust="spacing" textLength="126.0747" x="466.45" y="557.1762">Pattern Composite (GoF)</text><text fill="#000000" font-family="Arial" font-size="9" lengthAdjust="spacing" textLength="157.4692" x="466.45" y="567.6528">Arbre cat&#233;gories / sous-cat&#233;gories.</text><text fill="#000000" font-family="Arial" font-size="9" lengthAdjust="spacing" textLength="126.2988" x="466.45" y="578.1293">Extensible par l'AC en cours</text><text fill="#000000" font-family="Arial" font-size="9" lengthAdjust="spacing" textLength="160.0972" x="466.45" y="588.6059">de catastrophe sans red&#233;ploiement</text><text fill="#000000" font-family="Arial" font-size="9" lengthAdjust="spacing" textLength="144.6592" x="466.45" y="599.0824">(ex. "Kayak/Zodiac" inondations</text><text fill="#000000" font-family="Arial" font-size="9" lengthAdjust="spacing" textLength="114.9478" x="466.45" y="609.559">de Li&#232;ge 2021 &#8212; &#167;5 ex.3)</text></g><!--class Acteur--><g class="entity" data-qualified-name="Acteur" data-source-line="39" id="ent0002"><rect fill="#F0F0F0" height="35.6094" rx="2.5" ry="2.5" style="stroke:#AAAAAA;stroke-width:0.5;" width="64.8613" x="90.57" y="7"/><ellipse cx="105.57" cy="24.8047" fill="#ADD1B2" rx="11" ry="11" style="stroke:#181818;stroke-width:1;"/><path d="M108.5388,30.4453 Q107.9606,30.7422 107.32,30.8828 Q106.6794,31.0391 105.9763,31.0391 Q103.4763,31.0391 102.1481,29.3984 Q100.8356,27.7422 100.8356,24.6172 Q100.8356,21.4922 102.1481,19.8359 Q103.4763,18.1797 105.9763,18.1797 Q106.6794,18.1797 107.32,18.3359 Q107.9763,18.4922 108.5388,18.7891 L108.5388,21.5078 Q107.9138,20.9297 107.32,20.6641 Q106.7263,20.3828 106.1013,20.3828 Q104.7575,20.3828 104.07,21.4609 Q103.3825,22.5234 103.3825,24.6172 Q103.3825,26.7109 104.07,27.7891 Q104.7575,28.8516 106.1013,28.8516 Q106.7263,28.8516 107.32,28.5859 Q107.9138,28.3047 108.5388,27.7266 L108.5388,30.4453 Z " fill="#000000"/><text fill="#000000" font-family="Arial" font-size="12" font-style="italic" lengthAdjust="spacing" textLength="33.873" x="119.0641" y="23.1387">&#171;ext&#187;</text><text fill="#777777" font-family="Arial" font-size="10" lengthAdjust="spacing" textLength="32.8613" x="119.57" y="35.251">Acteur</text></g><!--class Proposition--><g class="entity" data-qualified-name="Proposition" data-source-line="40" id="ent0003"><rect fill="#F0F0F0" height="35.6094" rx="2.5" ry="2.5" style="stroke:#AAAAAA;stroke-width:0.5;" width="87.8691" x="297.07" y="7"/><ellipse cx="312.07" cy="24.8047" fill="#ADD1B2" rx="11" ry="11" style="stroke:#181818;stroke-width:1;"/><path d="M315.0388,30.4453 Q314.4606,30.7422 313.82,30.8828 Q313.1794,31.0391 312.4763,31.0391 Q309.9763,31.0391 308.6481,29.3984 Q307.3356,27.7422 307.3356,24.6172 Q307.3356,21.4922 308.6481,19.8359 Q309.9763,18.1797 312.4763,18.1797 Q313.1794,18.1797 313.82,18.3359 Q314.4763,18.4922 315.0388,18.7891 L315.0388,21.5078 Q314.4138,20.9297 313.82,20.6641 Q313.2263,20.3828 312.6013,20.3828 Q311.2575,20.3828 310.57,21.4609 Q309.8825,22.5234 309.8825,24.6172 Q309.8825,26.7109 310.57,27.7891 Q311.2575,28.8516 312.6013,28.8516 Q313.2263,28.8516 313.82,28.5859 Q314.4138,28.3047 315.0388,27.7266 L315.0388,30.4453 Z " fill="#000000"/><text fill="#000000" font-family="Arial" font-size="12" font-style="italic" lengthAdjust="spacing" textLength="33.873" x="337.068" y="23.1387">&#171;ext&#187;</text><text fill="#777777" font-family="Arial" font-size="10" lengthAdjust="spacing" textLength="55.8691" x="326.07" y="35.251">Proposition</text></g><!--reverse link CategorieTaxonomie to CategorieTaxonomie--><g class="link" data-entity-1="ent0006" data-entity-2="ent0006" data-link-type="aggregation" data-source-line="95" id="lnk10"><path codeLine="95" d="M305.3961,501.9465 C326.0561,505.3965 328.25,510.98 328.25,522.63 C328.25,534.28 314.22,541.83 293.56,545.29" fill="none" id="CategorieTaxonomie-backto-CategorieTaxonomie" style="stroke:#444444;stroke-width:1;"/><polygon fill="none" points="293.56,499.97,298.8192,504.9036,305.3961,501.9465,300.1369,497.0129,293.56,499.97" style="stroke:#444444;stroke-width:1;"/><text fill="#000000" font-family="Arial" font-size="13" lengthAdjust="spacing" textLength="102.5718" x="334.25" y="527.1969">sous-cat&#233;gories</text><text fill="#000000" font-family="Arial" font-size="13" lengthAdjust="spacing" textLength="71.8364" x="301.3301" y="495.6731">0..1 parent</text><text fill="#000000" font-family="Arial" font-size="13" lengthAdjust="spacing" textLength="6.5" x="301.1511" y="543.1894">*</text></g><!--link ConfigCatastrophe to CategorieTaxonomie--><g class="link" data-entity-1="ent0005" data-entity-2="ent0006" data-link-type="dependency" data-source-line="97" id="lnk11"><path codeLine="97" d="M168.5,352.06 C166.1,390.81 163.8516,427.2115 161.8216,459.9215" fill="none" id="ConfigCatastrophe-to-CategorieTaxonomie" style="stroke:#444444;stroke-width:1;"/><polygon fill="#444444" points="161.45,465.91,165.9998,457.175,161.7597,460.9196,158.0152,456.6795,161.45,465.91" style="stroke:#444444;stroke-width:1;"/><text fill="#000000" font-family="Arial" font-size="13" lengthAdjust="spacing" textLength="112.8232" x="167" y="394.6469">taxonomie active</text><text fill="#000000" font-family="Arial" font-size="13" lengthAdjust="spacing" textLength="8.271" x="159.8033" y="371.7548">1</text><text fill="#000000" font-family="Arial" font-size="13" lengthAdjust="spacing" textLength="6.5" x="155.5353" y="455.1577">*</text></g><!--link Acteur to ConfigCatastrophe--><g class="link" data-entity-1="ent0002" data-entity-2="ent0005" data-link-type="dependency" data-source-line="101" id="lnk12"><path codeLine="101" d="M120.19,42.99 C118.57,55.9 117.32,73.98 120,89.61 C122.86,106.26 125.5427,117.7593 130.7127,134.4293" fill="none" id="Acteur-to-ConfigCatastrophe" style="stroke:#444444;stroke-width:1;"/><polygon fill="#444444" points="132.49,140.16,133.6445,130.379,131.0089,135.3844,126.0035,132.7488,132.49,140.16" style="stroke:#444444;stroke-width:1;"/><text fill="#000000" font-family="Arial" font-size="13" lengthAdjust="spacing" textLength="120.1421" x="121" y="85.6769">contexte actif (P1)</text></g><!--link Proposition to ConfigCatastrophe--><g class="link" data-entity-1="ent0003" data-entity-2="ent0005" data-link-type="dependency" data-source-line="102" id="lnk13"><path codeLine="102" d="M315.54,42.98 C304.47,51.17 291.83,61.58 282,72.61 C263.83,93 250.0783,111.7962 235.2383,135.1462" fill="none" id="Proposition-to-ConfigCatastrophe" style="stroke:#444444;stroke-width:1;"/><polygon fill="#444444" points="232.02,140.21,240.2234,134.7598,234.7019,135.9901,233.4716,130.4687,232.02,140.21" style="stroke:#444444;stroke-width:1;"/><text fill="#000000" font-family="Arial" font-size="13" lengthAdjust="spacing" textLength="87.6104" x="283" y="85.6769">contexte (P4)</text></g><!--link Proposition to CategorieTaxonomie--><g class="link" data-entity-1="ent0003" data-entity-2="ent0006" data-link-type="dependency" data-source-line="103" id="lnk14"><path codeLine="103" d="M357.51,42.98 C364.33,51.25 371.46,61.72 375,72.61 C377.33,79.8 375.43,82.07 375,89.61 C368.32,206.61 398.43,247.28 345,351.58 C321.69,397.08 285.5995,432.6878 248.0295,462.0178" fill="none" id="Proposition-to-CategorieTaxonomie" style="stroke:#444444;stroke-width:1;"/><polygon fill="#444444" points="243.3,465.71,252.8556,463.3247,247.2412,462.6332,247.9327,457.0188,243.3,465.71" style="stroke:#444444;stroke-width:1;"/><text fill="#000000" font-family="Arial" font-size="13" lengthAdjust="spacing" textLength="91.7554" x="378" y="250.6569">cat&#233;gorie (P4)</text></g><?plantuml-src jLRTJXj75BxtKnmPgVmq66nm09SWRGocD3H1k5AbLhqOxvwrfypER6Tc2QIAbDlUvnrQFq7lupV9a_JCx7gznZQfH3iWiPmvlz_vctLuyOHJMuUhFVZyuIDqbOpvCDFCSYNXA_Y1tIcf4ewm4Kt6bd41eKfIWNQJXFegqo4QwC2dFzk0Tutci-bNg_pQAx_Q_YidxCFeFcqqjrkavackrymDbodJB85GC6C2QpKVP1OlGYNx_1t2xaEMdfBMtpIhLoaBRzWG-_PU86WCBPD3WHK6CsAHUilb468cJFL6gqn6eT8IDRGhz0XZbWdhxBrc2KAWEHCB7iFlDO2NP7tezNILK1f-776BZgvqX3gdhRNz8MgWjNfR4FVz8Q8pKz2Q_X3jMsGa_b3vMg_bVchlAwv8PN6f9skzNk_qxE2XBxsZuB3LBinwD8_cz1LmvYghWeV-pFkxvyzKcS_0G8c8559vR6zlm_La74_66gKhDxopI5WRT_Dlm3m-9ecJ4_9vr_tCErHU1lvK_Igl3lmXRqOyGfYI4qm6g4sjbXiEGekP1Ze5Gq6_qYfLXlk6cjuyjUYfNuFkg-3ypFLjPtNNFjNED8brClFfxzLswhvA25k2dn3C0y-vkymoOmc3KLuB05zJhIMm_7IWJ-qhXmLZX2RKFFNc7cLyfoIUenfgbexuRnckP4JBx3N6IALa7zKegFqpD9HLVakbDiTuoOqzphbFIay5uu4EH_oM0FkE1gCfsI-anI7gAkSrIrCKmIsJjXHQu4mKnNyHaQSyvg47tRaJcnKkC8kdIADl2Qgdp4yJZu2nUL1Bs5ug9P19pxbUZd9t4nQfduoHMbk3M0-wO51GOWI3i99abCHCuPTAYb5FIjm6iQ2dlMpX1RZWx6GCgHBK8YvpQE7NJFF8_vD9zwTGLJaRcKGodudS6zfDgL0S4rAt-S1mYmmNoVIJGne-4FIzaJ83WYVEFFtBihkIJSM4DqVXsBvPD1xH5AVzuFM58YEUIama1ePsHyHqn0r5HWZ2HVyDFDyxSgwzhpG89MMeDCVPbfrsI4YfNr6OrURfmFSiFRxqRZ-3XnKvwvt7-AhriA82t8oPGJVBVpzutQTLMKL_9aXINkEHgux9s0Tgo2iOC4FF2S47sai0boRbsYU1Rdzk_bB2v7UIviEHfPGiWSiRszhgBjFlFTY4pjQMvsesu58DPows6Z3vuvQ5cMyhJzfhq8E6d86KfhgI4aLUm_kKFnahdNXMurh14XeP4ow_c3Er6_0cZZN23hcGKFeHedLC72x-_da30hSyOYwP3FdaBvrxVq1qOxYhc10XcOmZwdIHtnqsQ1TbMdARwSBCKQ56g279bBtn-UE7_-EtmFUAMRTmQQ0dVfCHkkUgjraW6sXAv5oETy2ep6nNI0tFURQaXEQcHOHpayGmGdj9UMsubgg_OlViPkSdHTqOrgc85BMSJz1KrIMXJ5ErjTjg-hVjj9XTUQ6CV7MvAgDbkX1W1vWFA_fIP2I_f8thkmqQU1GakLm7HG-O-bPz6MDdKQ7JkB0vwyqwlNPELgknvJVppPm_dV8qmZMjdBnsRwcqQTHPggVf2ytynzLJcps4mFky64rdsaEvjp5iN3KtQzM7qXVbDgxsbqWiGsQ6hHVw1m00?></g></svg>