<?plantuml 1.2026.2beta3?><svg xmlns="http://www.w3.org/2000/svg" xmlns:xlink="http://www.w3.org/1999/xlink" contentStyleType="text/css" data-diagram-type="CLASS" height="775px" preserveAspectRatio="none" style="width:1387px;height:775px;background:#FFFFFF;" version="1.1" viewBox="0 0 1387 775" width="1387px" zoomAndPan="magnify"><defs/><g><!--cluster P6 ? Matching & Transactions--><g class="cluster" data-qualified-name="P6 . Matching . Transactions" data-source-line="50" id="ent0007"><rect fill="#FFF5E0" height="436" rx="2.5" ry="2.5" style="stroke:#888888;stroke-width:1.5;" width="1100.2" x="7" y="7"/><text fill="#333333" font-family="Arial" font-size="14" font-weight="bold" lengthAdjust="spacing" textLength="231.5059" x="441.3471" y="21.9951">P6 &#183; Matching &amp; Transactions</text></g><!--class Transaction--><g class="entity" data-qualified-name="P6 . Matching . Transactions.Transaction" data-source-line="54" id="ent0008"><rect fill="#FFFFFF" height="96.8906" rx="2.5" ry="2.5" style="stroke:#555555;stroke-width:0.5;" width="230.2168" x="31" y="181.56"/><rect fill="#F2F2F2" height="32" rx="2.5" ry="2.5" style="stroke:#F2F2F2;stroke-width:0.5;" width="230.2168" x="31" y="181.56"/><rect fill="#F2F2F2" height="2.5" style="stroke:#F2F2F2;stroke-width:0.5;" width="230.2168" x="31" y="211.06"/><rect fill="none" height="96.8906" rx="2.5" ry="2.5" style="stroke:#555555;stroke-width:0.5;" width="230.2168" x="31" y="181.56"/><ellipse cx="112.52" cy="197.56" fill="#ADD1B2" rx="11" ry="11" style="stroke:#181818;stroke-width:1;"/><path d="M115.4888,203.2006 Q114.9106,203.4975 114.27,203.6381 Q113.6294,203.7944 112.9263,203.7944 Q110.4263,203.7944 109.0981,202.1538 Q107.7856,200.4975 107.7856,197.3725 Q107.7856,194.2475 109.0981,192.5913 Q110.4263,190.935 112.9263,190.935 Q113.6294,190.935 114.27,191.0913 Q114.9263,191.2475 115.4888,191.5444 L115.4888,194.2631 Q114.8638,193.685 114.27,193.4194 Q113.6763,193.1381 113.0513,193.1381 Q111.7075,193.1381 111.02,194.2163 Q110.3325,195.2788 110.3325,197.3725 Q110.3325,199.4663 111.02,200.5444 Q111.7075,201.6069 113.0513,201.6069 Q113.6763,201.6069 114.27,201.3413 Q114.8638,201.06 115.4888,200.4819 L115.4888,203.2006 Z " fill="#000000"/><text fill="#111111" font-family="Arial" font-size="10" lengthAdjust="spacing" textLength="58.6768" x="133.02" y="201.0219">Transaction</text><line style="stroke:#555555;stroke-width:0.5;" x1="32" x2="260.2168" y1="213.56" y2="213.56"/><text fill="#000000" font-family="Arial" font-size="14" lengthAdjust="spacing" textLength="184.6113" x="37" y="230.5551">+dateCreation : DateTime</text><text fill="#000000" font-family="Arial" font-size="14" lengthAdjust="spacing" textLength="171.8691" x="37" y="246.852">+dateMaj      : DateTime</text><text fill="#000000" font-family="Arial" font-size="14" lengthAdjust="spacing" textLength="218.2168" x="37" y="263.1489">+statut       : StatutTransaction</text><line style="stroke:#555555;stroke-width:0.5;" x1="32" x2="260.2168" y1="270.4506" y2="270.4506"/></g><!--class StatutTransaction--><g class="entity" data-qualified-name="P6 . Matching . Transactions.StatutTransaction" data-source-line="64" id="ent0009"><rect fill="#FFFFFF" height="96.8906" rx="2.5" ry="2.5" style="stroke:#555555;stroke-width:0.5;" width="121.2529" x="525.6" y="181.56"/><rect fill="#F2F2F2" height="32" rx="2.5" ry="2.5" style="stroke:#F2F2F2;stroke-width:0.5;" width="121.2529" x="525.6" y="181.56"/><rect fill="#F2F2F2" height="2.5" style="stroke:#F2F2F2;stroke-width:0.5;" width="121.2529" x="525.6" y="211.06"/><rect fill="none" height="96.8906" rx="2.5" ry="2.5" style="stroke:#555555;stroke-width:0.5;" width="121.2529" x="525.6" y="181.56"/><ellipse cx="540.6" cy="197.56" fill="#EB937F" rx="11" ry="11" style="stroke:#181818;stroke-width:1;"/><path d="M544.7094,203.56 L536.9906,203.56 L536.9906,191.1694 L544.7094,191.1694 L544.7094,193.3256 L539.4438,193.3256 L539.4438,195.9975 L544.2094,195.9975 L544.2094,198.1538 L539.4438,198.1538 L539.4438,201.4038 L544.7094,201.4038 L544.7094,203.56 Z " fill="#000000"/><text fill="#111111" font-family="Arial" font-size="10" lengthAdjust="spacing" textLength="89.2529" x="554.6" y="201.0219">StatutTransaction</text><line style="stroke:#555555;stroke-width:0.5;" x1="526.6" x2="645.8529" y1="213.56" y2="213.56"/><text fill="#000000" font-family="Arial" font-size="14" lengthAdjust="spacing" textLength="75.9746" x="531.6" y="230.5551">EN_COURS</text><text fill="#000000" font-family="Arial" font-size="14" lengthAdjust="spacing" textLength="82.9473" x="531.6" y="246.852">CONFIRMEE</text><text fill="#000000" font-family="Arial" font-size="14" lengthAdjust="spacing" textLength="66.2607" x="531.6" y="263.1489">ANNULEE</text><line style="stroke:#555555;stroke-width:0.5;" x1="526.6" x2="645.8529" y1="270.4506" y2="270.4506"/></g><!--class Discussion--><g class="entity" data-qualified-name="P6 . Matching . Transactions.Discussion" data-source-line="73" id="ent0010"><rect fill="#FFFFFF" height="80.5938" rx="2.5" ry="2.5" style="stroke:#555555;stroke-width:0.5;" width="196.6113" x="487.92" y="313.71"/><rect fill="#F2F2F2" height="32" rx="2.5" ry="2.5" style="stroke:#F2F2F2;stroke-width:0.5;" width="196.6113" x="487.92" y="313.71"/><rect fill="#F2F2F2" height="2.5" style="stroke:#F2F2F2;stroke-width:0.5;" width="196.6113" x="487.92" y="343.21"/><rect fill="none" height="80.5938" rx="2.5" ry="2.5" style="stroke:#555555;stroke-width:0.5;" width="196.6113" x="487.92" y="313.71"/><ellipse cx="555.3863" cy="329.71" fill="#ADD1B2" rx="11" ry="11" style="stroke:#181818;stroke-width:1;"/><path d="M558.3551,335.3506 Q557.7769,335.6475 557.1363,335.7881 Q556.4957,335.9444 555.7926,335.9444 Q553.2926,335.9444 551.9644,334.3038 Q550.6519,332.6475 550.6519,329.5225 Q550.6519,326.3975 551.9644,324.7413 Q553.2926,323.085 555.7926,323.085 Q556.4957,323.085 557.1363,323.2413 Q557.7926,323.3975 558.3551,323.6944 L558.3551,326.4131 Q557.7301,325.835 557.1363,325.5694 Q556.5426,325.2881 555.9176,325.2881 Q554.5738,325.2881 553.8863,326.3663 Q553.1988,327.4288 553.1988,329.5225 Q553.1988,331.6163 553.8863,332.6944 Q554.5738,333.7569 555.9176,333.7569 Q556.5426,333.7569 557.1363,333.4913 Q557.7301,333.21 558.3551,332.6319 L558.3551,335.3506 Z " fill="#000000"/><text fill="#111111" font-family="Arial" font-size="10" lengthAdjust="spacing" textLength="53.1787" x="575.8863" y="333.1719">Discussion</text><line style="stroke:#555555;stroke-width:0.5;" x1="488.92" x2="683.5313" y1="345.71" y2="345.71"/><text fill="#000000" font-family="Arial" font-size="14" lengthAdjust="spacing" textLength="184.6113" x="493.92" y="362.7051">+dateCreation : DateTime</text><text fill="#000000" font-family="Arial" font-size="14" lengthAdjust="spacing" textLength="151.5732" x="493.92" y="379.002">+visibilite   : Visibilite</text><line style="stroke:#555555;stroke-width:0.5;" x1="488.92" x2="683.5313" y1="386.3038" y2="386.3038"/></g><!--class Visibilite--><g class="entity" data-qualified-name="P6 . Matching . Transactions.Visibilite" data-source-line="82" id="ent0011"><rect fill="#FFFFFF" height="80.5938" rx="2.5" ry="2.5" style="stroke:#555555;stroke-width:0.5;" width="82.335" x="931.19" y="313.71"/><rect fill="#F2F2F2" height="32" rx="2.5" ry="2.5" style="stroke:#F2F2F2;stroke-width:0.5;" width="82.335" x="931.19" y="313.71"/><rect fill="#F2F2F2" height="2.5" style="stroke:#F2F2F2;stroke-width:0.5;" width="82.335" x="931.19" y="343.21"/><rect fill="none" height="80.5938" rx="2.5" ry="2.5" style="stroke:#555555;stroke-width:0.5;" width="82.335" x="931.19" y="313.71"/><ellipse cx="949.7773" cy="329.71" fill="#EB937F" rx="11" ry="11" style="stroke:#181818;stroke-width:1;"/><path d="M953.8866,335.71 L946.1679,335.71 L946.1679,323.3194 L953.8866,323.3194 L953.8866,325.4756 L948.621,325.4756 L948.621,328.1475 L953.3866,328.1475 L953.3866,330.3038 L948.621,330.3038 L948.621,333.5538 L953.8866,333.5538 L953.8866,335.71 Z " fill="#000000"/><text fill="#111111" font-family="Arial" font-size="10" lengthAdjust="spacing" textLength="42.3633" x="964.5744" y="333.1719">Visibilite</text><line style="stroke:#555555;stroke-width:0.5;" x1="932.19" x2="1012.525" y1="345.71" y2="345.71"/><text fill="#000000" font-family="Arial" font-size="14" lengthAdjust="spacing" textLength="49.5674" x="937.19" y="362.7051">PRIVEE</text><text fill="#000000" font-family="Arial" font-size="14" lengthAdjust="spacing" textLength="70.335" x="937.19" y="379.002">PUBLIQUE</text><line style="stroke:#555555;stroke-width:0.5;" x1="932.19" x2="1012.525" y1="386.3038" y2="386.3038"/></g><!--class Message--><g class="entity" data-qualified-name="P6 . Matching . Transactions.Message" data-source-line="89" id="ent0012"><rect fill="#FFFFFF" height="129.4844" rx="2.5" ry="2.5" style="stroke:#555555;stroke-width:0.5;" width="237.668" x="853.53" y="149.26"/><rect fill="#F2F2F2" height="32" rx="2.5" ry="2.5" style="stroke:#F2F2F2;stroke-width:0.5;" width="237.668" x="853.53" y="149.26"/><rect fill="#F2F2F2" height="2.5" style="stroke:#F2F2F2;stroke-width:0.5;" width="237.668" x="853.53" y="178.76"/><rect fill="none" height="129.4844" rx="2.5" ry="2.5" style="stroke:#555555;stroke-width:0.5;" width="237.668" x="853.53" y="149.26"/><ellipse cx="946.1999" cy="165.26" fill="#ADD1B2" rx="11" ry="11" style="stroke:#181818;stroke-width:1;"/><path d="M949.1687,170.9006 Q948.5905,171.1975 947.9499,171.3381 Q947.3093,171.4944 946.6062,171.4944 Q944.1062,171.4944 942.778,169.8538 Q941.4655,168.1975 941.4655,165.0725 Q941.4655,161.9475 942.778,160.2913 Q944.1062,158.635 946.6062,158.635 Q947.3093,158.635 947.9499,158.7913 Q948.6062,158.9475 949.1687,159.2444 L949.1687,161.9631 Q948.5437,161.385 947.9499,161.1194 Q947.3562,160.8381 946.7312,160.8381 Q945.3874,160.8381 944.6999,161.9163 Q944.0124,162.9788 944.0124,165.0725 Q944.0124,167.1663 944.6999,168.2444 Q945.3874,169.3069 946.7312,169.3069 Q947.3562,169.3069 947.9499,169.0413 Q948.5437,168.76 949.1687,168.1819 L949.1687,170.9006 Z " fill="#000000"/><text fill="#111111" font-family="Arial" font-size="10" lengthAdjust="spacing" textLength="43.8281" x="966.6999" y="168.7219">Message</text><line style="stroke:#555555;stroke-width:0.5;" x1="854.53" x2="1090.198" y1="181.26" y2="181.26"/><text fill="#000000" font-family="Arial" font-size="14" lengthAdjust="spacing" textLength="177.5156" x="859.53" y="198.2551">+contenu             : String</text><text fill="#000000" font-family="Arial" font-size="14" lengthAdjust="spacing" textLength="208.0313" x="859.53" y="214.552">+dateEnvoi           : DateTime</text><text fill="#000000" font-family="Arial" font-size="14" lengthAdjust="spacing" textLength="172.6963" x="859.53" y="230.8489">+langue              : String</text><text fill="#000000" font-family="Arial" font-size="14" lengthAdjust="spacing" textLength="225.668" x="859.53" y="247.1457">+issueTraductionAuto : Boolean</text><text fill="#000000" font-family="Arial" font-size="14" lengthAdjust="spacing" textLength="185.1035" x="859.53" y="263.4426">+texteOriginal       : String</text><line style="stroke:#555555;stroke-width:0.5;" x1="854.53" x2="1090.198" y1="270.7444" y2="270.7444"/></g><!--class Panier--><g class="entity" data-qualified-name="P6 . Matching . Transactions.Panier" data-source-line="101" id="ent0013"><rect fill="#FFFFFF" height="96.8906" rx="2.5" ry="2.5" style="stroke:#555555;stroke-width:0.5;" width="227.8926" x="32.16" y="49.56"/><rect fill="#F2F2F2" height="32" rx="2.5" ry="2.5" style="stroke:#F2F2F2;stroke-width:0.5;" width="227.8926" x="32.16" y="49.56"/><rect fill="#F2F2F2" height="2.5" style="stroke:#F2F2F2;stroke-width:0.5;" width="227.8926" x="32.16" y="79.06"/><rect fill="none" height="96.8906" rx="2.5" ry="2.5" style="stroke:#555555;stroke-width:0.5;" width="227.8926" x="32.16" y="49.56"/><ellipse cx="126.0872" cy="65.56" fill="#ADD1B2" rx="11" ry="11" style="stroke:#181818;stroke-width:1;"/><path d="M129.056,71.2006 Q128.4779,71.4975 127.8372,71.6381 Q127.1966,71.7944 126.4935,71.7944 Q123.9935,71.7944 122.6654,70.1538 Q121.3529,68.4975 121.3529,65.3725 Q121.3529,62.2475 122.6654,60.5913 Q123.9935,58.935 126.4935,58.935 Q127.1966,58.935 127.8372,59.0913 Q128.4935,59.2475 129.056,59.5444 L129.056,62.2631 Q128.431,61.685 127.8372,61.4194 Q127.2435,61.1381 126.6185,61.1381 Q125.2747,61.1381 124.5872,62.2163 Q123.8997,63.2788 123.8997,65.3725 Q123.8997,67.4663 124.5872,68.5444 Q125.2747,69.6069 126.6185,69.6069 Q127.2435,69.6069 127.8372,69.3413 Q128.431,69.06 129.056,68.4819 L129.056,71.2006 Z " fill="#000000"/><text fill="#111111" font-family="Arial" font-size="10" lengthAdjust="spacing" textLength="31.5381" x="146.5872" y="69.0219">Panier</text><line style="stroke:#555555;stroke-width:0.5;" x1="33.16" x2="259.0526" y1="81.56" y2="81.56"/><text fill="#000000" font-family="Arial" font-size="14" lengthAdjust="spacing" textLength="202.4121" x="38.16" y="98.5551">+dateCreation     : DateTime</text><text fill="#000000" font-family="Arial" font-size="14" lengthAdjust="spacing" textLength="215.8926" x="38.16" y="114.852">+dateConfirmation : DateTime</text><text fill="#000000" font-family="Arial" font-size="14" lengthAdjust="spacing" textLength="198.0234" x="38.16" y="131.1489">+statut           : StatutPanier</text><line style="stroke:#555555;stroke-width:0.5;" x1="33.16" x2="259.0526" y1="138.4506" y2="138.4506"/></g><!--class StatutPanier--><g class="entity" data-qualified-name="P6 . Matching . Transactions.StatutPanier" data-source-line="111" id="ent0014"><rect fill="#FFFFFF" height="96.8906" rx="2.5" ry="2.5" style="stroke:#555555;stroke-width:0.5;" width="94.1143" x="539.17" y="49.56"/><rect fill="#F2F2F2" height="32" rx="2.5" ry="2.5" style="stroke:#F2F2F2;stroke-width:0.5;" width="94.1143" x="539.17" y="49.56"/><rect fill="#F2F2F2" height="2.5" style="stroke:#F2F2F2;stroke-width:0.5;" width="94.1143" x="539.17" y="79.06"/><rect fill="none" height="96.8906" rx="2.5" ry="2.5" style="stroke:#555555;stroke-width:0.5;" width="94.1143" x="539.17" y="49.56"/><ellipse cx="554.17" cy="65.56" fill="#EB937F" rx="11" ry="11" style="stroke:#181818;stroke-width:1;"/><path d="M558.2794,71.56 L550.5606,71.56 L550.5606,59.1694 L558.2794,59.1694 L558.2794,61.3256 L553.0138,61.3256 L553.0138,63.9975 L557.7794,63.9975 L557.7794,66.1538 L553.0138,66.1538 L553.0138,69.4038 L558.2794,69.4038 L558.2794,71.56 Z " fill="#000000"/><text fill="#111111" font-family="Arial" font-size="10" lengthAdjust="spacing" textLength="62.1143" x="568.17" y="69.0219">StatutPanier</text><line style="stroke:#555555;stroke-width:0.5;" x1="540.17" x2="632.2843" y1="81.56" y2="81.56"/><text fill="#000000" font-family="Arial" font-size="14" lengthAdjust="spacing" textLength="57.9688" x="545.17" y="98.5551">OUVERT</text><text fill="#000000" font-family="Arial" font-size="14" lengthAdjust="spacing" textLength="74.1016" x="545.17" y="114.852">CONFIRME</text><text fill="#000000" font-family="Arial" font-size="14" lengthAdjust="spacing" textLength="57.415" x="545.17" y="131.1489">ANNULE</text><line style="stroke:#555555;stroke-width:0.5;" x1="540.17" x2="632.2843" y1="138.4506" y2="138.4506"/></g><!--class SuggestionAppariement--><g class="entity" data-qualified-name="P6 . Matching . Transactions.SuggestionAppariement" data-source-line="119" id="ent0015"><rect fill="#FFFFFF" height="113.1875" rx="2.5" ry="2.5" style="stroke:#555555;stroke-width:0.5;" width="239.6162" x="26.3" y="313.41"/><rect fill="#F2F2F2" height="32" rx="2.5" ry="2.5" style="stroke:#F2F2F2;stroke-width:0.5;" width="239.6162" x="26.3" y="313.41"/><rect fill="#F2F2F2" height="2.5" style="stroke:#F2F2F2;stroke-width:0.5;" width="239.6162" x="26.3" y="342.91"/><rect fill="none" height="113.1875" rx="2.5" ry="2.5" style="stroke:#555555;stroke-width:0.5;" width="239.6162" x="26.3" y="313.41"/><ellipse cx="81.4797" cy="329.41" fill="#ADD1B2" rx="11" ry="11" style="stroke:#181818;stroke-width:1;"/><path d="M84.4484,335.0506 Q83.8703,335.3475 83.2297,335.4881 Q82.5891,335.6444 81.8859,335.6444 Q79.3859,335.6444 78.0578,334.0038 Q76.7453,332.3475 76.7453,329.2225 Q76.7453,326.0975 78.0578,324.4413 Q79.3859,322.785 81.8859,322.785 Q82.5891,322.785 83.2297,322.9413 Q83.8859,323.0975 84.4484,323.3944 L84.4484,326.1131 Q83.8234,325.535 83.2297,325.2694 Q82.6359,324.9881 82.0109,324.9881 Q80.6672,324.9881 79.9797,326.0663 Q79.2922,327.1288 79.2922,329.2225 Q79.2922,331.3163 79.9797,332.3944 Q80.6672,333.4569 82.0109,333.4569 Q82.6359,333.4569 83.2297,333.1913 Q83.8234,332.91 84.4484,332.3319 L84.4484,335.0506 Z " fill="#000000"/><text fill="#111111" font-family="Arial" font-size="10" lengthAdjust="spacing" textLength="120.7568" x="101.9797" y="332.8719">SuggestionAppariement</text><line style="stroke:#555555;stroke-width:0.5;" x1="27.3" x2="264.9162" y1="345.41" y2="345.41"/><text fill="#000000" font-family="Arial" font-size="14" lengthAdjust="spacing" textLength="225.4219" x="32.3" y="362.4051">+dateGeneration      : DateTime</text><text fill="#000000" font-family="Arial" font-size="14" lengthAdjust="spacing" textLength="227.6162" x="32.3" y="378.702">+scoreCorrespondance : Double</text><text fill="#000000" font-family="Arial" font-size="14" lengthAdjust="spacing" textLength="195.3369" x="32.3" y="394.9989">+raisonnement        : String</text><text fill="#000000" font-family="Arial" font-size="14" lengthAdjust="spacing" textLength="223.2822" x="32.3" y="411.2957">+estAcknowledged     : Boolean</text><line style="stroke:#555555;stroke-width:0.5;" x1="27.3" x2="264.9162" y1="418.5975" y2="418.5975"/></g><!--class Acteur--><g class="entity" data-qualified-name="Acteur" data-source-line="41" id="ent0002"><rect fill="#F0F0F0" height="35.6094" rx="2.5" ry="2.5" style="stroke:#AAAAAA;stroke-width:0.5;" width="64.8613" x="1287.09" y="348.2"/><ellipse cx="1302.09" cy="366.0047" fill="#ADD1B2" rx="11" ry="11" style="stroke:#181818;stroke-width:1;"/><path d="M1305.0588,371.6453 Q1304.4806,371.9422 1303.84,372.0828 Q1303.1994,372.2391 1302.4963,372.2391 Q1299.9963,372.2391 1298.6681,370.5984 Q1297.3556,368.9422 1297.3556,365.8172 Q1297.3556,362.6922 1298.6681,361.0359 Q1299.9963,359.3797 1302.4963,359.3797 Q1303.1994,359.3797 1303.84,359.5359 Q1304.4963,359.6922 1305.0588,359.9891 L1305.0588,362.7078 Q1304.4338,362.1297 1303.84,361.8641 Q1303.2463,361.5828 1302.6213,361.5828 Q1301.2775,361.5828 1300.59,362.6609 Q1299.9025,363.7234 1299.9025,365.8172 Q1299.9025,367.9109 1300.59,368.9891 Q1301.2775,370.0516 1302.6213,370.0516 Q1303.2463,370.0516 1303.84,369.7859 Q1304.4338,369.5047 1305.0588,368.9266 L1305.0588,371.6453 Z " fill="#000000"/><text fill="#000000" font-family="Arial" font-size="12" font-style="italic" lengthAdjust="spacing" textLength="33.873" x="1315.5841" y="364.3387">&#171;ext&#187;</text><text fill="#777777" font-family="Arial" font-size="10" lengthAdjust="spacing" textLength="32.8613" x="1316.09" y="376.451">Acteur</text></g><!--class Proposition--><g class="entity" data-qualified-name="Proposition" data-source-line="42" id="ent0003"><rect fill="#F0F0F0" height="35.6094" rx="2.5" ry="2.5" style="stroke:#AAAAAA;stroke-width:0.5;" width="87.8691" x="542.29" y="571.2"/><ellipse cx="557.29" cy="589.0047" fill="#ADD1B2" rx="11" ry="11" style="stroke:#181818;stroke-width:1;"/><path d="M560.2588,594.6453 Q559.6806,594.9422 559.04,595.0828 Q558.3994,595.2391 557.6963,595.2391 Q555.1963,595.2391 553.8681,593.5984 Q552.5556,591.9422 552.5556,588.8172 Q552.5556,585.6922 553.8681,584.0359 Q555.1963,582.3797 557.6963,582.3797 Q558.3994,582.3797 559.04,582.5359 Q559.6963,582.6922 560.2588,582.9891 L560.2588,585.7078 Q559.6338,585.1297 559.04,584.8641 Q558.4463,584.5828 557.8213,584.5828 Q556.4775,584.5828 555.79,585.6609 Q555.1025,586.7234 555.1025,588.8172 Q555.1025,590.9109 555.79,591.9891 Q556.4775,593.0516 557.8213,593.0516 Q558.4463,593.0516 559.04,592.7859 Q559.6338,592.5047 560.2588,591.9266 L560.2588,594.6453 Z " fill="#000000"/><text fill="#000000" font-family="Arial" font-size="12" font-style="italic" lengthAdjust="spacing" textLength="33.873" x="582.288" y="587.3387">&#171;ext&#187;</text><text fill="#777777" font-family="Arial" font-size="10" lengthAdjust="spacing" textLength="55.8691" x="571.29" y="599.451">Proposition</text></g><!--class Offre--><g class="entity" data-qualified-name="Offre" data-source-line="43" id="ent0004"><rect fill="#F0F0F0" height="35.6094" rx="2.5" ry="2.5" style="stroke:#AAAAAA;stroke-width:0.5;" width="61.873" x="555.29" y="500.2"/><ellipse cx="570.29" cy="518.0047" fill="#ADD1B2" rx="11" ry="11" style="stroke:#181818;stroke-width:1;"/><path d="M573.2588,523.6453 Q572.6806,523.9422 572.04,524.0828 Q571.3994,524.2391 570.6963,524.2391 Q568.1963,524.2391 566.8681,522.5984 Q565.5556,520.9422 565.5556,517.8172 Q565.5556,514.6922 566.8681,513.0359 Q568.1963,511.3797 570.6963,511.3797 Q571.3994,511.3797 572.04,511.5359 Q572.6963,511.6922 573.2588,511.9891 L573.2588,514.7078 Q572.6338,514.1297 572.04,513.8641 Q571.4463,513.5828 570.8213,513.5828 Q569.4775,513.5828 568.79,514.6609 Q568.1025,515.7234 568.1025,517.8172 Q568.1025,519.9109 568.79,520.9891 Q569.4775,522.0516 570.8213,522.0516 Q571.4463,522.0516 572.04,521.7859 Q572.6338,521.5047 573.2588,520.9266 L573.2588,523.6453 Z " fill="#000000"/><text fill="#000000" font-family="Arial" font-size="12" font-style="italic" lengthAdjust="spacing" textLength="33.873" x="582.29" y="516.3387">&#171;ext&#187;</text><text fill="#777777" font-family="Arial" font-size="10" lengthAdjust="spacing" textLength="25.1758" x="586.6386" y="528.451">Offre</text></g><!--class Demande--><g class="entity" data-qualified-name="Demande" data-source-line="44" id="ent0005"><rect fill="#F0F0F0" height="35.6094" rx="2.5" ry="2.5" style="stroke:#AAAAAA;stroke-width:0.5;" width="80.5596" x="545.94" y="729.2"/><ellipse cx="560.94" cy="747.0047" fill="#ADD1B2" rx="11" ry="11" style="stroke:#181818;stroke-width:1;"/><path d="M563.9088,752.6453 Q563.3306,752.9422 562.69,753.0828 Q562.0494,753.2391 561.3463,753.2391 Q558.8463,753.2391 557.5181,751.5984 Q556.2056,749.9422 556.2056,746.8172 Q556.2056,743.6922 557.5181,742.0359 Q558.8463,740.3797 561.3463,740.3797 Q562.0494,740.3797 562.69,740.5359 Q563.3463,740.6922 563.9088,740.9891 L563.9088,743.7078 Q563.2838,743.1297 562.69,742.8641 Q562.0963,742.5828 561.4713,742.5828 Q560.1275,742.5828 559.44,743.6609 Q558.7525,744.7234 558.7525,746.8172 Q558.7525,748.9109 559.44,749.9891 Q560.1275,751.0516 561.4713,751.0516 Q562.0963,751.0516 562.69,750.7859 Q563.2838,750.5047 563.9088,749.9266 L563.9088,752.6453 Z " fill="#000000"/><text fill="#000000" font-family="Arial" font-size="12" font-style="italic" lengthAdjust="spacing" textLength="33.873" x="582.2833" y="745.3387">&#171;ext&#187;</text><text fill="#777777" font-family="Arial" font-size="10" lengthAdjust="spacing" textLength="48.5596" x="574.94" y="757.451">Demande</text></g><!--class ServiceTraduction--><g class="entity" data-qualified-name="ServiceTraduction" data-source-line="45" id="ent0006"><rect fill="#F0F0F0" height="35.6094" rx="2.5" ry="2.5" style="stroke:#AAAAAA;stroke-width:0.5;" width="122.6445" x="1258.2" y="196.2"/><ellipse cx="1273.2" cy="214.0047" fill="#ADD1B2" rx="11" ry="11" style="stroke:#181818;stroke-width:1;"/><path d="M1276.1688,219.6453 Q1275.5906,219.9422 1274.95,220.0828 Q1274.3094,220.2391 1273.6063,220.2391 Q1271.1063,220.2391 1269.7781,218.5984 Q1268.4656,216.9422 1268.4656,213.8172 Q1268.4656,210.6922 1269.7781,209.0359 Q1271.1063,207.3797 1273.6063,207.3797 Q1274.3094,207.3797 1274.95,207.5359 Q1275.6063,207.6922 1276.1688,207.9891 L1276.1688,210.7078 Q1275.5438,210.1297 1274.95,209.8641 Q1274.3563,209.5828 1273.7313,209.5828 Q1272.3875,209.5828 1271.7,210.6609 Q1271.0125,211.7234 1271.0125,213.8172 Q1271.0125,215.9109 1271.7,216.9891 Q1272.3875,218.0516 1273.7313,218.0516 Q1274.3563,218.0516 1274.95,217.7859 Q1275.5438,217.5047 1276.1688,216.9266 L1276.1688,219.6453 Z " fill="#000000"/><text fill="#000000" font-family="Arial" font-size="12" font-style="italic" lengthAdjust="spacing" textLength="33.873" x="1315.5857" y="212.3387">&#171;ext&#187;</text><text fill="#777777" font-family="Arial" font-size="10" lengthAdjust="spacing" textLength="90.6445" x="1287.2" y="224.451">ServiceTraduction</text></g><g class="entity" data-qualified-name="GMN28" data-source-line="148" id="ent0029"><path d="M510.81,644.55 L510.81,691.4563 A2.5,2.5 0 0 0 513.31,693.9563 L659.1245,693.9563 A2.5,2.5 0 0 0 661.6245,691.4563 L661.6245,652.05 L651.6245,642.05 L513.31,642.05 A2.5,2.5 0 0 0 510.81,644.55" fill="#FFFDE7" style="stroke:#F9A825;stroke-width:0.5;"/><path d="M651.6245,642.05 L651.6245,650.8 A1.25,1.25 0 0 0 652.8745,652.05 L661.6245,652.05 L651.6245,642.05" fill="#FFFDE7" style="stroke:#F9A825;stroke-width:1;"/><text fill="#000000" font-family="Arial" font-size="9" lengthAdjust="spacing" textLength="87.1436" x="516.81" y="655.404">&#167;5.2 ex.4 : g&#233;n&#233;r&#233;e</text><text fill="#000000" font-family="Arial" font-size="9" lengthAdjust="spacing" textLength="121.5879" x="516.81" y="665.8806">"lorsque les connaissances</text><text fill="#000000" font-family="Arial" font-size="9" lengthAdjust="spacing" textLength="129.8145" x="516.81" y="676.3571">le permettent" &#8212; algorithme</text><text fill="#000000" font-family="Arial" font-size="9" lengthAdjust="spacing" textLength="119.7466" x="516.81" y="686.8337">&#224; d&#233;finir (g&#233;oloc + nature)</text></g><!--link Transaction to StatutTransaction--><g class="link" data-entity-1="ent0008" data-entity-2="ent0009" data-link-type="dependency" data-source-line="131" id="lnk16"><path codeLine="131" d="M261.65,230 C346.07,230 451.55,230 519.18,230" fill="none" id="Transaction-to-StatutTransaction" style="stroke:#444444;stroke-width:1;"/><polygon fill="#444444" points="525.18,230,516.18,226,520.18,230,516.18,234,525.18,230" style="stroke:#444444;stroke-width:1;"/><text fill="#000000" font-family="Arial" font-size="13" lengthAdjust="spacing" textLength="38.27" x="357.92" y="226.0669">statut</text></g><!--reverse link Transaction to Discussion--><g class="link" data-entity-1="ent0008" data-entity-2="ent0010" data-link-type="composition" data-source-line="132" id="lnk17"><path codeLine="132" d="M273.1962,265.6888 C343.4162,285.5688 420.82,307.47 487.68,326.4" fill="none" id="Transaction-backto-Discussion" style="stroke:#444444;stroke-width:1;"/><polygon fill="#444444" points="261.65,262.42,266.3335,267.9032,273.1962,265.6888,268.5127,260.2057,261.65,262.42" style="stroke:#444444;stroke-width:1;"/><text fill="#000000" font-family="Arial" font-size="13" lengthAdjust="spacing" textLength="67.374" x="343.42" y="270.0669">discussion</text><text fill="#000000" font-family="Arial" font-size="13" lengthAdjust="spacing" textLength="8.271" x="269.3168" y="261.0872">1</text><text fill="#000000" font-family="Arial" font-size="13" lengthAdjust="spacing" textLength="8.271" x="471.5192" y="336.8699">1</text></g><!--link Discussion to Visibilite--><g class="link" data-entity-1="ent0010" data-entity-2="ent0011" data-link-type="dependency" data-source-line="133" id="lnk18"><path codeLine="133" d="M684.85,359.92 C694.87,360.36 704.9,360.74 714.53,361 C762.95,362.33 775.1,362.15 823.53,361 C859.88,360.14 895.2193,358.4348 924.9193,356.7748" fill="none" id="Discussion-to-Visibilite" style="stroke:#444444;stroke-width:1;"/><polygon fill="#444444" points="930.91,356.44,921.7008,352.9485,925.9178,356.719,922.1472,360.936,930.91,356.44" style="stroke:#444444;stroke-width:1;"/><text fill="#000000" font-family="Arial" font-size="13" lengthAdjust="spacing" textLength="53.8726" x="742.53" y="357.0669">visibilit&#233;</text></g><!--reverse link Discussion to Message--><g class="link" data-entity-1="ent0010" data-entity-2="ent0012" data-link-type="composition" data-source-line="134" id="lnk19"><path codeLine="134" d="M695.9242,314.3899 C747.1642,295.7099 799.1,276.78 853.12,257.1" fill="none" id="Discussion-backto-Message" style="stroke:#444444;stroke-width:1;"/><polygon fill="#444444" points="684.65,318.5,691.6571,320.203,695.9242,314.3899,688.9171,312.6869,684.65,318.5" style="stroke:#444444;stroke-width:1;"/><text fill="#000000" font-family="Arial" font-size="13" lengthAdjust="spacing" textLength="65.1968" x="736.53" y="268.0669">messages</text><text fill="#000000" font-family="Arial" font-size="13" lengthAdjust="spacing" textLength="8.271" x="692.5022" y="328.4277">1</text><text fill="#000000" font-family="Arial" font-size="13" lengthAdjust="spacing" textLength="6.5" x="838.9235" y="272.5709">*</text></g><!--link Panier to StatutPanier--><g class="link" data-entity-1="ent0013" data-entity-2="ent0014" data-link-type="dependency" data-source-line="135" id="lnk20"><path codeLine="135" d="M260.5,98 C351.02,98 467.18,98 532.85,98" fill="none" id="Panier-to-StatutPanier" style="stroke:#444444;stroke-width:1;"/><polygon fill="#444444" points="538.85,98,529.85,94,533.85,98,529.85,102,538.85,98" style="stroke:#444444;stroke-width:1;"/><text fill="#000000" font-family="Arial" font-size="13" lengthAdjust="spacing" textLength="38.27" x="357.92" y="94.0669">statut</text></g><!--link Transaction to Proposition--><g class="link" data-entity-1="ent0008" data-entity-2="ent0003" data-link-type="dependency" data-source-line="139" id="lnk21"><path codeLine="139" d="M261.68,276.75 C263.17,278.44 264.58,280.19 265.92,282 C336.27,377.4 213.43,461.88 295.92,547 C312.78,564.41 459.5409,578.7197 536.0209,585.1197" fill="none" id="Transaction-to-Proposition" style="stroke:#444444;stroke-width:1;"/><polygon fill="#444444" points="542,585.62,533.3649,580.8834,537.0174,585.203,532.6978,588.8556,542,585.62" style="stroke:#444444;stroke-width:1;"/><text fill="#000000" font-family="Arial" font-size="13" lengthAdjust="spacing" textLength="89.521" x="332.42" y="543.0669">porte sur (P4)</text><ellipse cx="274.5883" cy="282.2508" fill="#000000" rx="2.5" ry="2.5"/><text fill="#000000" font-family="Arial" font-size="13" lengthAdjust="spacing" textLength="8.271" x="526.0352" y="598.3795">1</text></g><!--link Message to Acteur--><g class="link" data-entity-1="ent0012" data-entity-2="ent0002" data-link-type="dependency" data-source-line="140" id="lnk22"><path codeLine="140" d="M1091.66,266.1 C1160.74,296.52 1237.2589,330.2218 1281.2889,349.6118" fill="none" id="Message-to-Acteur" style="stroke:#444444;stroke-width:1;"/><polygon fill="#444444" points="1286.78,352.03,1280.1554,344.742,1282.2041,350.0148,1276.9312,352.0635,1286.78,352.03" style="stroke:#444444;stroke-width:1;"/><text fill="#000000" font-family="Arial" font-size="13" lengthAdjust="spacing" textLength="103.6572" x="1124.2" y="277.0669">envoy&#233; par (P1)</text><text fill="#000000" font-family="Arial" font-size="13" lengthAdjust="spacing" textLength="6.5" x="1099.1276" y="281.8027">*</text><text fill="#000000" font-family="Arial" font-size="13" lengthAdjust="spacing" textLength="8.271" x="1270.7726" y="362.6951">1</text></g><!--link Panier to Acteur--><g class="link" data-entity-1="ent0013" data-entity-2="ent0002" data-link-type="dependency" data-source-line="141" id="lnk23"><path codeLine="141" d="M247.93,146.91 C254.61,152.7 260.73,159.05 265.92,166 C300.84,212.85 262,246.42 295.92,294 C352.03,372.73 388.07,379.83 479.92,410 C780.13,508.63 1167.3782,410.3838 1280.8382,377.4238" fill="none" id="Panier-to-Acteur" style="stroke:#444444;stroke-width:1;"/><polygon fill="#444444" points="1286.6,375.75,1276.8414,374.4195,1281.7985,377.1448,1279.0732,382.1019,1286.6,375.75" style="stroke:#444444;stroke-width:1;"/><text fill="#000000" font-family="Arial" font-size="13" lengthAdjust="spacing" textLength="107.1611" x="715.53" y="448.0669">propri&#233;taire (P1)</text><text fill="#000000" font-family="Arial" font-size="13" lengthAdjust="spacing" textLength="6.5" x="255.243" y="166.5652">*</text><text fill="#000000" font-family="Arial" font-size="13" lengthAdjust="spacing" textLength="8.271" x="1271.0131" y="391.3874">1</text></g><!--link Panier to Offre--><g class="link" data-entity-1="ent0013" data-entity-2="ent0004" data-link-type="dependency" data-source-line="142" id="lnk24"><path codeLine="142" d="M249.8,146.9 C255.93,152.65 261.42,159.01 265.92,166 C305.04,226.82 244.89,438.77 295.92,490 C331.52,525.76 482.0762,523.0128 548.8662,519.9728" fill="none" id="Panier-to-Offre" style="stroke:#444444;stroke-width:1;"/><polygon fill="#444444" points="554.86,519.7,545.6874,516.1134,549.8652,519.9273,546.0512,524.1051,554.86,519.7" style="stroke:#444444;stroke-width:1;"/><text fill="#000000" font-family="Arial" font-size="13" lengthAdjust="spacing" textLength="83.77" x="335.42" y="486.0669">contient (P4)</text><text fill="#000000" font-family="Arial" font-size="13" lengthAdjust="spacing" textLength="8.271" x="264.2895" y="166.5539">1</text><text fill="#000000" font-family="Arial" font-size="13" lengthAdjust="spacing" textLength="6.5" x="540.9706" y="515.4399">*</text></g><!--link SuggestionAppariement to Offre--><g class="link" data-entity-1="ent0015" data-entity-2="ent0004" data-link-type="dependency" data-source-line="143" id="lnk25"><path codeLine="143" d="M165.21,427.08 C186.51,483.5 227.87,566.64 295.92,604 C359.03,638.66 397.62,643.35 457.92,604 C478.25,590.74 462.03,570.43 479.92,554 C500.69,534.92 526.1187,526.9837 549.2087,522.7437" fill="none" id="SuggestionAppariement-to-Offre" style="stroke:#444444;stroke-width:1;"/><polygon fill="#444444" points="555.11,521.66,545.5356,519.3513,550.1922,522.563,546.9804,527.2197,555.11,521.66" style="stroke:#444444;stroke-width:1;"/><text fill="#000000" font-family="Arial" font-size="13" lengthAdjust="spacing" textLength="129.4985" x="312.42" y="600.0669">offre candidate (P4)</text><text fill="#000000" font-family="Arial" font-size="13" lengthAdjust="spacing" textLength="6.5" x="161.1007" y="446.6212">*</text><text fill="#000000" font-family="Arial" font-size="13" lengthAdjust="spacing" textLength="8.271" x="539.0206" y="536.3219">1</text></g><!--link SuggestionAppariement to Demande--><g class="link" data-entity-1="ent0015" data-entity-2="ent0005" data-link-type="dependency" data-source-line="144" id="lnk26"><path codeLine="144" d="M155.29,426.91 C169.47,503.25 206.27,637.07 295.92,705 C369.74,760.95 479.3698,759.0671 539.6598,753.0371" fill="none" id="SuggestionAppariement-to-Demande" style="stroke:#444444;stroke-width:1;"/><polygon fill="#444444" points="545.63,752.44,536.2766,749.3555,540.6548,752.9376,537.0728,757.3158,545.63,752.44" style="stroke:#444444;stroke-width:1;"/><text fill="#000000" font-family="Arial" font-size="13" lengthAdjust="spacing" textLength="160.418" x="296.92" y="701.0669">demande candidate (P4)</text><text fill="#000000" font-family="Arial" font-size="13" lengthAdjust="spacing" textLength="6.5" x="150.0739" y="446.8345">*</text><text fill="#000000" font-family="Arial" font-size="13" lengthAdjust="spacing" textLength="8.271" x="529.7116" y="766.8228">1</text></g><!--link Message to ServiceTraduction--><g class="link" data-entity-1="ent0012" data-entity-2="ent0006" data-link-type="dependency" data-source-line="145" id="lnk27"><path codeLine="145" d="M1091.66,214 C1147.67,214 1206.17,214 1252.04,214" fill="none" id="Message-to-ServiceTraduction" style="stroke:#444444;stroke-width:1;stroke-dasharray:7,7;"/><polygon fill="#444444" points="1258.04,214,1249.04,210,1253.04,214,1249.04,218,1258.04,214" style="stroke:#444444;stroke-width:1;"/><text fill="#000000" font-family="Arial" font-size="13" lengthAdjust="spacing" textLength="69.3291" x="1141.2" y="210.0669">utilise (P5)</text></g><!--link SuggestionAppariement to GMN28--><g class="link" data-entity-1="ent0015" data-entity-2="ent0029" data-link-type="association" data-source-line="148" id="lnk30"><path d="M161.49,426.87 C180.72,490.13 221.38,589.88 295.92,639 C359.24,680.74 447.89,683.47 510.33,678.61" fill="none" id="SuggestionAppariement-GMN28" style="stroke:#444444;stroke-width:1;stroke-dasharray:7,7;"/></g><?plantuml-src hLZTKXit5BxVfz0uCm52e43uIJmf7HTCoZJOhWsqTnrvLxQLh2L7qZf_avayH1wWToqtlUrz_2PvadxI_bXhhnCwT84ngwFpVywd8w-Hx-_m16kaSqY-VFn4BgW9HrmCoNrogQZGD3HS2atMezcDeJmceHnFOcOsmDAJYGgP9dNo-S-3xRs7xcENi3VR-w3UoPuWPWD3Z2IA3qU6H5mnPqWGw9TSJAYYOnB6LEk6COht4yFEGobw_1qZEujRpgGmZhBhaoOqV4c7h6VUnenOwLGCO-Pjq2CQoTSs50CQQv-YP2AYK2h153dmrYCse4bihBuM7JFIK9p6InQJzm4XFqBxqCavaR5KvDSHDyokInKnbQxTEt0FLXjAoTVPuhvxi6ZLP6kxxi7QJuo2VL7ulRCz-nDyy4mHqh1AI-wTdPsTDeyMRJbxqdYyTv2fTT5yKfANXJCLwJC-Ta_PtaVkoOMv3FHb744WwcPhQujqPpU3sOrYmfONUsCOOgqjvJR1VFeK7CV7i7d7_fGDAeWDz_Xs5QGZzy2Q4OyOoPV7RDndIWT1ghWH6fOeKZpPjepQKN8YDRSbMq5j3mQAaLMyfsnCHSHMK7jCJNd8q9nHubgYeD-rvu01ZPEV6y-Q5Wlggv3WhbhoGgb1oUT_LccfkJeyQEuWmSZH6ldowID-oSc8pluMZ4mK5o6VK5HEtMSaMyVabEimqJfxks1QMttWXY0ZXyoCqBUsRaXMGpv_kax89eceOIUAKRTS9wTulUHZLg9Vq1VfQmLT6seIGt9wpxrwghADQnvgOfjVE3KcXdGuks7G1GXEuBV7Noi4-0yypXGtMxzVTXkjNkFayhpTUaXcDr4gjX_BLmcahkBtmz5ejQwUDvjssRTCiOXDEHE6MEdNpP8lUzQNNVZ21NPRyrybA6ZOJnB3Owwfwnoc3NOOs-PQpswSY0-1-s0Y6Iy7hCWDF3jfNtLxsUj9ktLsthrevbPaDXSsvJxKl-t2Xo2peR9ElCAwVPbCkUPzU6sOAuFhulKRCKE5J-sdJCWawSVyLLATi1Z0UDgy-Wq8h0p7ouGbK-jMdyBQ62xC_e0xA8Yn76EzKWYKauxL4jfCrwwb0JuDSFPAGhVC5evz90-OnTv1tW-rrJ9WD2EP31vow1HaP__ewBl3myDj_DMMqZmFI17KJXVvoFFNkVhn-ValL_DqfdxHFbg_x9cD08dNR9kqh_0FJQmNQLZAsKtJcID3gdOJauqmCAdabErRGCqmc2UxAQQIbxQKShv9OamI2IDVayErJZm8RoIOTEeufcJCgCZs67lkjP43BcXS9SPLZgkR0n1i16m9jX6kPutBzdctIJGdPdvE81voZ3hDAwcKlh8sHFK5XZjjOw8nqjXevy4hiBX31KSvt2UzP3X4DriTwuCuUMDZJkDuzbVCDhBDj_zTrNoPjXMDjmA3tHuf1boDLpPe2QTzh4urBhVf7dOmeJ4Ee0H3ENA32cRKDMcFTPrEoBCRcn2AkLLNjoqbanYc3AJ2fDX2hfA9FTarmodSi-HSSbY158zW0XK2RP0VUfbknSOGeJDCwrMgthJ37n_ma2wM1Vv7yW2IYhjfFpT-6PONij6-kcvsBnVmk0J72sWC-wijNhHkVUxpHbKJpsklCK7PSUQGuBtNhyyOvlHvbIptgyOeZofHi6OY1OxQq0uLfp99YzvkKPHhAKGglBgbOKGZV2dawvX5GnPbM_oMzl9dJtezxne_1Iuiv2bI6gLpu7AlMWYqHuF6AOhn0BDhIDsnQcKXVaWGH622j4KsF_8g185ReCYii1ecO6qDY5q92m6NDNK3ECeSjJbc1l1eQXLYS3SCkJiN8ziHO9fatKRZeLJSZCOEhB5lW0DEBK59bwMLhEr4eEXMFYJ-L_2uFSRuSmKk5iU5ByjZHps3Y4MkscwDFC1bnNvweq5U7L6n1COItLTtxOy76MSnChYfgCHQw7nGAyul3xZ6wPBjsgn3iwbkoK6VN3ZexbzBAPdYraFSOQhpQvx-dpCJ-86jFI0rPx5rrX_PwcGYbKdhVhspln7u4R0HARZyova5wwbyExjnyy5wPtSZy9t_2by92IiuTtDEYF2lT7KtIhZPqfbPZL6MAzURSsUeI48qFhVWTLi1-PsndgF6eeWyLDlRnnLNo8LP9HtJBUV1HX2uhmhIxs7ae1fmKMybR9lZ2YYhaIKW2zZYleAQOmRe7cgGzGpi2epR21Zk5TQ-Vm40?></g></svg>