<?plantuml 1.2026.2beta3?><svg xmlns="http://www.w3.org/2000/svg" xmlns:xlink="http://www.w3.org/1999/xlink" contentStyleType="text/css" data-diagram-type="CLASS" height="990px" preserveAspectRatio="none" style="width:992px;height:990px;background:#FFFFFF;" version="1.1" viewBox="0 0 992 990" width="992px" zoomAndPan="magnify"><defs/><g><!--cluster P1 ? Acteurs & R?les--><g class="cluster" data-qualified-name="P1 . Acteurs . R.les" data-source-line="49" id="ent0004"><rect fill="#FEFFF0" height="863.83" rx="2.5" ry="2.5" style="stroke:#888888;stroke-width:1.5;" width="837" x="7" y="7"/><text fill="#333333" font-family="Arial" font-size="14" font-weight="bold" lengthAdjust="spacing" textLength="160.5762" x="345.2119" y="21.9951">P1 &#183; Acteurs &amp; R&#244;les</text></g><!--class Acteur--><g class="entity" data-qualified-name="P1 . Acteurs . R.les.Acteur" data-source-line="51" id="ent0005"><rect fill="#FFFFFF" height="113.1875" rx="2.5" ry="2.5" style="stroke:#555555;stroke-width:0.5;" width="257.8271" x="318.09" y="42"/><rect fill="#F2F2F2" height="32" rx="2.5" ry="2.5" style="stroke:#F2F2F2;stroke-width:0.5;" width="257.8271" x="318.09" y="42"/><rect fill="#F2F2F2" height="2.5" style="stroke:#F2F2F2;stroke-width:0.5;" width="257.8271" x="318.09" y="71.5"/><rect fill="none" height="113.1875" rx="2.5" ry="2.5" style="stroke:#555555;stroke-width:0.5;" width="257.8271" x="318.09" y="42"/><ellipse cx="426.3229" cy="58" fill="#A9DCDF" rx="11" ry="11" style="stroke:#181818;stroke-width:1;"/><path d="M426.4323,53.3438 L425.276,58.4219 L427.6042,58.4219 L426.4323,53.3438 Z M424.9479,51.1094 L427.9323,51.1094 L431.2917,63.5 L428.8385,63.5 L428.0729,60.4375 L424.7917,60.4375 L424.0417,63.5 L421.6042,63.5 L424.9479,51.1094 Z " fill="#000000"/><text fill="#111111" font-family="Arial" font-size="10" font-style="italic" lengthAdjust="spacing" textLength="32.8613" x="446.8229" y="61.4619">Acteur</text><line style="stroke:#555555;stroke-width:0.5;" x1="319.09" x2="574.9171" y1="74" y2="74"/><text fill="#000000" font-family="Arial" font-size="14" lengthAdjust="spacing" textLength="118.0293" x="324.09" y="90.9951">+id           : UUID</text><text fill="#000000" font-family="Arial" font-size="14" lengthAdjust="spacing" textLength="149.9189" x="324.09" y="107.292">+dateCreation : Date</text><text fill="#000000" font-family="Arial" font-size="14" lengthAdjust="spacing" textLength="152.8174" x="324.09" y="123.5889">+estActif     : Boolean</text><line style="stroke:#555555;stroke-width:0.5;" x1="319.09" x2="574.9171" y1="130.8906" y2="130.8906"/><text fill="#000000" font-family="Arial" font-size="14" font-style="italic" lengthAdjust="spacing" textLength="245.8271" x="324.09" y="147.8857">+getNiveauBadge() : NiveauBadge</text></g><!--class Personne--><g class="entity" data-qualified-name="P1 . Acteurs . R.les.Personne" data-source-line="59" id="ent0006"><rect fill="#FFFFFF" height="145.7813" rx="2.5" ry="2.5" style="stroke:#555555;stroke-width:0.5;" width="193.3164" x="48.34" y="709.05"/><rect fill="#F2F2F2" height="32" rx="2.5" ry="2.5" style="stroke:#F2F2F2;stroke-width:0.5;" width="193.3164" x="48.34" y="709.05"/><rect fill="#F2F2F2" height="2.5" style="stroke:#F2F2F2;stroke-width:0.5;" width="193.3164" x="48.34" y="738.55"/><rect fill="none" height="145.7813" rx="2.5" ry="2.5" style="stroke:#555555;stroke-width:0.5;" width="193.3164" x="48.34" y="709.05"/><ellipse cx="117.5231" cy="725.05" fill="#ADD1B2" rx="11" ry="11" style="stroke:#181818;stroke-width:1;"/><path d="M120.4919,730.6906 Q119.9137,730.9875 119.2731,731.1281 Q118.6325,731.2844 117.9294,731.2844 Q115.4294,731.2844 114.1012,729.6438 Q112.7887,727.9875 112.7887,724.8625 Q112.7887,721.7375 114.1012,720.0813 Q115.4294,718.425 117.9294,718.425 Q118.6325,718.425 119.2731,718.5813 Q119.9294,718.7375 120.4919,719.0344 L120.4919,721.7531 Q119.8669,721.175 119.2731,720.9094 Q118.6794,720.6281 118.0544,720.6281 Q116.7106,720.6281 116.0231,721.7063 Q115.3356,722.7688 115.3356,724.8625 Q115.3356,726.9563 116.0231,728.0344 Q116.7106,729.0969 118.0544,729.0969 Q118.6794,729.0969 119.2731,728.8313 Q119.8669,728.55 120.4919,727.9719 L120.4919,730.6906 Z " fill="#000000"/><text fill="#111111" font-family="Arial" font-size="10" lengthAdjust="spacing" textLength="46.4502" x="138.0231" y="728.5119">Personne</text><line style="stroke:#555555;stroke-width:0.5;" x1="49.34" x2="240.6564" y1="741.05" y2="741.05"/><text fill="#000000" font-family="Arial" font-size="14" lengthAdjust="spacing" textLength="147.1572" x="54.34" y="758.0451">+nom            : String</text><text fill="#000000" font-family="Arial" font-size="14" lengthAdjust="spacing" textLength="157.0625" x="54.34" y="774.342">+prenom         : String</text><text fill="#000000" font-family="Arial" font-size="14" lengthAdjust="spacing" textLength="153.3164" x="54.34" y="790.6389">+adresse        : String</text><text fill="#000000" font-family="Arial" font-size="14" lengthAdjust="spacing" textLength="181.3164" x="54.34" y="806.9357">+moyensContact  : String</text><text fill="#000000" font-family="Arial" font-size="14" lengthAdjust="spacing" textLength="152.2842" x="54.34" y="823.2326">+urlPhoto       : String</text><text fill="#000000" font-family="Arial" font-size="14" lengthAdjust="spacing" textLength="174.1797" x="54.34" y="839.5295">+languePreferee : String</text><line style="stroke:#555555;stroke-width:0.5;" x1="49.34" x2="240.6564" y1="846.8313" y2="846.8313"/></g><!--class Entite--><g class="entity" data-qualified-name="P1 . Acteurs . R.les.Entite" data-source-line="69" id="ent0007"><rect fill="#FFFFFF" height="162.0781" rx="2.5" ry="2.5" style="stroke:#555555;stroke-width:0.5;" width="222.1025" x="59.95" y="469.97"/><rect fill="#F2F2F2" height="32" rx="2.5" ry="2.5" style="stroke:#F2F2F2;stroke-width:0.5;" width="222.1025" x="59.95" y="469.97"/><rect fill="#F2F2F2" height="2.5" style="stroke:#F2F2F2;stroke-width:0.5;" width="222.1025" x="59.95" y="499.47"/><rect fill="none" height="162.0781" rx="2.5" ry="2.5" style="stroke:#555555;stroke-width:0.5;" width="222.1025" x="59.95" y="469.97"/><ellipse cx="152.0369" cy="485.97" fill="#ADD1B2" rx="11" ry="11" style="stroke:#181818;stroke-width:1;"/><path d="M155.0057,491.6106 Q154.4275,491.9075 153.7869,492.0481 Q153.1463,492.2044 152.4432,492.2044 Q149.9432,492.2044 148.615,490.5638 Q147.3025,488.9075 147.3025,485.7825 Q147.3025,482.6575 148.615,481.0013 Q149.9432,479.345 152.4432,479.345 Q153.1463,479.345 153.7869,479.5013 Q154.4432,479.6575 155.0057,479.9544 L155.0057,482.6731 Q154.3807,482.095 153.7869,481.8294 Q153.1932,481.5481 152.5682,481.5481 Q151.2244,481.5481 150.5369,482.6263 Q149.8494,483.6888 149.8494,485.7825 Q149.8494,487.8763 150.5369,488.9544 Q151.2244,490.0169 152.5682,490.0169 Q153.1932,490.0169 153.7869,489.7513 Q154.3807,489.47 155.0057,488.8919 L155.0057,491.6106 Z " fill="#000000"/><text fill="#111111" font-family="Arial" font-size="10" lengthAdjust="spacing" textLength="29.4287" x="172.5369" y="489.4319">Entite</text><line style="stroke:#555555;stroke-width:0.5;" x1="60.95" x2="281.0525" y1="501.97" y2="501.97"/><text fill="#000000" font-family="Arial" font-size="14" lengthAdjust="spacing" textLength="164.958" x="65.95" y="518.9651">+nom                : String</text><text fill="#000000" font-family="Arial" font-size="14" lengthAdjust="spacing" textLength="176.1211" x="65.95" y="535.262">+description        : String</text><text fill="#000000" font-family="Arial" font-size="14" lengthAdjust="spacing" textLength="199.1172" x="65.95" y="551.5589">+moyensContact      : String</text><text fill="#000000" font-family="Arial" font-size="14" lengthAdjust="spacing" textLength="208.6465" x="65.95" y="567.8557">+urlPagePresentation : String</text><text fill="#000000" font-family="Arial" font-size="14" lengthAdjust="spacing" textLength="210.1025" x="65.95" y="584.1526">+commentFaireDon    : String</text><text fill="#000000" font-family="Arial" font-size="14" lengthAdjust="spacing" textLength="199.917" x="65.95" y="600.4495">+typesContributions : String</text><text fill="#000000" font-family="Arial" font-size="14" lengthAdjust="spacing" textLength="187.0381" x="65.95" y="616.7464">+estActive          : Boolean</text><line style="stroke:#555555;stroke-width:0.5;" x1="60.95" x2="281.0525" y1="624.0481" y2="624.0481"/></g><!--class AttributionRole--><g class="entity" data-qualified-name="P1 . Acteurs . R.les.AttributionRole" data-source-line="82" id="ent0008"><rect fill="#FFFFFF" height="145.7813" rx="2.5" ry="2.5" style="stroke:#555555;stroke-width:0.5;" width="194.5674" x="304.72" y="247.19"/><rect fill="#F2F2F2" height="32" rx="2.5" ry="2.5" style="stroke:#F2F2F2;stroke-width:0.5;" width="194.5674" x="304.72" y="247.19"/><rect fill="#F2F2F2" height="2.5" style="stroke:#F2F2F2;stroke-width:0.5;" width="194.5674" x="304.72" y="276.69"/><rect fill="none" height="145.7813" rx="2.5" ry="2.5" style="stroke:#555555;stroke-width:0.5;" width="194.5674" x="304.72" y="247.19"/><ellipse cx="360.0486" cy="263.19" fill="#ADD1B2" rx="11" ry="11" style="stroke:#181818;stroke-width:1;"/><path d="M363.0174,268.8306 Q362.4392,269.1275 361.7986,269.2681 Q361.158,269.4244 360.4549,269.4244 Q357.9549,269.4244 356.6267,267.7838 Q355.3142,266.1275 355.3142,263.0025 Q355.3142,259.8775 356.6267,258.2213 Q357.9549,256.565 360.4549,256.565 Q361.158,256.565 361.7986,256.7213 Q362.4549,256.8775 363.0174,257.1744 L363.0174,259.8931 Q362.3924,259.315 361.7986,259.0494 Q361.2049,258.7681 360.5799,258.7681 Q359.2361,258.7681 358.5486,259.8463 Q357.8611,260.9088 357.8611,263.0025 Q357.8611,265.0963 358.5486,266.1744 Q359.2361,267.2369 360.5799,267.2369 Q361.2049,267.2369 361.7986,266.9713 Q362.3924,266.69 363.0174,266.1119 L363.0174,268.8306 Z " fill="#000000"/><text fill="#111111" font-family="Arial" font-size="10" lengthAdjust="spacing" textLength="75.4102" x="380.5486" y="266.6519">AttributionRole</text><line style="stroke:#555555;stroke-width:0.5;" x1="305.72" x2="498.2874" y1="279.19" y2="279.19"/><text fill="#000000" font-family="Arial" font-size="14" lengthAdjust="spacing" textLength="150.8213" x="310.72" y="296.1851">+dateDebut     : Date</text><text fill="#000000" font-family="Arial" font-size="14" lengthAdjust="spacing" textLength="137.8945" x="310.72" y="312.482">+dateFin       : Date</text><text fill="#000000" font-family="Arial" font-size="14" lengthAdjust="spacing" textLength="177.7686" x="310.72" y="328.7789">+reconductible : Boolean</text><text fill="#000000" font-family="Arial" font-size="14" lengthAdjust="spacing" textLength="152.3115" x="310.72" y="345.0757">+dateRappel    : Date</text><text fill="#000000" font-family="Arial" font-size="14" lengthAdjust="spacing" textLength="182.5674" x="310.72" y="361.3726">+rappelEnvoye  : Boolean</text><text fill="#000000" font-family="Arial" font-size="14" lengthAdjust="spacing" textLength="171.3154" x="310.72" y="377.6695">+statut        : StatutRole</text><line style="stroke:#555555;stroke-width:0.5;" x1="305.72" x2="498.2874" y1="384.9713" y2="384.9713"/></g><!--class Mandat--><g class="entity" data-qualified-name="P1 . Acteurs . R.les.Mandat" data-source-line="93" id="ent0009"><rect fill="#FFFFFF" height="129.4844" rx="2.5" ry="2.5" style="stroke:#555555;stroke-width:0.5;" width="203.4883" x="534.26" y="255.34"/><rect fill="#F2F2F2" height="32" rx="2.5" ry="2.5" style="stroke:#F2F2F2;stroke-width:0.5;" width="203.4883" x="534.26" y="255.34"/><rect fill="#F2F2F2" height="2.5" style="stroke:#F2F2F2;stroke-width:0.5;" width="203.4883" x="534.26" y="284.84"/><rect fill="none" height="129.4844" rx="2.5" ry="2.5" style="stroke:#555555;stroke-width:0.5;" width="203.4883" x="534.26" y="255.34"/><ellipse cx="613.009" cy="271.34" fill="#ADD1B2" rx="11" ry="11" style="stroke:#181818;stroke-width:1;"/><path d="M615.9778,276.9806 Q615.3996,277.2775 614.759,277.4181 Q614.1184,277.5744 613.4153,277.5744 Q610.9153,277.5744 609.5871,275.9338 Q608.2746,274.2775 608.2746,271.1525 Q608.2746,268.0275 609.5871,266.3713 Q610.9153,264.715 613.4153,264.715 Q614.1184,264.715 614.759,264.8713 Q615.4153,265.0275 615.9778,265.3244 L615.9778,268.0431 Q615.3528,267.465 614.759,267.1994 Q614.1653,266.9181 613.5403,266.9181 Q612.1965,266.9181 611.509,267.9963 Q610.8215,269.0588 610.8215,271.1525 Q610.8215,273.2463 611.509,274.3244 Q612.1965,275.3869 613.5403,275.3869 Q614.1653,275.3869 614.759,275.1213 Q615.3528,274.84 615.9778,274.2619 L615.9778,276.9806 Z " fill="#000000"/><text fill="#111111" font-family="Arial" font-size="10" lengthAdjust="spacing" textLength="37.4902" x="633.509" y="274.8019">Mandat</text><line style="stroke:#555555;stroke-width:0.5;" x1="535.26" x2="736.7483" y1="287.34" y2="287.34"/><text fill="#000000" font-family="Arial" font-size="14" lengthAdjust="spacing" textLength="141.9209" x="540.26" y="304.3351">+dateDebut   : Date</text><text fill="#000000" font-family="Arial" font-size="14" lengthAdjust="spacing" textLength="128.9941" x="540.26" y="320.632">+dateFin     : Date</text><text fill="#000000" font-family="Arial" font-size="14" lengthAdjust="spacing" textLength="191.4883" x="540.26" y="336.9289">+portee      : PorteeMandat</text><text fill="#000000" font-family="Arial" font-size="14" lengthAdjust="spacing" textLength="144.9697" x="540.26" y="353.2257">+description : String</text><text fill="#000000" font-family="Arial" font-size="14" lengthAdjust="spacing" textLength="154.0137" x="540.26" y="369.5226">+estPublic   : Boolean</text><line style="stroke:#555555;stroke-width:0.5;" x1="535.26" x2="736.7483" y1="376.8244" y2="376.8244"/></g><!--class TypeRole--><g class="entity" data-qualified-name="P1 . Acteurs . R.les.TypeRole" data-source-line="104" id="ent0010"><rect fill="#FFFFFF" height="129.4844" rx="2.5" ry="2.5" style="stroke:#555555;stroke-width:0.5;" width="169.5205" x="317.24" y="486.27"/><rect fill="#F2F2F2" height="32" rx="2.5" ry="2.5" style="stroke:#F2F2F2;stroke-width:0.5;" width="169.5205" x="317.24" y="486.27"/><rect fill="#F2F2F2" height="2.5" style="stroke:#F2F2F2;stroke-width:0.5;" width="169.5205" x="317.24" y="515.77"/><rect fill="none" height="129.4844" rx="2.5" ry="2.5" style="stroke:#555555;stroke-width:0.5;" width="169.5205" x="317.24" y="486.27"/><ellipse cx="374.4885" cy="502.27" fill="#EB937F" rx="11" ry="11" style="stroke:#181818;stroke-width:1;"/><path d="M378.5979,508.27 L370.8792,508.27 L370.8792,495.8794 L378.5979,495.8794 L378.5979,498.0356 L373.3323,498.0356 L373.3323,500.7075 L378.0979,500.7075 L378.0979,502.8638 L373.3323,502.8638 L373.3323,506.1138 L378.5979,506.1138 L378.5979,508.27 Z " fill="#000000"/><text fill="#111111" font-family="Arial" font-size="10" lengthAdjust="spacing" textLength="46.5234" x="394.9885" y="505.7319">TypeRole</text><line style="stroke:#555555;stroke-width:0.5;" x1="318.24" x2="485.7605" y1="518.27" y2="518.27"/><text fill="#000000" font-family="Arial" font-size="14" lengthAdjust="spacing" textLength="110.8994" x="323.24" y="535.2651">CONTRIBUTEUR</text><text fill="#000000" font-family="Arial" font-size="14" lengthAdjust="spacing" textLength="90.6924" x="323.24" y="551.562">UTILISATEUR</text><text fill="#000000" font-family="Arial" font-size="14" lengthAdjust="spacing" textLength="140.0752" x="323.24" y="567.8589">ADMIN_INSTALLEUR</text><text fill="#000000" font-family="Arial" font-size="14" lengthAdjust="spacing" textLength="157.5205" x="323.24" y="584.1557">ADMIN_CATASTROPHE</text><text fill="#000000" font-family="Arial" font-size="14" lengthAdjust="spacing" textLength="118.6855" x="323.24" y="600.4526">ADMIN_SYSTEME</text><line style="stroke:#555555;stroke-width:0.5;" x1="318.24" x2="485.7605" y1="607.7544" y2="607.7544"/></g><!--class NiveauBadge--><g class="entity" data-qualified-name="P1 . Acteurs . R.les.NiveauBadge" data-source-line="113" id="ent0011"><rect fill="#FFFFFF" height="96.8906" rx="2.5" ry="2.5" style="stroke:#555555;stroke-width:0.5;" width="98.6309" x="692.68" y="50.15"/><rect fill="#F2F2F2" height="32" rx="2.5" ry="2.5" style="stroke:#F2F2F2;stroke-width:0.5;" width="98.6309" x="692.68" y="50.15"/><rect fill="#F2F2F2" height="2.5" style="stroke:#F2F2F2;stroke-width:0.5;" width="98.6309" x="692.68" y="79.65"/><rect fill="none" height="96.8906" rx="2.5" ry="2.5" style="stroke:#555555;stroke-width:0.5;" width="98.6309" x="692.68" y="50.15"/><ellipse cx="707.68" cy="66.15" fill="#EB937F" rx="11" ry="11" style="stroke:#181818;stroke-width:1;"/><path d="M711.7894,72.15 L704.0706,72.15 L704.0706,59.7594 L711.7894,59.7594 L711.7894,61.9156 L706.5238,61.9156 L706.5238,64.5875 L711.2894,64.5875 L711.2894,66.7438 L706.5238,66.7438 L706.5238,69.9938 L711.7894,69.9938 L711.7894,72.15 Z " fill="#000000"/><text fill="#111111" font-family="Arial" font-size="10" lengthAdjust="spacing" textLength="66.6309" x="721.68" y="69.6119">NiveauBadge</text><line style="stroke:#555555;stroke-width:0.5;" x1="693.68" x2="790.3109" y1="82.15" y2="82.15"/><text fill="#000000" font-family="Arial" font-size="14" lengthAdjust="spacing" textLength="36.7021" x="698.68" y="99.1451">VERT</text><text fill="#000000" font-family="Arial" font-size="14" lengthAdjust="spacing" textLength="60.4912" x="698.68" y="115.442">ORANGE</text><text fill="#000000" font-family="Arial" font-size="14" lengthAdjust="spacing" textLength="50.6885" x="698.68" y="131.7389">ROUGE</text><line style="stroke:#555555;stroke-width:0.5;" x1="693.68" x2="790.3109" y1="139.0406" y2="139.0406"/></g><!--class StatutRole--><g class="entity" data-qualified-name="P1 . Acteurs . R.les.StatutRole" data-source-line="123" id="ent0012"><rect fill="#FFFFFF" height="96.8906" rx="2.5" ry="2.5" style="stroke:#555555;stroke-width:0.5;" width="88.8086" x="521.6" y="502.56"/><rect fill="#F2F2F2" height="32" rx="2.5" ry="2.5" style="stroke:#F2F2F2;stroke-width:0.5;" width="88.8086" x="521.6" y="502.56"/><rect fill="#F2F2F2" height="2.5" style="stroke:#F2F2F2;stroke-width:0.5;" width="88.8086" x="521.6" y="532.06"/><rect fill="none" height="96.8906" rx="2.5" ry="2.5" style="stroke:#555555;stroke-width:0.5;" width="88.8086" x="521.6" y="502.56"/><ellipse cx="538.5059" cy="518.56" fill="#EB937F" rx="11" ry="11" style="stroke:#181818;stroke-width:1;"/><path d="M542.6153,524.56 L534.8965,524.56 L534.8965,512.1694 L542.6153,512.1694 L542.6153,514.3256 L537.3497,514.3256 L537.3497,516.9975 L542.1153,516.9975 L542.1153,519.1538 L537.3497,519.1538 L537.3497,522.4038 L542.6153,522.4038 L542.6153,524.56 Z " fill="#000000"/><text fill="#111111" font-family="Arial" font-size="10" lengthAdjust="spacing" textLength="52.5732" x="552.9294" y="522.0219">StatutRole</text><line style="stroke:#555555;stroke-width:0.5;" x1="522.6" x2="609.4086" y1="534.56" y2="534.56"/><text fill="#000000" font-family="Arial" font-size="14" lengthAdjust="spacing" textLength="40.0859" x="527.6" y="551.5551">ACTIF</text><text fill="#000000" font-family="Arial" font-size="14" lengthAdjust="spacing" textLength="49.5811" x="527.6" y="567.852">EXPIRE</text><text fill="#000000" font-family="Arial" font-size="14" lengthAdjust="spacing" textLength="76.8086" x="527.6" y="584.1489">SUSPENDU</text><line style="stroke:#555555;stroke-width:0.5;" x1="522.6" x2="609.4086" y1="591.4506" y2="591.4506"/></g><!--class PorteeMandat--><g class="entity" data-qualified-name="P1 . Acteurs . R.les.PorteeMandat" data-source-line="130" id="ent0013"><rect fill="#FFFFFF" height="96.8906" rx="2.5" ry="2.5" style="stroke:#555555;stroke-width:0.5;" width="182.6934" x="645.65" y="502.56"/><rect fill="#F2F2F2" height="32" rx="2.5" ry="2.5" style="stroke:#F2F2F2;stroke-width:0.5;" width="182.6934" x="645.65" y="502.56"/><rect fill="#F2F2F2" height="2.5" style="stroke:#F2F2F2;stroke-width:0.5;" width="182.6934" x="645.65" y="532.06"/><rect fill="none" height="96.8906" rx="2.5" ry="2.5" style="stroke:#555555;stroke-width:0.5;" width="182.6934" x="645.65" y="502.56"/><ellipse cx="697.7589" cy="518.56" fill="#EB937F" rx="11" ry="11" style="stroke:#181818;stroke-width:1;"/><path d="M701.8683,524.56 L694.1495,524.56 L694.1495,512.1694 L701.8683,512.1694 L701.8683,514.3256 L696.6026,514.3256 L696.6026,516.9975 L701.3683,516.9975 L701.3683,519.1538 L696.6026,519.1538 L696.6026,522.4038 L701.8683,522.4038 L701.8683,524.56 Z " fill="#000000"/><text fill="#111111" font-family="Arial" font-size="10" lengthAdjust="spacing" textLength="69.9756" x="718.2589" y="522.0219">PorteeMandat</text><line style="stroke:#555555;stroke-width:0.5;" x1="646.65" x2="827.3434" y1="534.56" y2="534.56"/><text fill="#000000" font-family="Arial" font-size="14" lengthAdjust="spacing" textLength="153.7744" x="651.65" y="551.5551">TOUTES_OPERATIONS</text><text fill="#000000" font-family="Arial" font-size="14" lengthAdjust="spacing" textLength="115.418" x="651.65" y="567.852">LECTURE_SEULE</text><text fill="#000000" font-family="Arial" font-size="14" lengthAdjust="spacing" textLength="170.6934" x="651.65" y="584.1489">CATEGORIE_SPECIFIQUE</text><line style="stroke:#555555;stroke-width:0.5;" x1="646.65" x2="827.3434" y1="591.4506" y2="591.4506"/></g><!--class MethodeIdentification--><g class="entity" data-qualified-name="MethodeIdentification" data-source-line="43" id="ent0002"><rect fill="#F0F0F0" height="35.6094" rx="2.5" ry="2.5" style="stroke:#AAAAAA;stroke-width:0.5;" width="141.2236" x="74.39" y="948.83"/><ellipse cx="89.39" cy="966.6347" fill="#ADD1B2" rx="11" ry="11" style="stroke:#181818;stroke-width:1;"/><path d="M92.3588,972.2753 Q91.7806,972.5722 91.14,972.7128 Q90.4994,972.8691 89.7963,972.8691 Q87.2963,972.8691 85.9681,971.2284 Q84.6556,969.5722 84.6556,966.4472 Q84.6556,963.3222 85.9681,961.6659 Q87.2963,960.0097 89.7963,960.0097 Q90.4994,960.0097 91.14,960.1659 Q91.7963,960.3222 92.3588,960.6191 L92.3588,963.3378 Q91.7338,962.7597 91.14,962.4941 Q90.5463,962.2128 89.9213,962.2128 Q88.5775,962.2128 87.89,963.2909 Q87.2025,964.3534 87.2025,966.4472 Q87.2025,968.5409 87.89,969.6191 Q88.5775,970.6816 89.9213,970.6816 Q90.5463,970.6816 91.14,970.4159 Q91.7338,970.1347 92.3588,969.5566 L92.3588,972.2753 Z " fill="#000000"/><text fill="#000000" font-family="Arial" font-size="12" font-style="italic" lengthAdjust="spacing" textLength="33.873" x="141.0653" y="964.9687">&#171;ext&#187;</text><text fill="#777777" font-family="Arial" font-size="10" lengthAdjust="spacing" textLength="109.2236" x="103.39" y="977.081">MethodeIdentification</text></g><!--class ConfigCatastrophe--><g class="entity" data-qualified-name="ConfigCatastrophe" data-source-line="44" id="ent0003"><rect fill="#F0F0F0" height="35.6094" rx="2.5" ry="2.5" style="stroke:#AAAAAA;stroke-width:0.5;" width="125.4424" x="860.28" y="302.28"/><ellipse cx="875.28" cy="320.0847" fill="#ADD1B2" rx="11" ry="11" style="stroke:#181818;stroke-width:1;"/><path d="M878.2488,325.7253 Q877.6706,326.0222 877.03,326.1628 Q876.3894,326.3191 875.6863,326.3191 Q873.1863,326.3191 871.8581,324.6784 Q870.5456,323.0222 870.5456,319.8972 Q870.5456,316.7722 871.8581,315.1159 Q873.1863,313.4597 875.6863,313.4597 Q876.3894,313.4597 877.03,313.6159 Q877.6863,313.7722 878.2488,314.0691 L878.2488,316.7878 Q877.6238,316.2097 877.03,315.9441 Q876.4363,315.6628 875.8113,315.6628 Q874.4675,315.6628 873.78,316.7409 Q873.0925,317.8034 873.0925,319.8972 Q873.0925,321.9909 873.78,323.0691 Q874.4675,324.1316 875.8113,324.1316 Q876.4363,324.1316 877.03,323.8659 Q877.6238,323.5847 878.2488,323.0066 L878.2488,325.7253 Z " fill="#000000"/><text fill="#000000" font-family="Arial" font-size="12" font-style="italic" lengthAdjust="spacing" textLength="33.873" x="919.0647" y="318.4187">&#171;ext&#187;</text><text fill="#777777" font-family="Arial" font-size="10" lengthAdjust="spacing" textLength="93.4424" x="889.28" y="330.531">ConfigCatastrophe</text></g><!--reverse link Acteur to Personne--><g class="link" data-entity-1="ent0005" data-entity-2="ent0006" data-link-type="extension" data-source-line="138" id="lnk14"><path codeLine="138" d="M337.0844,164.833 C320.8444,174.623 319.6,175.49 304,185.19 C157.96,276.02 96.13,306.73 42,469.97 C19.33,538.34 20.53,563.29 42,632.05 C50.48,659.2 65.83,685.76 82.14,708.76" fill="none" id="Acteur-backto-Personne" style="stroke:#444444;stroke-width:1;"/><polygon fill="none" points="352.5,155.54,333.9868,159.6945,340.1821,169.9715,352.5,155.54" style="stroke:#444444;stroke-width:1;"/></g><!--reverse link Acteur to Entite--><g class="link" data-entity-1="ent0005" data-entity-2="ent0007" data-link-type="extension" data-source-line="139" id="lnk15"><path codeLine="139" d="M358.8912,167.3066 C329.1512,192.6566 310.22,212.94 287,247.19 C240.48,315.81 209.1,405.68 190.83,469.65" fill="none" id="Acteur-backto-Entite" style="stroke:#444444;stroke-width:1;"/><polygon fill="none" points="372.59,155.63,354.999,162.7404,362.7835,171.8729,372.59,155.63" style="stroke:#444444;stroke-width:1;"/></g><!--link Acteur to AttributionRole--><g class="link" data-entity-1="ent0005" data-entity-2="ent0008" data-link-type="dependency" data-source-line="141" id="lnk16"><path codeLine="141" d="M417.02,155.53 C412.97,165.19 409.39,175.31 407,185.19 C402.24,204.86 400.3481,220.6236 399.6481,240.7936" fill="none" id="Acteur-to-AttributionRole" style="stroke:#444444;stroke-width:1;"/><polygon fill="#444444" points="399.44,246.79,403.7498,237.9342,399.6134,241.793,395.7546,237.6567,399.44,246.79" style="stroke:#444444;stroke-width:1;"/><polygon fill="#000000" points="411.0018,206.1558,415.6873,197.8795,409.9278,196.706,411.0018,206.1558" style="stroke:#000000;stroke-width:1;"/><text fill="#000000" font-family="Arial" font-size="13" lengthAdjust="spacing" textLength="53.9995" x="421" y="205.7569">poss&#232;de</text><text fill="#000000" font-family="Arial" font-size="13" lengthAdjust="spacing" textLength="8.271" x="405.1063" y="175.055">1</text><text fill="#000000" font-family="Arial" font-size="13" lengthAdjust="spacing" textLength="6.5" x="392.9335" y="236.1629">*</text></g><!--link AttributionRole to TypeRole--><g class="link" data-entity-1="ent0008" data-entity-2="ent0010" data-link-type="dependency" data-source-line="142" id="lnk17"><path codeLine="142" d="M402,393.2 C402,422.95 402,451.15 402,480" fill="none" id="AttributionRole-to-TypeRole" style="stroke:#444444;stroke-width:1;"/><polygon fill="#444444" points="402,486,406,477,402,481,398,477,402,486" style="stroke:#444444;stroke-width:1;"/><text fill="#000000" font-family="Arial" font-size="13" lengthAdjust="spacing" textLength="29.0405" x="403" y="436.0369">type</text></g><!--link AttributionRole to StatutRole--><g class="link" data-entity-1="ent0008" data-entity-2="ent0012" data-link-type="dependency" data-source-line="143" id="lnk18"><path codeLine="143" d="M453.67,393.2 C479.11,428.72 505.5956,465.6926 528.1856,497.2226" fill="none" id="AttributionRole-to-StatutRole" style="stroke:#444444;stroke-width:1;"/><polygon fill="#444444" points="531.68,502.1,529.6899,492.4543,528.768,498.0355,523.1867,497.1136,531.68,502.1" style="stroke:#444444;stroke-width:1;"/><text fill="#000000" font-family="Arial" font-size="13" lengthAdjust="spacing" textLength="38.27" x="485" y="436.0369">statut</text></g><!--link AttributionRole to Entite--><g class="link" data-entity-1="ent0008" data-entity-2="ent0007" data-link-type="dependency" data-source-line="144" id="lnk19"><path codeLine="144" d="M316.53,393.34 C305.73,403.1 294.98,413.14 285,422.97 C270.12,437.63 258.8318,449.4156 244.4218,465.2256" fill="none" id="AttributionRole-to-Entite" style="stroke:#444444;stroke-width:1;"/><polygon fill="#444444" points="240.38,469.66,249.3989,465.7029,243.7481,465.9646,243.4863,460.3138,240.38,469.66" style="stroke:#444444;stroke-width:1;"/><polygon fill="#000000" points="286.459,435.0665,294.9396,430.7619,290.7898,426.5992,286.459,435.0665" style="stroke:#000000;stroke-width:1;"/><text fill="#000000" font-family="Arial" font-size="13" lengthAdjust="spacing" textLength="94.2563" x="299" y="436.0369">accr&#233;dit&#233;e par</text><text fill="#000000" font-family="Arial" font-size="13" lengthAdjust="spacing" textLength="6.5" x="302.1212" y="413.1106">*</text><text fill="#000000" font-family="Arial" font-size="13" lengthAdjust="spacing" textLength="24.8066" x="221.5262" y="458.8197">0..1</text></g><!--link Acteur to Mandat--><g class="link" data-entity-1="ent0005" data-entity-2="ent0009" data-link-type="dependency" data-source-line="147" id="lnk20"><path codeLine="147" d="M478.97,155.57 C491.59,175.81 506.92,198.31 523,217.19 C534.05,230.16 542.3376,238.9506 555.0876,250.9906" fill="none" id="Acteur-to-Mandat" style="stroke:#444444;stroke-width:1;"/><polygon fill="#444444" points="559.45,255.11,555.6527,246.0226,555.8147,251.6771,550.1602,251.8391,559.45,255.11" style="stroke:#444444;stroke-width:1;"/><polygon fill="#000000" points="531.118,205.1651,527.775,196.2615,523.18,199.9269,531.118,205.1651" style="stroke:#000000;stroke-width:1;"/><text fill="#000000" font-family="Arial" font-size="13" lengthAdjust="spacing" textLength="40.6821" x="537" y="205.7569">donne</text><text fill="#000000" font-family="Arial" font-size="13" lengthAdjust="spacing" textLength="70.8271" x="486.7608" y="175.0996">1 mandant</text><text fill="#000000" font-family="Arial" font-size="13" lengthAdjust="spacing" textLength="6.5" x="544.7761" y="244.2575">*</text></g><!--link Acteur to Mandat--><g class="link" data-entity-1="ent0005" data-entity-2="ent0009" data-link-type="dependency" data-source-line="148" id="lnk21"><path codeLine="148" d="M550.63,155.43 C562.13,164.38 572.94,174.32 582,185.19 C598.76,205.31 608.8336,225.6654 617.2536,249.3954" fill="none" id="Acteur-to-Mandat-1" style="stroke:#444444;stroke-width:1;"/><polygon fill="#444444" points="619.26,255.05,620.0201,245.2305,617.588,250.3378,612.4807,247.9057,619.26,255.05" style="stroke:#444444;stroke-width:1;"/><polygon fill="#000000" points="608.892,205.3352,606.0578,196.2567,601.2629,199.6564,608.892,205.3352" style="stroke:#000000;stroke-width:1;"/><text fill="#000000" font-family="Arial" font-size="13" lengthAdjust="spacing" textLength="37.1528" x="615" y="205.7569">re&#231;oit</text><text fill="#000000" font-family="Arial" font-size="13" lengthAdjust="spacing" textLength="87.5088" x="568.592" y="175.346">1 mandataire</text><text fill="#000000" font-family="Arial" font-size="13" lengthAdjust="spacing" textLength="6.5" x="611.1278" y="244.1909">*</text></g><!--link Mandat to PorteeMandat--><g class="link" data-entity-1="ent0009" data-entity-2="ent0013" data-link-type="dependency" data-source-line="149" id="lnk22"><path codeLine="149" d="M664.27,385.15 C680.67,422.32 698.5477,462.8607 713.5377,496.8307" fill="none" id="Mandat-to-PorteeMandat" style="stroke:#444444;stroke-width:1;"/><polygon fill="#444444" points="715.96,502.32,715.9861,492.4712,713.9414,497.7456,708.667,495.7009,715.96,502.32" style="stroke:#444444;stroke-width:1;"/><text fill="#000000" font-family="Arial" font-size="13" lengthAdjust="spacing" textLength="42.6436" x="687" y="436.0369">port&#233;e</text></g><!--link Entite to Personne--><g class="link" data-entity-1="ent0007" data-entity-2="ent0006" data-link-type="dependency" data-source-line="151" id="lnk23"><path codeLine="151" d="M161.87,632.4 C159.05,657.27 156.6255,678.5281 153.8755,702.7981" fill="none" id="Entite-to-Personne" style="stroke:#444444;stroke-width:1;"/><polygon fill="#444444" points="153.2,708.76,158.1879,700.2676,153.7629,703.7918,150.2387,699.3669,153.2,708.76" style="stroke:#444444;stroke-width:1;"/><polygon fill="#000000" points="162.4358,675.5845,166.3766,666.9288,160.5363,666.2655,162.4358,675.5845" style="stroke:#000000;stroke-width:1;"/><text fill="#000000" font-family="Arial" font-size="13" lengthAdjust="spacing" textLength="79.1616" x="172" y="675.1169">responsable</text><text fill="#000000" font-family="Arial" font-size="13" lengthAdjust="spacing" textLength="8.271" x="152.7532" y="652.1117">1</text><text fill="#000000" font-family="Arial" font-size="13" lengthAdjust="spacing" textLength="8.271" x="145.627" y="697.8914">1</text></g><!--link Personne to MethodeIdentification--><g class="link" data-entity-1="ent0006" data-entity-2="ent0002" data-link-type="dependency" data-source-line="155" id="lnk24"><path codeLine="155" d="M145,855.15 C145,889.26 145,921.1 145,942.46" fill="none" id="Personne-to-MethodeIdentification" style="stroke:#444444;stroke-width:1;"/><polygon fill="#444444" points="145,948.46,149,939.46,145,943.46,141,939.46,145,948.46" style="stroke:#444444;stroke-width:1;"/><text fill="#000000" font-family="Arial" font-size="13" lengthAdjust="spacing" textLength="89.0386" x="146" y="899.8969">s'identifie par</text><text fill="#000000" font-family="Arial" font-size="13" lengthAdjust="spacing" textLength="26.2539" x="177.3923" y="915.0297">(P2)</text><text fill="#000000" font-family="Arial" font-size="13" lengthAdjust="spacing" textLength="8.271" x="136.6318" y="874.9158">1</text><text fill="#000000" font-family="Arial" font-size="13" lengthAdjust="spacing" textLength="23.0356" x="118.483" y="937.6844">1..*</text></g><!--link Acteur to ConfigCatastrophe--><g class="link" data-entity-1="ent0005" data-entity-2="ent0003" data-link-type="dependency" data-source-line="156" id="lnk25"><path codeLine="156" d="M576.03,133.84 C656.59,158.46 760.48,196.31 844,247.19 C868.86,262.34 888.8495,281.5505 903.7595,297.5505" fill="none" id="Acteur-to-ConfigCatastrophe" style="stroke:#444444;stroke-width:1;"/><polygon fill="#444444" points="907.85,301.94,904.6406,292.6287,904.4413,298.2821,898.7879,298.0827,907.85,301.94" style="stroke:#444444;stroke-width:1;"/><text fill="#000000" font-family="Arial" font-size="13" lengthAdjust="spacing" textLength="89.7559" x="784" y="198.2569">contexte actif</text><text fill="#000000" font-family="Arial" font-size="13" lengthAdjust="spacing" textLength="26.2539" x="815.751" y="213.3897">(P3)</text></g><?plantuml-src hLVTRjis5BxtKn0fi2HRaiL9t3PP5q2nvTHOOdkMlHzWG45BnmvRYLH9AatM5UX3z05srwNN0tPVlqcVP8SKBKks0nHecG2IUCZ3m-zyvyURvCSl6BLDqg-JJs_V4I_Ka4b5lY63sRynAB8LpUuqPJ49HPB6eBTnRI0o6QBiX7nyVxXNty57Wy3Dtb7nrYZU7XPlnxZpYuoigHUCfrJIX8GnLShJMh9nfg4J2XwmFu7iBozf2wwjf5uMfJHyGQSGwDiOY8HGKpwDeRH0NT58l69yIYOqLcM951cFGY4vID8epKSmeLcipNbTcW3n9AFnYiNaTOsGCpnzQlKqHIma-VMAQJ3pGaOWyxa73JjmrfDIl7AJHtRWf3d6pTNjmBcdG77xil87xGFpLtjJCeKB3MijUT1kjrl-esLRsiVUuuE6EzQYULpHnxW6EQ7XFKhzGxIWjQoqtdZOQEvNz3Ytv5hAQn_RKRtteHrpewmdnoAEK27IR7Tt5_bxDvdTIU26gN239d93PvffYKztbjeXYd957CctpSxFSTgJ9wZnz1InsJT_LOCBeMT7sUv2zCWEjFQAHK3cqmaaOv2gLiiFlWHz9IBeHC0rcx2GQYRuVB5RqnHymgPDggdIKgHNXRBQbuORvWIl-PDtxflSSBAI6RvK_TpR6wZzutyhwZSGMn_vk8_m8u9qZDUZeNOkoLTRpn3o7M4HMOmJCXfrMauIKGrD2Jbo9wH5RQWP2IYDMjZ4xJaJ8WRAdV3r_BmtP0gwoww1PcSqciBMDgujVTlrcyI-av36OHRFxeY268ypwNEz2z7bCILzTBNWtEXuO-wONsq-MroEYuHKhXTWskDJ9qsHuQK5Ir8Q8TaLt2DDn2rmXGpI1jbbQIRZ_fNGOltU67Dc1dq94v00LUdcFENN3r2GIZ71-f5fXZ5AiniYni_18AzinKcf8XadSdQd45IYH6WoPmKI7x7JzmAonhW8L2XPQh7-hAklMM6kZ_p46ohqtPn0bILO4XEKjIcJqCgFMbgXRrEmfzX2XIhKyWf7msieNwPCnWMOXmPC4p98dzJYDRTBtN9zXIcClSo000O9deX988CuXggI8wCUCKMKPtT0PdyZzh3W75usHIFf65t576TnNLL7m-fuBZADekzLbgQI9KOR9atY1KHan6iIu6Y6YUZ814QHdggUdPTmlCG0hrous8Hj2r3W02d5hH6r6I-mAecmb0iUPGYdiNyvfit60KrJY5StsccVNoChLfE1GfIT9Sx3vjlOMyNb8SfatZKXhb4c3IOnIvZ1QQTgdN9R5mCH32bdAh7-pIqYYkKQaVDyhe3fAeQNbEFLra9tBt0LGIga1fZVhc-_SgLhmccLllri7BFmVjuUeu3nYP19JjRKh4UYxkHl1YJaYeOaLKIanfYChw0pbMWGO7R8i0ar6Kt2oupXSqindHLPjKIqxHKTcD1dx-cOnSOXvb8BkkTpQWuiy2mXGupT4YcRlUvmq3aR3VtHm4wCXfsBJk0LtrxhijDzrka6G-_YeZhPz8PUC1pq-a_zqcpmUp3qB_q2BMob4IejCcLBXwFI3wGvkXnTU6SNVa0K5ZrCbidi0zA4sY9OiRbKcPpPl_Y3eNtf3RpkUNxOe3SwzvUIon4vAG0pU_3ne-6aBLzamcnAs89EQuUCAGzDobiWdEikRqW4mrndd6vo4DaABeCTRAP3dKdZU5DN5jkjFUOym_9hRDfirZ5v1FiohATJb-KWYy4atCgL5z7eRkmrXvssVVD_wtS6-KM3KT3tkwtHQiJQscD236vIXY5BKi3OcNt0Dd4ruko9vGXnPmvxo8lWMQ_l3xnXfzSDxEo5tnoE1lwpm1zTv6OW4Vpptg23Sts_sMbtVXxvgz5YOi1bPmHWmZYJ19j7vVe6j2c4F1fTtnhdETgQk4a-lNkB_sG0CSrB3ZReakxE6wvS_DN_pM-Ll2jxyXUstwNcfZoTb_BQOZOV6_KDzxQxUugVtzhFvUfWa55gzW_2S5fR5IyDgwa8uY9xcvBycPjBr7ARyrAmPhkps6pRsD_Rm-kufgLSrcaO8i4YMmziiJojLKgpAn_bTNQPAT5M7NvlOTf36awD9nLTpc3R9MGtwYGn7ELwOHfQwNXxGY9RyKzNDsWJt1kh6oJCtWkcxHOtkGwr-QY4IK5gOw23nZZT7eBFeWCvgVGWf_dlkHL6N-DoilHJxYiJkrQOjB1pRy_WiRQbHsvipZicwzm_-5R_OBjMeNaPeDKVRZb9NEzcqpkR62s7s_y3?></g></svg>