<?plantuml 1.2026.2beta3?><svg xmlns="http://www.w3.org/2000/svg" xmlns:xlink="http://www.w3.org/1999/xlink" contentStyleType="text/css" data-diagram-type="CLASS" height="869px" preserveAspectRatio="none" style="width:1220px;height:869px;background:#FFFFFF;" version="1.1" viewBox="0 0 1220 869" width="1220px" zoomAndPan="magnify"><defs/><g><!--cluster P5 ? Services & Strat?gies--><g class="cluster" data-qualified-name="P5 . Services . Strat.gies" data-source-line="54" id="ent0004"><rect fill="#FFF8F0" height="856" rx="2.5" ry="2.5" style="stroke:#888888;stroke-width:1.5;" width="993.31" x="221.56" y="7"/><text fill="#333333" font-family="Arial" font-size="14" font-weight="bold" lengthAdjust="spacing" textLength="205.5225" x="615.4538" y="21.9951">P5 &#183; Services &amp; Strat&#233;gies</text></g><!--class StrategiePriorisation--><g class="entity" data-qualified-name="P5 . Services . Strat.gies.StrategiePriorisation" data-source-line="57" id="ent0005"><rect fill="#FFFFFF" height="64.2969" rx="2.5" ry="2.5" style="stroke:#555555;stroke-width:0.5;" width="396.6104" x="262.33" y="198.85"/><rect fill="#F2F2F2" height="32" rx="2.5" ry="2.5" style="stroke:#F2F2F2;stroke-width:0.5;" width="396.6104" x="262.33" y="198.85"/><rect fill="#F2F2F2" height="2.5" style="stroke:#F2F2F2;stroke-width:0.5;" width="396.6104" x="262.33" y="228.35"/><rect fill="none" height="64.2969" rx="2.5" ry="2.5" style="stroke:#555555;stroke-width:0.5;" width="396.6104" x="262.33" y="198.85"/><ellipse cx="405.245" cy="214.85" fill="#B4A7E5" rx="11" ry="11" style="stroke:#181818;stroke-width:1;"/><path d="M401.1669,210.6156 L401.1669,208.4594 L408.5575,208.4594 L408.5575,210.6156 L406.0888,210.6156 L406.0888,218.6938 L408.5575,218.6938 L408.5575,220.85 L401.1669,220.85 L401.1669,218.6938 L403.6357,218.6938 L403.6357,210.6156 L401.1669,210.6156 Z " fill="#000000"/><text fill="#111111" font-family="Arial" font-size="10" font-style="italic" lengthAdjust="spacing" textLength="102.2803" x="425.745" y="218.3119">StrategiePriorisation</text><line style="stroke:#555555;stroke-width:0.5;" x1="263.33" x2="657.9404" y1="230.85" y2="230.85"/><line style="stroke:#555555;stroke-width:0.5;" x1="263.33" x2="657.9404" y1="238.85" y2="238.85"/><text fill="#000000" font-family="Arial" font-size="14" lengthAdjust="spacing" textLength="384.6104" x="268.33" y="255.8451">+trier(demandes : List&lt;Demande&gt;) : List&lt;Demande&gt;</text></g><!--class PriorisationParAnciennete--><g class="entity" data-qualified-name="P5 . Services . Strat.gies.PriorisationParAnciennete" data-source-line="64" id="ent0006"><rect fill="#FFFFFF" height="64.2969" rx="2.5" ry="2.5" style="stroke:#555555;stroke-width:0.5;" width="396.6104" x="769.49" y="148.85"/><rect fill="#F2F2F2" height="32" rx="2.5" ry="2.5" style="stroke:#F2F2F2;stroke-width:0.5;" width="396.6104" x="769.49" y="148.85"/><rect fill="#F2F2F2" height="2.5" style="stroke:#F2F2F2;stroke-width:0.5;" width="396.6104" x="769.49" y="178.35"/><rect fill="none" height="64.2969" rx="2.5" ry="2.5" style="stroke:#555555;stroke-width:0.5;" width="396.6104" x="769.49" y="148.85"/><ellipse cx="898.9456" cy="164.85" fill="#ADD1B2" rx="11" ry="11" style="stroke:#181818;stroke-width:1;"/><path d="M901.9143,170.4906 Q901.3362,170.7875 900.6956,170.9281 Q900.0549,171.0844 899.3518,171.0844 Q896.8518,171.0844 895.5237,169.4438 Q894.2112,167.7875 894.2112,164.6625 Q894.2112,161.5375 895.5237,159.8813 Q896.8518,158.225 899.3518,158.225 Q900.0549,158.225 900.6956,158.3813 Q901.3518,158.5375 901.9143,158.8344 L901.9143,161.5531 Q901.2893,160.975 900.6956,160.7094 Q900.1018,160.4281 899.4768,160.4281 Q898.1331,160.4281 897.4456,161.5063 Q896.7581,162.5688 896.7581,164.6625 Q896.7581,166.7563 897.4456,167.8344 Q898.1331,168.8969 899.4768,168.8969 Q900.1018,168.8969 900.6956,168.6313 Q901.2893,168.35 901.9143,167.7719 L901.9143,170.4906 Z " fill="#000000"/><text fill="#111111" font-family="Arial" font-size="10" lengthAdjust="spacing" textLength="129.1992" x="919.4456" y="168.3119">PriorisationParAnciennete</text><line style="stroke:#555555;stroke-width:0.5;" x1="770.49" x2="1165.1004" y1="180.85" y2="180.85"/><line style="stroke:#555555;stroke-width:0.5;" x1="770.49" x2="1165.1004" y1="188.85" y2="188.85"/><text fill="#000000" font-family="Arial" font-size="14" lengthAdjust="spacing" textLength="384.6104" x="775.49" y="205.8451">+trier(demandes : List&lt;Demande&gt;) : List&lt;Demande&gt;</text></g><!--class PriorisationParUrgence--><g class="entity" data-qualified-name="P5 . Services . Strat.gies.PriorisationParUrgence" data-source-line="69" id="ent0007"><rect fill="#FFFFFF" height="64.2969" rx="2.5" ry="2.5" style="stroke:#555555;stroke-width:0.5;" width="396.6104" x="769.49" y="49.85"/><rect fill="#F2F2F2" height="32" rx="2.5" ry="2.5" style="stroke:#F2F2F2;stroke-width:0.5;" width="396.6104" x="769.49" y="49.85"/><rect fill="#F2F2F2" height="2.5" style="stroke:#F2F2F2;stroke-width:0.5;" width="396.6104" x="769.49" y="79.35"/><rect fill="none" height="64.2969" rx="2.5" ry="2.5" style="stroke:#555555;stroke-width:0.5;" width="396.6104" x="769.49" y="49.85"/><ellipse cx="906.2405" cy="65.85" fill="#ADD1B2" rx="11" ry="11" style="stroke:#181818;stroke-width:1;"/><path d="M909.2092,71.4906 Q908.6311,71.7875 907.9905,71.9281 Q907.3499,72.0844 906.6467,72.0844 Q904.1467,72.0844 902.8186,70.4438 Q901.5061,68.7875 901.5061,65.6625 Q901.5061,62.5375 902.8186,60.8813 Q904.1467,59.225 906.6467,59.225 Q907.3499,59.225 907.9905,59.3813 Q908.6467,59.5375 909.2092,59.8344 L909.2092,62.5531 Q908.5842,61.975 907.9905,61.7094 Q907.3967,61.4281 906.7717,61.4281 Q905.428,61.4281 904.7405,62.5063 Q904.053,63.5688 904.053,65.6625 Q904.053,67.7563 904.7405,68.8344 Q905.428,69.8969 906.7717,69.8969 Q907.3967,69.8969 907.9905,69.6313 Q908.5842,69.35 909.2092,68.7719 L909.2092,71.4906 Z " fill="#000000"/><text fill="#111111" font-family="Arial" font-size="10" lengthAdjust="spacing" textLength="114.6094" x="926.7405" y="69.3119">PriorisationParUrgence</text><line style="stroke:#555555;stroke-width:0.5;" x1="770.49" x2="1165.1004" y1="81.85" y2="81.85"/><line style="stroke:#555555;stroke-width:0.5;" x1="770.49" x2="1165.1004" y1="89.85" y2="89.85"/><text fill="#000000" font-family="Arial" font-size="14" lengthAdjust="spacing" textLength="384.6104" x="775.49" y="106.8451">+trier(demandes : List&lt;Demande&gt;) : List&lt;Demande&gt;</text></g><!--class PriorisationParRegionSeverite--><g class="entity" data-qualified-name="P5 . Services . Strat.gies.PriorisationParRegionSeverite" data-source-line="76" id="ent0008"><rect fill="#FFFFFF" height="64.2969" rx="2.5" ry="2.5" style="stroke:#555555;stroke-width:0.5;" width="396.6104" x="769.49" y="247.85"/><rect fill="#F2F2F2" height="32" rx="2.5" ry="2.5" style="stroke:#F2F2F2;stroke-width:0.5;" width="396.6104" x="769.49" y="247.85"/><rect fill="#F2F2F2" height="2.5" style="stroke:#F2F2F2;stroke-width:0.5;" width="396.6104" x="769.49" y="277.35"/><rect fill="none" height="64.2969" rx="2.5" ry="2.5" style="stroke:#555555;stroke-width:0.5;" width="396.6104" x="769.49" y="247.85"/><ellipse cx="889.0921" cy="263.85" fill="#ADD1B2" rx="11" ry="11" style="stroke:#181818;stroke-width:1;"/><path d="M892.0608,269.4906 Q891.4827,269.7875 890.8421,269.9281 Q890.2014,270.0844 889.4983,270.0844 Q886.9983,270.0844 885.6702,268.4438 Q884.3577,266.7875 884.3577,263.6625 Q884.3577,260.5375 885.6702,258.8813 Q886.9983,257.225 889.4983,257.225 Q890.2014,257.225 890.8421,257.3813 Q891.4983,257.5375 892.0608,257.8344 L892.0608,260.5531 Q891.4358,259.975 890.8421,259.7094 Q890.2483,259.4281 889.6233,259.4281 Q888.2796,259.4281 887.5921,260.5063 Q886.9046,261.5688 886.9046,263.6625 Q886.9046,265.7563 887.5921,266.8344 Q888.2796,267.8969 889.6233,267.8969 Q890.2483,267.8969 890.8421,267.6313 Q891.4358,267.35 892.0608,266.7719 L892.0608,269.4906 Z " fill="#000000"/><text fill="#111111" font-family="Arial" font-size="10" lengthAdjust="spacing" textLength="148.9063" x="909.5921" y="267.3119">PriorisationParRegionSeverite</text><line style="stroke:#555555;stroke-width:0.5;" x1="770.49" x2="1165.1004" y1="279.85" y2="279.85"/><line style="stroke:#555555;stroke-width:0.5;" x1="770.49" x2="1165.1004" y1="287.85" y2="287.85"/><text fill="#000000" font-family="Arial" font-size="14" lengthAdjust="spacing" textLength="384.6104" x="775.49" y="304.8451">+trier(demandes : List&lt;Demande&gt;) : List&lt;Demande&gt;</text></g><!--class PriorisationParType--><g class="entity" data-qualified-name="P5 . Services . Strat.gies.PriorisationParType" data-source-line="81" id="ent0009"><rect fill="#FFFFFF" height="64.2969" rx="2.5" ry="2.5" style="stroke:#555555;stroke-width:0.5;" width="396.6104" x="769.49" y="346.85"/><rect fill="#F2F2F2" height="32" rx="2.5" ry="2.5" style="stroke:#F2F2F2;stroke-width:0.5;" width="396.6104" x="769.49" y="346.85"/><rect fill="#F2F2F2" height="2.5" style="stroke:#F2F2F2;stroke-width:0.5;" width="396.6104" x="769.49" y="376.35"/><rect fill="none" height="64.2969" rx="2.5" ry="2.5" style="stroke:#555555;stroke-width:0.5;" width="396.6104" x="769.49" y="346.85"/><ellipse cx="914.9368" cy="362.85" fill="#ADD1B2" rx="11" ry="11" style="stroke:#181818;stroke-width:1;"/><path d="M917.9055,368.4906 Q917.3274,368.7875 916.6868,368.9281 Q916.0462,369.0844 915.343,369.0844 Q912.843,369.0844 911.5149,367.4438 Q910.2024,365.7875 910.2024,362.6625 Q910.2024,359.5375 911.5149,357.8813 Q912.843,356.225 915.343,356.225 Q916.0462,356.225 916.6868,356.3813 Q917.343,356.5375 917.9055,356.8344 L917.9055,359.5531 Q917.2805,358.975 916.6868,358.7094 Q916.093,358.4281 915.468,358.4281 Q914.1243,358.4281 913.4368,359.5063 Q912.7493,360.5688 912.7493,362.6625 Q912.7493,364.7563 913.4368,365.8344 Q914.1243,366.8969 915.468,366.8969 Q916.093,366.8969 916.6868,366.6313 Q917.2805,366.35 917.9055,365.7719 L917.9055,368.4906 Z " fill="#000000"/><text fill="#111111" font-family="Arial" font-size="10" lengthAdjust="spacing" textLength="97.2168" x="935.4368" y="366.3119">PriorisationParType</text><line style="stroke:#555555;stroke-width:0.5;" x1="770.49" x2="1165.1004" y1="378.85" y2="378.85"/><line style="stroke:#555555;stroke-width:0.5;" x1="770.49" x2="1165.1004" y1="386.85" y2="386.85"/><text fill="#000000" font-family="Arial" font-size="14" lengthAdjust="spacing" textLength="384.6104" x="775.49" y="403.8451">+trier(demandes : List&lt;Demande&gt;) : List&lt;Demande&gt;</text></g><g class="entity" data-qualified-name="P5 . Services . Strat.gies.GMN10" data-source-line="88" id="ent0011"><path d="M352.34,93.07 L352.34,160.9294 A2.5,2.5 0 0 0 354.84,163.4294 L456.64,163.4294 L460.64,198.5 L464.64,163.4294 L566.4406,163.4294 A2.5,2.5 0 0 0 568.9406,160.9294 L568.9406,100.57 L558.9406,90.57 L354.84,90.57 A2.5,2.5 0 0 0 352.34,93.07" fill="#FFFDE7" style="stroke:#F9A825;stroke-width:0.5;"/><path d="M558.9406,90.57 L558.9406,99.32 A1.25,1.25 0 0 0 560.1906,100.57 L568.9406,100.57 L558.9406,90.57" fill="#FFFDE7" style="stroke:#F9A825;stroke-width:0.5;"/><text fill="#000000" font-family="Arial" font-size="9" font-weight="bold" lengthAdjust="spacing" textLength="116.4463" x="358.34" y="103.924">Pattern Strategy (GoF)</text><text fill="#000000" font-family="Arial" font-size="9" lengthAdjust="spacing" textLength="179.7319" x="358.34" y="114.4006">&#167;5.1.2 ex.1 : strat&#233;gie de mise en avant</text><text fill="#000000" font-family="Arial" font-size="9" lengthAdjust="spacing" textLength="195.6006" x="358.34" y="124.8771">des demandes d&#233;finie "de mani&#232;re externe</text><text fill="#000000" font-family="Arial" font-size="9" lengthAdjust="spacing" textLength="80.2749" x="358.34" y="135.3537">(par des plugins)"</text><text fill="#000000" font-family="Arial" font-size="9" lengthAdjust="spacing" textLength="141.4028" x="358.34" y="145.8303">Nouvelles strat&#233;gies ajoutables</text><text fill="#000000" font-family="Arial" font-size="9" lengthAdjust="spacing" textLength="160.2114" x="358.34" y="156.3068">sans modification du code existant.</text></g><!--class ServiceTraduction--><g class="entity" data-qualified-name="P5 . Services . Strat.gies.ServiceTraduction" data-source-line="97" id="ent0013"><rect fill="#FFFFFF" height="96.8906" rx="2.5" ry="2.5" style="stroke:#555555;stroke-width:0.5;" width="446.1572" x="237.56" y="602.55"/><rect fill="#F2F2F2" height="32" rx="2.5" ry="2.5" style="stroke:#F2F2F2;stroke-width:0.5;" width="446.1572" x="237.56" y="602.55"/><rect fill="#F2F2F2" height="2.5" style="stroke:#F2F2F2;stroke-width:0.5;" width="446.1572" x="237.56" y="632.05"/><rect fill="none" height="96.8906" rx="2.5" ry="2.5" style="stroke:#555555;stroke-width:0.5;" width="446.1572" x="237.56" y="602.55"/><ellipse cx="411.0663" cy="618.55" fill="#B4A7E5" rx="11" ry="11" style="stroke:#181818;stroke-width:1;"/><path d="M406.9882,614.3156 L406.9882,612.1594 L414.3788,612.1594 L414.3788,614.3156 L411.9101,614.3156 L411.9101,622.3938 L414.3788,622.3938 L414.3788,624.55 L406.9882,624.55 L406.9882,622.3938 L409.457,622.3938 L409.457,614.3156 L406.9882,614.3156 Z " fill="#000000"/><text fill="#111111" font-family="Arial" font-size="10" font-style="italic" lengthAdjust="spacing" textLength="90.6445" x="431.5663" y="622.0119">ServiceTraduction</text><line style="stroke:#555555;stroke-width:0.5;" x1="238.56" x2="682.7172" y1="634.55" y2="634.55"/><line style="stroke:#555555;stroke-width:0.5;" x1="238.56" x2="682.7172" y1="642.55" y2="642.55"/><text fill="#000000" font-family="Arial" font-size="14" lengthAdjust="spacing" textLength="434.1572" x="243.56" y="659.5451">+traduire(texte : String, source : String, cible : String) : String</text><text fill="#000000" font-family="Arial" font-size="14" lengthAdjust="spacing" textLength="260.8594" x="243.56" y="675.842">+languesSupportees() : List&lt;String&gt;</text><text fill="#000000" font-family="Arial" font-size="14" lengthAdjust="spacing" textLength="216.2617" x="243.56" y="692.1389">+isTraductionAuto()  : Boolean</text></g><!--class AdaptateurCorpusInterne--><g class="entity" data-qualified-name="P5 . Services . Strat.gies.AdaptateurCorpusInterne" data-source-line="107" id="ent0014"><rect fill="#FFFFFF" height="96.8906" rx="2.5" ry="2.5" style="stroke:#555555;stroke-width:0.5;" width="446.1572" x="744.72" y="742.55"/><rect fill="#F2F2F2" height="32" rx="2.5" ry="2.5" style="stroke:#F2F2F2;stroke-width:0.5;" width="446.1572" x="744.72" y="742.55"/><rect fill="#F2F2F2" height="2.5" style="stroke:#F2F2F2;stroke-width:0.5;" width="446.1572" x="744.72" y="772.05"/><rect fill="none" height="96.8906" rx="2.5" ry="2.5" style="stroke:#555555;stroke-width:0.5;" width="446.1572" x="744.72" y="742.55"/><ellipse cx="899.8963" cy="758.55" fill="#ADD1B2" rx="11" ry="11" style="stroke:#181818;stroke-width:1;"/><path d="M902.865,764.1906 Q902.2869,764.4875 901.6463,764.6281 Q901.0056,764.7844 900.3025,764.7844 Q897.8025,764.7844 896.4744,763.1438 Q895.1619,761.4875 895.1619,758.3625 Q895.1619,755.2375 896.4744,753.5813 Q897.8025,751.925 900.3025,751.925 Q901.0056,751.925 901.6463,752.0813 Q902.3025,752.2375 902.865,752.5344 L902.865,755.2531 Q902.24,754.675 901.6463,754.4094 Q901.0525,754.1281 900.4275,754.1281 Q899.0838,754.1281 898.3963,755.2063 Q897.7088,756.2688 897.7088,758.3625 Q897.7088,760.4563 898.3963,761.5344 Q899.0838,762.5969 900.4275,762.5969 Q901.0525,762.5969 901.6463,762.3313 Q902.24,762.05 902.865,761.4719 L902.865,764.1906 Z " fill="#000000"/><text fill="#111111" font-family="Arial" font-size="10" lengthAdjust="spacing" textLength="127.3047" x="920.3963" y="762.0119">AdaptateurCorpusInterne</text><line style="stroke:#555555;stroke-width:0.5;" x1="745.72" x2="1189.8772" y1="774.55" y2="774.55"/><line style="stroke:#555555;stroke-width:0.5;" x1="745.72" x2="1189.8772" y1="782.55" y2="782.55"/><text fill="#000000" font-family="Arial" font-size="14" lengthAdjust="spacing" textLength="434.1572" x="750.72" y="799.5451">+traduire(texte : String, source : String, cible : String) : String</text><text fill="#000000" font-family="Arial" font-size="14" lengthAdjust="spacing" textLength="260.8594" x="750.72" y="815.842">+languesSupportees() : List&lt;String&gt;</text><text fill="#000000" font-family="Arial" font-size="14" lengthAdjust="spacing" textLength="216.2617" x="750.72" y="832.1389">+isTraductionAuto()  : Boolean</text></g><!--class AdaptateurDeepL--><g class="entity" data-qualified-name="P5 . Services . Strat.gies.AdaptateurDeepL" data-source-line="115" id="ent0015"><rect fill="#FFFFFF" height="113.1875" rx="2.5" ry="2.5" style="stroke:#555555;stroke-width:0.5;" width="446.1572" x="744.72" y="594.41"/><rect fill="#F2F2F2" height="32" rx="2.5" ry="2.5" style="stroke:#F2F2F2;stroke-width:0.5;" width="446.1572" x="744.72" y="594.41"/><rect fill="#F2F2F2" height="2.5" style="stroke:#F2F2F2;stroke-width:0.5;" width="446.1572" x="744.72" y="623.91"/><rect fill="none" height="113.1875" rx="2.5" ry="2.5" style="stroke:#555555;stroke-width:0.5;" width="446.1572" x="744.72" y="594.41"/><ellipse cx="919.469" cy="610.41" fill="#ADD1B2" rx="11" ry="11" style="stroke:#181818;stroke-width:1;"/><path d="M922.4378,616.0506 Q921.8596,616.3475 921.219,616.4881 Q920.5784,616.6444 919.8753,616.6444 Q917.3753,616.6444 916.0471,615.0038 Q914.7346,613.3475 914.7346,610.2225 Q914.7346,607.0975 916.0471,605.4413 Q917.3753,603.785 919.8753,603.785 Q920.5784,603.785 921.219,603.9413 Q921.8753,604.0975 922.4378,604.3944 L922.4378,607.1131 Q921.8128,606.535 921.219,606.2694 Q920.6253,605.9881 920.0003,605.9881 Q918.6565,605.9881 917.969,607.0663 Q917.2815,608.1288 917.2815,610.2225 Q917.2815,612.3163 917.969,613.3944 Q918.6565,614.4569 920.0003,614.4569 Q920.6253,614.4569 921.219,614.1913 Q921.8128,613.91 922.4378,613.3319 L922.4378,616.0506 Z " fill="#000000"/><text fill="#111111" font-family="Arial" font-size="10" lengthAdjust="spacing" textLength="88.1592" x="939.969" y="613.8719">AdaptateurDeepL</text><line style="stroke:#555555;stroke-width:0.5;" x1="745.72" x2="1189.8772" y1="626.41" y2="626.41"/><text fill="#000000" font-family="Arial" font-size="14" lengthAdjust="spacing" textLength="127.9141" x="750.72" y="643.4051">+apiKey    : String</text><line style="stroke:#555555;stroke-width:0.5;" x1="745.72" x2="1189.8772" y1="650.7069" y2="650.7069"/><text fill="#000000" font-family="Arial" font-size="14" lengthAdjust="spacing" textLength="434.1572" x="750.72" y="667.702">+traduire(texte : String, source : String, cible : String) : String</text><text fill="#000000" font-family="Arial" font-size="14" lengthAdjust="spacing" textLength="260.8594" x="750.72" y="683.9989">+languesSupportees() : List&lt;String&gt;</text><text fill="#000000" font-family="Arial" font-size="14" lengthAdjust="spacing" textLength="216.2617" x="750.72" y="700.2957">+isTraductionAuto()  : Boolean</text></g><!--class AdaptateurLibreTranslate--><g class="entity" data-qualified-name="P5 . Services . Strat.gies.AdaptateurLibreTranslate" data-source-line="123" id="ent0016"><rect fill="#FFFFFF" height="113.1875" rx="2.5" ry="2.5" style="stroke:#555555;stroke-width:0.5;" width="446.1572" x="744.72" y="446.41"/><rect fill="#F2F2F2" height="32" rx="2.5" ry="2.5" style="stroke:#F2F2F2;stroke-width:0.5;" width="446.1572" x="744.72" y="446.41"/><rect fill="#F2F2F2" height="2.5" style="stroke:#F2F2F2;stroke-width:0.5;" width="446.1572" x="744.72" y="475.91"/><rect fill="none" height="113.1875" rx="2.5" ry="2.5" style="stroke:#555555;stroke-width:0.5;" width="446.1572" x="744.72" y="446.41"/><ellipse cx="899.513" cy="462.41" fill="#ADD1B2" rx="11" ry="11" style="stroke:#181818;stroke-width:1;"/><path d="M902.4817,468.0506 Q901.9036,468.3475 901.263,468.4881 Q900.6223,468.6444 899.9192,468.6444 Q897.4192,468.6444 896.0911,467.0038 Q894.7786,465.3475 894.7786,462.2225 Q894.7786,459.0975 896.0911,457.4413 Q897.4192,455.785 899.9192,455.785 Q900.6223,455.785 901.263,455.9413 Q901.9192,456.0975 902.4817,456.3944 L902.4817,459.1131 Q901.8567,458.535 901.263,458.2694 Q900.6692,457.9881 900.0442,457.9881 Q898.7005,457.9881 898.013,459.0663 Q897.3255,460.1288 897.3255,462.2225 Q897.3255,464.3163 898.013,465.3944 Q898.7005,466.4569 900.0442,466.4569 Q900.6692,466.4569 901.263,466.1913 Q901.8567,465.91 902.4817,465.3319 L902.4817,468.0506 Z " fill="#000000"/><text fill="#111111" font-family="Arial" font-size="10" lengthAdjust="spacing" textLength="128.0713" x="920.013" y="465.8719">AdaptateurLibreTranslate</text><line style="stroke:#555555;stroke-width:0.5;" x1="745.72" x2="1189.8772" y1="478.41" y2="478.41"/><text fill="#000000" font-family="Arial" font-size="14" lengthAdjust="spacing" textLength="140.4307" x="750.72" y="495.4051">+urlServeur : String</text><line style="stroke:#555555;stroke-width:0.5;" x1="745.72" x2="1189.8772" y1="502.7069" y2="502.7069"/><text fill="#000000" font-family="Arial" font-size="14" lengthAdjust="spacing" textLength="434.1572" x="750.72" y="519.702">+traduire(texte : String, source : String, cible : String) : String</text><text fill="#000000" font-family="Arial" font-size="14" lengthAdjust="spacing" textLength="260.8594" x="750.72" y="535.9989">+languesSupportees() : List&lt;String&gt;</text><text fill="#000000" font-family="Arial" font-size="14" lengthAdjust="spacing" textLength="216.2617" x="750.72" y="552.2957">+isTraductionAuto()  : Boolean</text></g><g class="entity" data-qualified-name="P5 . Services . Strat.gies.GMN17" data-source-line="134" id="ent0018"><path d="M357.35,486.83 L357.35,565.1659 A2.5,2.5 0 0 0 359.85,567.6659 L456.64,567.6659 L460.64,602.17 L464.64,567.6659 L561.4267,567.6659 A2.5,2.5 0 0 0 563.9267,565.1659 L563.9267,494.33 L553.9267,484.33 L359.85,484.33 A2.5,2.5 0 0 0 357.35,486.83" fill="#FFFDE7" style="stroke:#F9A825;stroke-width:0.5;"/><path d="M553.9267,484.33 L553.9267,493.08 A1.25,1.25 0 0 0 555.1767,494.33 L563.9267,494.33 L553.9267,484.33" fill="#FFFDE7" style="stroke:#F9A825;stroke-width:0.5;"/><text fill="#000000" font-family="Arial" font-size="9" font-weight="bold" lengthAdjust="spacing" textLength="113.2031" x="363.35" y="497.684">Pattern Adapter (GoF)</text><text fill="#000000" font-family="Arial" font-size="9" lengthAdjust="spacing" textLength="151.4004" x="363.35" y="508.1606">&#167;5 ex.15 : corpus interne (d&#233;faut)</text><text fill="#000000" font-family="Arial" font-size="9" lengthAdjust="spacing" textLength="169.8486" x="363.35" y="518.6371">ou traducteur automatique (fallback).</text><text fill="#000000" font-family="Arial" font-size="9" lengthAdjust="spacing" textLength="185.5767" x="363.35" y="529.1137">Mention OBLIGATOIRE si traduction auto.</text><text fill="#000000" font-family="Arial" font-size="9" lengthAdjust="spacing" textLength="183.7222" x="363.35" y="539.5903">Version originale TOUJOURS consultable.</text><text fill="#000000" font-family="Arial" font-size="9" lengthAdjust="spacing" textLength="164.3071" x="363.35" y="550.0668">&#167;5 ex.16 : ind&#233;pendance fournisseur</text><text fill="#000000" font-family="Arial" font-size="9" lengthAdjust="spacing" textLength="176.8052" x="363.35" y="560.5434">OBLIGATOIRE (d&#233;cision architecturale).</text></g><!--class Demande--><g class="entity" data-qualified-name="Demande" data-source-line="48" id="ent0002"><rect fill="#F0F0F0" height="35.6094" rx="2.5" ry="2.5" style="stroke:#AAAAAA;stroke-width:0.5;" width="80.5596" x="7" y="213.2"/><ellipse cx="22" cy="231.0047" fill="#ADD1B2" rx="11" ry="11" style="stroke:#181818;stroke-width:1;"/><path d="M24.9688,236.6453 Q24.3906,236.9422 23.75,237.0828 Q23.1094,237.2391 22.4063,237.2391 Q19.9063,237.2391 18.5781,235.5984 Q17.2656,233.9422 17.2656,230.8172 Q17.2656,227.6922 18.5781,226.0359 Q19.9063,224.3797 22.4063,224.3797 Q23.1094,224.3797 23.75,224.5359 Q24.4063,224.6922 24.9688,224.9891 L24.9688,227.7078 Q24.3438,227.1297 23.75,226.8641 Q23.1563,226.5828 22.5313,226.5828 Q21.1875,226.5828 20.5,227.6609 Q19.8125,228.7234 19.8125,230.8172 Q19.8125,232.9109 20.5,233.9891 Q21.1875,235.0516 22.5313,235.0516 Q23.1563,235.0516 23.75,234.7859 Q24.3438,234.5047 24.9688,233.9266 L24.9688,236.6453 Z " fill="#000000"/><text fill="#000000" font-family="Arial" font-size="12" font-style="italic" lengthAdjust="spacing" textLength="33.873" x="43.3433" y="229.3387">&#171;ext&#187;</text><text fill="#777777" font-family="Arial" font-size="10" lengthAdjust="spacing" textLength="48.5596" x="36" y="241.451">Demande</text></g><!--class Message--><g class="entity" data-qualified-name="Message" data-source-line="49" id="ent0003"><rect fill="#F0F0F0" height="35.6094" rx="2.5" ry="2.5" style="stroke:#AAAAAA;stroke-width:0.5;" width="75.8281" x="9.37" y="633.2"/><ellipse cx="24.37" cy="651.0047" fill="#ADD1B2" rx="11" ry="11" style="stroke:#181818;stroke-width:1;"/><path d="M27.3388,656.6453 Q26.7606,656.9422 26.12,657.0828 Q25.4794,657.2391 24.7763,657.2391 Q22.2763,657.2391 20.9481,655.5984 Q19.6356,653.9422 19.6356,650.8172 Q19.6356,647.6922 20.9481,646.0359 Q22.2763,644.3797 24.7763,644.3797 Q25.4794,644.3797 26.12,644.5359 Q26.7763,644.6922 27.3388,644.9891 L27.3388,647.7078 Q26.7138,647.1297 26.12,646.8641 Q25.5263,646.5828 24.9013,646.5828 Q23.5575,646.5828 22.87,647.6609 Q22.1825,648.7234 22.1825,650.8172 Q22.1825,652.9109 22.87,653.9891 Q23.5575,655.0516 24.9013,655.0516 Q25.5263,655.0516 26.12,654.7859 Q26.7138,654.5047 27.3388,653.9266 L27.3388,656.6453 Z " fill="#000000"/><text fill="#000000" font-family="Arial" font-size="12" font-style="italic" lengthAdjust="spacing" textLength="33.873" x="43.3475" y="649.3387">&#171;ext&#187;</text><text fill="#777777" font-family="Arial" font-size="10" lengthAdjust="spacing" textLength="43.8281" x="38.37" y="661.451">Message</text></g><!--reverse link StrategiePriorisation to PriorisationParAnciennete--><g class="link" data-entity-1="ent0005" data-entity-2="ent0006" data-link-type="extension" data-source-line="144" id="lnk20"><path codeLine="144" d="M677.0327,209.6791 C713.1427,206.1091 732.92,204.15 769.04,200.57" fill="none" id="StrategiePriorisation-backto-PriorisationParAnciennete" style="stroke:#444444;stroke-width:1;stroke-dasharray:7,7;"/><polygon fill="none" points="659.12,211.45,677.623,215.65,676.4424,203.7082,659.12,211.45" style="stroke:#444444;stroke-width:1;"/></g><!--reverse link StrategiePriorisation to PriorisationParUrgence--><g class="link" data-entity-1="ent0005" data-entity-2="ent0007" data-link-type="extension" data-source-line="145" id="lnk21"><path codeLine="145" d="M661.1376,192.2148 C674.8276,187.2148 671.24,187.64 683.72,181 C712.31,165.79 708.04,146.04 736.72,131 C748.56,124.79 761.14,119.36 774.07,114.63" fill="none" id="StrategiePriorisation-backto-PriorisationParUrgence" style="stroke:#444444;stroke-width:1;stroke-dasharray:7,7;"/><polygon fill="none" points="644.23,198.39,663.196,197.8507,659.0792,186.579,644.23,198.39" style="stroke:#444444;stroke-width:1;"/></g><!--reverse link StrategiePriorisation to PriorisationParRegionSeverite--><g class="link" data-entity-1="ent0005" data-entity-2="ent0008" data-link-type="extension" data-source-line="146" id="lnk22"><path codeLine="146" d="M677.036,251.8965 C713.146,255.3965 732.92,257.31 769.04,260.82" fill="none" id="StrategiePriorisation-backto-PriorisationParRegionSeverite" style="stroke:#444444;stroke-width:1;stroke-dasharray:7,7;"/><polygon fill="none" points="659.12,250.16,676.4572,257.8685,677.6149,245.9245,659.12,250.16" style="stroke:#444444;stroke-width:1;"/></g><!--reverse link StrategiePriorisation to PriorisationParType--><g class="link" data-entity-1="ent0005" data-entity-2="ent0009" data-link-type="extension" data-source-line="147" id="lnk23"><path codeLine="147" d="M559.9366,270.091 C614.1866,290.991 670.58,311.15 736.72,330 C757.24,335.85 778.97,341.35 800.56,346.41" fill="none" id="StrategiePriorisation-backto-PriorisationParType" style="stroke:#444444;stroke-width:1;stroke-dasharray:7,7;"/><polygon fill="none" points="543.14,263.62,557.7796,275.6898,562.0936,264.4921,543.14,263.62" style="stroke:#444444;stroke-width:1;"/></g><!--reverse link ServiceTraduction to AdaptateurCorpusInterne--><g class="link" data-entity-1="ent0013" data-entity-2="ent0014" data-link-type="extension" data-source-line="149" id="lnk24"><path codeLine="149" d="M655.3069,704.6747 C704.6969,718.3547 741.02,728.43 790.41,742.12" fill="none" id="ServiceTraduction-backto-AdaptateurCorpusInterne" style="stroke:#444444;stroke-width:1;stroke-dasharray:7,7;"/><polygon fill="none" points="637.96,699.87,653.7053,710.457,656.9085,698.8924,637.96,699.87" style="stroke:#444444;stroke-width:1;"/></g><!--reverse link ServiceTraduction to AdaptateurDeepL--><g class="link" data-entity-1="ent0013" data-entity-2="ent0015" data-link-type="extension" data-source-line="150" id="lnk25"><path codeLine="150" d="M701.94,651 C722.06,651 724.44,651 744.55,651" fill="none" id="ServiceTraduction-backto-AdaptateurDeepL" style="stroke:#444444;stroke-width:1;stroke-dasharray:7,7;"/><polygon fill="none" points="683.94,651,701.94,657,701.94,645,683.94,651" style="stroke:#444444;stroke-width:1;"/></g><!--reverse link ServiceTraduction to AdaptateurLibreTranslate--><g class="link" data-entity-1="ent0013" data-entity-2="ent0016" data-link-type="extension" data-source-line="151" id="lnk26"><path codeLine="151" d="M645.724,597.0695 C691.704,583.5995 724.71,573.93 772.12,560.04" fill="none" id="ServiceTraduction-backto-AdaptateurLibreTranslate" style="stroke:#444444;stroke-width:1;stroke-dasharray:7,7;"/><polygon fill="none" points="628.45,602.13,647.4108,602.8275,644.0372,591.3115,628.45,602.13" style="stroke:#444444;stroke-width:1;"/></g><!--link Demande to StrategiePriorisation--><g class="link" data-entity-1="ent0002" data-entity-2="ent0005" data-link-type="dependency" data-source-line="155" id="lnk27"><path codeLine="155" d="M87.72,231 C128.65,231 189.79,231 255.85,231" fill="none" id="Demande-to-StrategiePriorisation" style="stroke:#444444;stroke-width:1;stroke-dasharray:7,7;"/><polygon fill="#444444" points="261.85,231,252.85,227,256.85,231,252.85,235,261.85,231" style="stroke:#444444;stroke-width:1;"/><text fill="#000000" font-family="Arial" font-size="13" lengthAdjust="spacing" textLength="86.1313" x="118.56" y="227.0669">tri&#233;e par (P4)</text></g><!--link Message to ServiceTraduction--><g class="link" data-entity-1="ent0003" data-entity-2="ent0013" data-link-type="dependency" data-source-line="156" id="lnk28"><path codeLine="156" d="M85.51,651 C121.21,651 172.23,651 231.11,651" fill="none" id="Message-to-ServiceTraduction" style="stroke:#444444;stroke-width:1;stroke-dasharray:7,7;"/><polygon fill="#444444" points="237.11,651,228.11,647,232.11,651,228.11,655,237.11,651" style="stroke:#444444;stroke-width:1;"/><text fill="#000000" font-family="Arial" font-size="13" lengthAdjust="spacing" textLength="69.3291" x="127.06" y="647.0669">utilise (P6)</text></g><?plantuml-src rHVRRjiszDrVSP02YvmbHjBMlHXf02MnCwzfxCL9XptIqh7CLI8zaagRRWNw4Vs6RVc2lTT_qY_P8INRaYzfiWJ3HWkmT7XkF7UkmuixhCewTElmvUCdwA6wu05g-0PwHZ4pleeuVNdX-Cem7aCWar6CfaeKFPagYzc0pt_K0T_LTkgRqzSdxhMsKtleFgq0PWmgaR75w1Ay8zcgEg5TnQNYcXak1OJ4CiI42NefaFaX6z4B5CZylYPUGKu5CGFw35C78Cex6QGIuy20aQ1uD3GGSeKPtuf-myM8APP043EjVMCKxwS6su4KFVuUONiUfIM5SJixnQqH2zwm27lcCaQmt9c8OYmWw24BvLik8XYmM1Ttb4n564Wbo1xr0Zp40KjZO-MTi0J1Lvp52nh3hnM0VP8UEJu7CfOAVXnoWnOkLOWgWpsekqLGNodvDWS-Tek0LamEst6BODyX8_9vvWzQ3-slyg6W2XVapG4BSAaw3vgFYE9mNg6T-fFwmNPPzlRXuwV-Jecta6O5srQhTTXyEi-szTn_zh2UitMUUbxYbxigOraaVEPMMPz7RasOEU_sPHmIGuh9hQqjE1rV3SPN2eLD7dndevjUQEScZjhT9OgzFT9vs_xA2aqtVRUAUastdhf5sWmvvSm4d63IHwKhbKpmOPP_a-qS-WgrjcQOGE-QOvJS_i5B_wXfYqzZHUcvgv29xzP8nkU_LWXPSv7nhBLD9YUhhSENJn_fMQnP3HYjgbKvpU9336V1ddFYMAfvrj40trBzugYyASS677DjTdDlx5Nd0OvglLHe2KLFp-MYIsZUfnYak89Hd4PSw9oilBhP7h2VPMeOKMZGZBuJ6V81QGN48v2XvKagC668omThB2CZD4D2o0wHXKhnT5scV15m50BpjFpdXxLw7oXkndyg98IGR7cWa1LQm2HqlLQxrQaw8gVc2itELMGJyNxLEk4NoD89Q-_Wj7tM_k6y2NlGF6w-jl-lEZyrJ-Y_vRVtZviJDMzXqLEA8UetU84azfxLLsNUtdif4ABnbOmK6mtvBwapD0MJ9bNJO3Y-mgyR-knoTCzg1YxAIGQ2OU-aa8bJBGk3d7FPiAulzAKnCW4vM9wBZc9ZO_cqih7XjbSd70bFkAOa4S0kiYI1SfMWGMh01Q6kMLmck3jDtWOSkcTJrQBcwLfTS-0JcLvWxFAoC9ZDqjKX5L8soBCYBQTjZV1GXCuMIslTPD1g0BjcleAlrRcipfxD26OrZa0qJdd67jhMVOe54Ms2TlDa0H2umZNvhaxVSaOn3Kmfwbuw6abb4BKt3PiCRoz7v7gcXfyQINY4k2zbZ4pCQcWsjz9EP_-uVUIVTTgdJJTdSa5E6v7Hc4td0QafkDQOgiL2saMLeB7M2eQa7fdHEqGS7M_2aPGqtcsIVdrbpI9qJ87rvUFlrKKkpeiyeTPbGAUkz2hKP2nofhxKb009Nbiid0-9VKfpWHgbkYrSU9NoxrwyS0i_tCmJHL_OeI1m-cU1HGTu0OVDbdz-HadYSfRIm5ae3qmwC33YMvtoMY9nQoyVg1TArinipca5Sx4HVucNzdtX-FzbIou_lL7fjOSlXsZ12gcARLvRA_-lpD2Xv9teOHEQEXPDkn7QkWcn35YC2Ge3NY27RZ8tLBqnW9Wgc4tvJgzwSvEkw3NpzN2kpqogxboRMPK7zZvETpsJwINJ-GH8gFZRPkXHfCTz6e6hDOVvYivcYt6nn6bUhEkMEiDzJHS22w4qepP4DeAppldtdVFJ7caZD5qqhVrg9LLj-Ro-N1ObsrC4t0bXAh0tqC2aYYHLLtQfKunTNrizRl-R3scsVA3V_QrMMpq4tuei7oDlHLEU3cz5QkSqQ_751cwNerZHNMvAv6hhJP7BjIYxH2-40XrJsy1LTcZAxdlt7H-LoRsYLjjROSs67Mff5dPNBQ_xk5gPN9WTpTBJDY0rFBOJezTzKlqR?></g></svg>