<?plantuml 1.2026.2beta3?><svg xmlns="http://www.w3.org/2000/svg" xmlns:xlink="http://www.w3.org/1999/xlink" contentStyleType="text/css" data-diagram-type="CLASS" height="1153px" preserveAspectRatio="none" style="width:988px;height:1153px;background:#FFFFFF;" version="1.1" viewBox="0 0 988 1153" width="988px" zoomAndPan="magnify"><defs/><g><!--cluster P2 ? Authentification & Identification--><g class="cluster" data-qualified-name="P2 . Authentification . Identification" data-source-line="46" id="ent0003"><rect fill="#F0F8FF" height="1018" rx="2.5" ry="2.5" style="stroke:#888888;stroke-width:1.5;" width="975.33" x="7" y="7"/><text fill="#333333" font-family="Arial" font-size="14" font-weight="bold" lengthAdjust="spacing" textLength="291.0469" x="349.1416" y="21.9951">P2 &#183; Authentification &amp; Identification</text></g><!--class MethodeIdentification--><g class="entity" data-qualified-name="P2 . Authentification . Identification.MethodeIdentification" data-source-line="48" id="ent0004"><rect fill="#FFFFFF" height="96.8906" rx="2.5" ry="2.5" style="stroke:#555555;stroke-width:0.5;" width="247.9834" x="23" y="526.56"/><rect fill="#F2F2F2" height="32" rx="2.5" ry="2.5" style="stroke:#F2F2F2;stroke-width:0.5;" width="247.9834" x="23" y="526.56"/><rect fill="#F2F2F2" height="2.5" style="stroke:#F2F2F2;stroke-width:0.5;" width="247.9834" x="23" y="556.06"/><rect fill="none" height="96.8906" rx="2.5" ry="2.5" style="stroke:#555555;stroke-width:0.5;" width="247.9834" x="23" y="526.56"/><ellipse cx="88.1299" cy="542.56" fill="#A9DCDF" rx="11" ry="11" style="stroke:#181818;stroke-width:1;"/><path d="M88.2393,537.9038 L87.083,542.9819 L89.4111,542.9819 L88.2393,537.9038 Z M86.7549,535.6694 L89.7393,535.6694 L93.0986,548.06 L90.6455,548.06 L89.8799,544.9975 L86.5986,544.9975 L85.8486,548.06 L83.4111,548.06 L86.7549,535.6694 Z " fill="#000000"/><text fill="#111111" font-family="Arial" font-size="10" font-style="italic" lengthAdjust="spacing" textLength="109.2236" x="108.6299" y="546.0219">MethodeIdentification</text><line style="stroke:#555555;stroke-width:0.5;" x1="24" x2="269.9834" y1="558.56" y2="558.56"/><text fill="#000000" font-family="Arial" font-size="14" lengthAdjust="spacing" textLength="170.126" x="29" y="575.5551">+dateVerification : Date</text><text fill="#000000" font-family="Arial" font-size="14" lengthAdjust="spacing" textLength="179.5664" x="29" y="591.852">+estVerifiee      : Boolean</text><text fill="#000000" font-family="Arial" font-size="14" lengthAdjust="spacing" textLength="235.9834" x="29" y="608.1489">+niveauFiabilite  : NiveauFiabilite</text><line style="stroke:#555555;stroke-width:0.5;" x1="24" x2="269.9834" y1="615.4506" y2="615.4506"/></g><!--class LoginPassword--><g class="entity" data-qualified-name="P2 . Authentification . Identification.LoginPassword" data-source-line="60" id="ent0005"><rect fill="#FFFFFF" height="96.8906" rx="2.5" ry="2.5" style="stroke:#555555;stroke-width:0.5;" width="238.8164" x="349.92" y="574.56"/><rect fill="#F2F2F2" height="32" rx="2.5" ry="2.5" style="stroke:#F2F2F2;stroke-width:0.5;" width="238.8164" x="349.92" y="574.56"/><rect fill="#F2F2F2" height="2.5" style="stroke:#F2F2F2;stroke-width:0.5;" width="238.8164" x="349.92" y="604.06"/><rect fill="none" height="96.8906" rx="2.5" ry="2.5" style="stroke:#555555;stroke-width:0.5;" width="238.8164" x="349.92" y="574.56"/><ellipse cx="427.8346" cy="590.56" fill="#ADD1B2" rx="11" ry="11" style="stroke:#181818;stroke-width:1;"/><path d="M430.8033,596.2006 Q430.2252,596.4975 429.5846,596.6381 Q428.9439,596.7944 428.2408,596.7944 Q425.7408,596.7944 424.4127,595.1538 Q423.1002,593.4975 423.1002,590.3725 Q423.1002,587.2475 424.4127,585.5913 Q425.7408,583.935 428.2408,583.935 Q428.9439,583.935 429.5846,584.0913 Q430.2408,584.2475 430.8033,584.5444 L430.8033,587.2631 Q430.1783,586.685 429.5846,586.4194 Q428.9908,586.1381 428.3658,586.1381 Q427.0221,586.1381 426.3346,587.2163 Q425.6471,588.2788 425.6471,590.3725 Q425.6471,592.4663 426.3346,593.5444 Q427.0221,594.6069 428.3658,594.6069 Q428.9908,594.6069 429.5846,594.3413 Q430.1783,594.06 430.8033,593.4819 L430.8033,596.2006 Z " fill="#000000"/><text fill="#111111" font-family="Arial" font-size="10" lengthAdjust="spacing" textLength="74.4873" x="448.3346" y="594.0219">LoginPassword</text><line style="stroke:#555555;stroke-width:0.5;" x1="350.92" x2="587.7364" y1="606.56" y2="606.56"/><text fill="#000000" font-family="Arial" font-size="14" lengthAdjust="spacing" textLength="154.6357" x="355.92" y="623.5551">+login             : String</text><text fill="#000000" font-family="Arial" font-size="14" lengthAdjust="spacing" textLength="203.0615" x="355.92" y="639.852">+motDePasseHash    : String</text><text fill="#000000" font-family="Arial" font-size="14" lengthAdjust="spacing" textLength="226.8164" x="355.92" y="656.1489">+derniereConnexion : DateTime</text><line style="stroke:#555555;stroke-width:0.5;" x1="350.92" x2="587.7364" y1="663.4506" y2="663.4506"/></g><!--class CarteIdentiteElectronique--><g class="entity" data-qualified-name="P2 . Authentification . Identification.CarteIdentiteElectronique" data-source-line="68" id="ent0006"><rect fill="#FFFFFF" height="80.5938" rx="2.5" ry="2.5" style="stroke:#555555;stroke-width:0.5;" width="177.4912" x="380.58" y="920.7"/><rect fill="#F2F2F2" height="32" rx="2.5" ry="2.5" style="stroke:#F2F2F2;stroke-width:0.5;" width="177.4912" x="380.58" y="920.7"/><rect fill="#F2F2F2" height="2.5" style="stroke:#F2F2F2;stroke-width:0.5;" width="177.4912" x="380.58" y="950.2"/><rect fill="none" height="80.5938" rx="2.5" ry="2.5" style="stroke:#555555;stroke-width:0.5;" width="177.4912" x="380.58" y="920.7"/><ellipse cx="403.1333" cy="936.7" fill="#ADD1B2" rx="11" ry="11" style="stroke:#181818;stroke-width:1;"/><path d="M406.1021,942.3406 Q405.5239,942.6375 404.8833,942.7781 Q404.2427,942.9344 403.5396,942.9344 Q401.0396,942.9344 399.7114,941.2938 Q398.3989,939.6375 398.3989,936.5125 Q398.3989,933.3875 399.7114,931.7313 Q401.0396,930.075 403.5396,930.075 Q404.2427,930.075 404.8833,930.2313 Q405.5396,930.3875 406.1021,930.6844 L406.1021,933.4031 Q405.4771,932.825 404.8833,932.5594 Q404.2896,932.2781 403.6646,932.2781 Q402.3208,932.2781 401.6333,933.3563 Q400.9458,934.4188 400.9458,936.5125 Q400.9458,938.6063 401.6333,939.6844 Q402.3208,940.7469 403.6646,940.7469 Q404.2896,940.7469 404.8833,940.4813 Q405.4771,940.2 406.1021,939.6219 L406.1021,942.3406 Z " fill="#000000"/><text fill="#111111" font-family="Arial" font-size="10" lengthAdjust="spacing" textLength="128.7061" x="418.8118" y="940.1619">CarteIdentiteElectronique</text><line style="stroke:#555555;stroke-width:0.5;" x1="381.58" x2="557.0712" y1="952.7" y2="952.7"/><text fill="#000000" font-family="Arial" font-size="14" lengthAdjust="spacing" textLength="164.1104" x="386.58" y="969.6951">+numeroCarte  : String</text><text fill="#000000" font-family="Arial" font-size="14" lengthAdjust="spacing" textLength="165.4912" x="386.58" y="985.992">+paysEmetteur : String</text><line style="stroke:#555555;stroke-width:0.5;" x1="381.58" x2="557.0712" y1="993.2938" y2="993.2938"/></g><!--class VerificationSMS--><g class="entity" data-qualified-name="P2 . Authentification . Identification.VerificationSMS" data-source-line="74" id="ent0007"><rect fill="#FFFFFF" height="64.2969" rx="2.5" ry="2.5" style="stroke:#555555;stroke-width:0.5;" width="206.9268" x="365.87" y="821.85"/><rect fill="#F2F2F2" height="32" rx="2.5" ry="2.5" style="stroke:#F2F2F2;stroke-width:0.5;" width="206.9268" x="365.87" y="821.85"/><rect fill="#F2F2F2" height="2.5" style="stroke:#F2F2F2;stroke-width:0.5;" width="206.9268" x="365.87" y="851.35"/><rect fill="none" height="64.2969" rx="2.5" ry="2.5" style="stroke:#555555;stroke-width:0.5;" width="206.9268" x="365.87" y="821.85"/><ellipse cx="425.9403" cy="837.85" fill="#ADD1B2" rx="11" ry="11" style="stroke:#181818;stroke-width:1;"/><path d="M428.9091,843.4906 Q428.3309,843.7875 427.6903,843.9281 Q427.0497,844.0844 426.3466,844.0844 Q423.8466,844.0844 422.5184,842.4438 Q421.2059,840.7875 421.2059,837.6625 Q421.2059,834.5375 422.5184,832.8813 Q423.8466,831.225 426.3466,831.225 Q427.0497,831.225 427.6903,831.3813 Q428.3466,831.5375 428.9091,831.8344 L428.9091,834.5531 Q428.2841,833.975 427.6903,833.7094 Q427.0966,833.4281 426.4716,833.4281 Q425.1278,833.4281 424.4403,834.5063 Q423.7528,835.5688 423.7528,837.6625 Q423.7528,839.7563 424.4403,840.8344 Q425.1278,841.8969 426.4716,841.8969 Q427.0966,841.8969 427.6903,841.6313 Q428.2841,841.35 428.9091,840.7719 L428.9091,843.4906 Z " fill="#000000"/><text fill="#111111" font-family="Arial" font-size="10" lengthAdjust="spacing" textLength="78.2861" x="446.4403" y="841.3119">VerificationSMS</text><line style="stroke:#555555;stroke-width:0.5;" x1="366.87" x2="571.7968" y1="853.85" y2="853.85"/><text fill="#000000" font-family="Arial" font-size="14" lengthAdjust="spacing" textLength="194.9268" x="371.87" y="870.8451">+numeroTelephone : String</text><line style="stroke:#555555;stroke-width:0.5;" x1="366.87" x2="571.7968" y1="878.1469" y2="878.1469"/></g><!--class VerificationBancaire--><g class="entity" data-qualified-name="P2 . Authentification . Identification.VerificationBancaire" data-source-line="80" id="ent0008"><rect fill="#FFFFFF" height="80.5938" rx="2.5" ry="2.5" style="stroke:#555555;stroke-width:0.5;" width="241.2363" x="348.71" y="706.7"/><rect fill="#F2F2F2" height="32" rx="2.5" ry="2.5" style="stroke:#F2F2F2;stroke-width:0.5;" width="241.2363" x="348.71" y="706.7"/><rect fill="#F2F2F2" height="2.5" style="stroke:#F2F2F2;stroke-width:0.5;" width="241.2363" x="348.71" y="736.2"/><rect fill="none" height="80.5938" rx="2.5" ry="2.5" style="stroke:#555555;stroke-width:0.5;" width="241.2363" x="348.71" y="706.7"/><ellipse cx="414.5996" cy="722.7" fill="#ADD1B2" rx="11" ry="11" style="stroke:#181818;stroke-width:1;"/><path d="M417.5684,728.3406 Q416.9903,728.6375 416.3496,728.7781 Q415.709,728.9344 415.0059,728.9344 Q412.5059,728.9344 411.1778,727.2938 Q409.8653,725.6375 409.8653,722.5125 Q409.8653,719.3875 411.1778,717.7313 Q412.5059,716.075 415.0059,716.075 Q415.709,716.075 416.3496,716.2313 Q417.0059,716.3875 417.5684,716.6844 L417.5684,719.4031 Q416.9434,718.825 416.3496,718.5594 Q415.7559,718.2781 415.1309,718.2781 Q413.7871,718.2781 413.0996,719.3563 Q412.4121,720.4188 412.4121,722.5125 Q412.4121,724.6063 413.0996,725.6844 Q413.7871,726.7469 415.1309,726.7469 Q415.7559,726.7469 416.3496,726.4813 Q416.9434,726.2 417.5684,725.6219 L417.5684,728.3406 Z " fill="#000000"/><text fill="#111111" font-family="Arial" font-size="10" lengthAdjust="spacing" textLength="100.957" x="435.0996" y="726.1619">VerificationBancaire</text><line style="stroke:#555555;stroke-width:0.5;" x1="349.71" x2="588.9463" y1="738.7" y2="738.7"/><text fill="#000000" font-family="Arial" font-size="14" lengthAdjust="spacing" textLength="207.9424" x="354.71" y="755.6951">+referenceVirement   : String</text><text fill="#000000" font-family="Arial" font-size="14" lengthAdjust="spacing" textLength="229.2363" x="354.71" y="771.992">+montantVireCentimes : Integer</text><line style="stroke:#555555;stroke-width:0.5;" x1="349.71" x2="588.9463" y1="779.2938" y2="779.2938"/></g><!--class VerificationFacture--><g class="entity" data-qualified-name="P2 . Authentification . Identification.VerificationFacture" data-source-line="90" id="ent0009"><rect fill="#FFFFFF" height="80.5938" rx="2.5" ry="2.5" style="stroke:#555555;stroke-width:0.5;" width="209.0801" x="364.79" y="260.7"/><rect fill="#F2F2F2" height="32" rx="2.5" ry="2.5" style="stroke:#F2F2F2;stroke-width:0.5;" width="209.0801" x="364.79" y="260.7"/><rect fill="#F2F2F2" height="2.5" style="stroke:#F2F2F2;stroke-width:0.5;" width="209.0801" x="364.79" y="290.2"/><rect fill="none" height="80.5938" rx="2.5" ry="2.5" style="stroke:#555555;stroke-width:0.5;" width="209.0801" x="364.79" y="260.7"/><ellipse cx="417.6484" cy="276.7" fill="#ADD1B2" rx="11" ry="11" style="stroke:#181818;stroke-width:1;"/><path d="M420.6171,282.3406 Q420.039,282.6375 419.3984,282.7781 Q418.7578,282.9344 418.0546,282.9344 Q415.5546,282.9344 414.2265,281.2938 Q412.914,279.6375 412.914,276.5125 Q412.914,273.3875 414.2265,271.7313 Q415.5546,270.075 418.0546,270.075 Q418.7578,270.075 419.3984,270.2313 Q420.0546,270.3875 420.6171,270.6844 L420.6171,273.4031 Q419.9921,272.825 419.3984,272.5594 Q418.8046,272.2781 418.1796,272.2781 Q416.8359,272.2781 416.1484,273.3563 Q415.4609,274.4188 415.4609,276.5125 Q415.4609,278.6063 416.1484,279.6844 Q416.8359,280.7469 418.1796,280.7469 Q418.8046,280.7469 419.3984,280.4813 Q419.9921,280.2 420.6171,279.6219 L420.6171,282.3406 Z " fill="#000000"/><text fill="#111111" font-family="Arial" font-size="10" lengthAdjust="spacing" textLength="94.8633" x="438.1484" y="280.1619">VerificationFacture</text><line style="stroke:#555555;stroke-width:0.5;" x1="365.79" x2="572.8701" y1="292.7" y2="292.7"/><text fill="#000000" font-family="Arial" font-size="14" lengthAdjust="spacing" textLength="197.0801" x="370.79" y="309.6951">+typeFacture : TypeFacture</text><text fill="#000000" font-family="Arial" font-size="14" lengthAdjust="spacing" textLength="143.4385" x="370.79" y="325.992">+dateFacture : Date</text><line style="stroke:#555555;stroke-width:0.5;" x1="365.79" x2="572.8701" y1="333.2938" y2="333.2938"/></g><!--class VerificationPhoto--><g class="entity" data-qualified-name="P2 . Authentification . Identification.VerificationPhoto" data-source-line="97" id="ent0010"><rect fill="#FFFFFF" height="96.8906" rx="2.5" ry="2.5" style="stroke:#555555;stroke-width:0.5;" width="274.6914" x="331.98" y="128.56"/><rect fill="#F2F2F2" height="32" rx="2.5" ry="2.5" style="stroke:#F2F2F2;stroke-width:0.5;" width="274.6914" x="331.98" y="128.56"/><rect fill="#F2F2F2" height="2.5" style="stroke:#F2F2F2;stroke-width:0.5;" width="274.6914" x="331.98" y="158.06"/><rect fill="none" height="96.8906" rx="2.5" ry="2.5" style="stroke:#555555;stroke-width:0.5;" width="274.6914" x="331.98" y="128.56"/><ellipse cx="422.3316" cy="144.56" fill="#ADD1B2" rx="11" ry="11" style="stroke:#181818;stroke-width:1;"/><path d="M425.3003,150.2006 Q424.7222,150.4975 424.0816,150.6381 Q423.4409,150.7944 422.7378,150.7944 Q420.2378,150.7944 418.9097,149.1538 Q417.5972,147.4975 417.5972,144.3725 Q417.5972,141.2475 418.9097,139.5913 Q420.2378,137.935 422.7378,137.935 Q423.4409,137.935 424.0816,138.0913 Q424.7378,138.2475 425.3003,138.5444 L425.3003,141.2631 Q424.6753,140.685 424.0816,140.4194 Q423.4878,140.1381 422.8628,140.1381 Q421.5191,140.1381 420.8316,141.2163 Q420.1441,142.2788 420.1441,144.3725 Q420.1441,146.4663 420.8316,147.5444 Q421.5191,148.6069 422.8628,148.6069 Q423.4878,148.6069 424.0816,148.3413 Q424.6753,148.06 425.3003,147.4819 L425.3003,150.2006 Z " fill="#000000"/><text fill="#111111" font-family="Arial" font-size="10" lengthAdjust="spacing" textLength="85.4883" x="442.8316" y="148.0219">VerificationPhoto</text><line style="stroke:#555555;stroke-width:0.5;" x1="332.98" x2="605.6714" y1="160.56" y2="160.56"/><text fill="#000000" font-family="Arial" font-size="14" lengthAdjust="spacing" textLength="161.1846" x="337.98" y="177.5551">+urlPhoto         : String</text><text fill="#000000" font-family="Arial" font-size="14" lengthAdjust="spacing" textLength="193.6416" x="337.98" y="193.852">+incluPersonne    : Boolean</text><text fill="#000000" font-family="Arial" font-size="14" lengthAdjust="spacing" textLength="262.6914" x="337.98" y="210.1489">+modeVerification : ModeVerification</text><line style="stroke:#555555;stroke-width:0.5;" x1="332.98" x2="605.6714" y1="217.4506" y2="217.4506"/></g><!--class Parrainage--><g class="entity" data-qualified-name="P2 . Authentification . Identification.Parrainage" data-source-line="106" id="ent0011"><rect fill="#FFFFFF" height="80.5938" rx="2.5" ry="2.5" style="stroke:#555555;stroke-width:0.5;" width="250.9434" x="343.86" y="458.7"/><rect fill="#F2F2F2" height="32" rx="2.5" ry="2.5" style="stroke:#F2F2F2;stroke-width:0.5;" width="250.9434" x="343.86" y="458.7"/><rect fill="#F2F2F2" height="2.5" style="stroke:#F2F2F2;stroke-width:0.5;" width="250.9434" x="343.86" y="488.2"/><rect fill="none" height="80.5938" rx="2.5" ry="2.5" style="stroke:#555555;stroke-width:0.5;" width="250.9434" x="343.86" y="458.7"/><ellipse cx="437.9552" cy="474.7" fill="#ADD1B2" rx="11" ry="11" style="stroke:#181818;stroke-width:1;"/><path d="M440.924,480.3406 Q440.3458,480.6375 439.7052,480.7781 Q439.0646,480.9344 438.3615,480.9344 Q435.8615,480.9344 434.5333,479.2938 Q433.2208,477.6375 433.2208,474.5125 Q433.2208,471.3875 434.5333,469.7313 Q435.8615,468.075 438.3615,468.075 Q439.0646,468.075 439.7052,468.2313 Q440.3615,468.3875 440.924,468.6844 L440.924,471.4031 Q440.299,470.825 439.7052,470.5594 Q439.1115,470.2781 438.4865,470.2781 Q437.1427,470.2781 436.4552,471.3563 Q435.7677,472.4188 435.7677,474.5125 Q435.7677,476.6063 436.4552,477.6844 Q437.1427,478.7469 438.4865,478.7469 Q439.1115,478.7469 439.7052,478.4813 Q440.299,478.2 440.924,477.6219 L440.924,480.3406 Z " fill="#000000"/><text fill="#111111" font-family="Arial" font-size="10" lengthAdjust="spacing" textLength="54.2529" x="458.4552" y="478.1619">Parrainage</text><line style="stroke:#555555;stroke-width:0.5;" x1="344.86" x2="593.8034" y1="490.7" y2="490.7"/><text fill="#000000" font-family="Arial" font-size="14" lengthAdjust="spacing" textLength="238.9434" x="349.86" y="507.6951">+nombreParrainsRequis  : Integer</text><text fill="#000000" font-family="Arial" font-size="14" lengthAdjust="spacing" textLength="238.6426" x="349.86" y="523.992">+nombreParrainsActuels : Integer</text><line style="stroke:#555555;stroke-width:0.5;" x1="344.86" x2="593.8034" y1="531.2938" y2="531.2938"/></g><!--class Delegation--><g class="entity" data-qualified-name="P2 . Authentification . Identification.Delegation" data-source-line="113" id="ent0012"><rect fill="#FFFFFF" height="48" rx="2.5" ry="2.5" style="stroke:#555555;stroke-width:0.5;" width="86.4141" x="426.12" y="376"/><rect fill="#F2F2F2" height="32" rx="2.5" ry="2.5" style="stroke:#F2F2F2;stroke-width:0.5;" width="86.4141" x="426.12" y="376"/><rect fill="#F2F2F2" height="2.5" style="stroke:#F2F2F2;stroke-width:0.5;" width="86.4141" x="426.12" y="405.5"/><rect fill="none" height="48" rx="2.5" ry="2.5" style="stroke:#555555;stroke-width:0.5;" width="86.4141" x="426.12" y="376"/><ellipse cx="441.12" cy="392" fill="#ADD1B2" rx="11" ry="11" style="stroke:#181818;stroke-width:1;"/><path d="M444.0888,397.6406 Q443.5106,397.9375 442.87,398.0781 Q442.2294,398.2344 441.5263,398.2344 Q439.0263,398.2344 437.6981,396.5938 Q436.3856,394.9375 436.3856,391.8125 Q436.3856,388.6875 437.6981,387.0313 Q439.0263,385.375 441.5263,385.375 Q442.2294,385.375 442.87,385.5313 Q443.5263,385.6875 444.0888,385.9844 L444.0888,388.7031 Q443.4638,388.125 442.87,387.8594 Q442.2763,387.5781 441.6513,387.5781 Q440.3075,387.5781 439.62,388.6563 Q438.9325,389.7188 438.9325,391.8125 Q438.9325,393.9063 439.62,394.9844 Q440.3075,396.0469 441.6513,396.0469 Q442.2763,396.0469 442.87,395.7813 Q443.4638,395.5 444.0888,394.9219 L444.0888,397.6406 Z " fill="#000000"/><text fill="#111111" font-family="Arial" font-size="10" lengthAdjust="spacing" textLength="54.4141" x="455.12" y="395.4619">Delegation</text><line style="stroke:#555555;stroke-width:0.5;" x1="427.12" x2="511.5341" y1="408" y2="408"/><line style="stroke:#555555;stroke-width:0.5;" x1="427.12" x2="511.5341" y1="416" y2="416"/></g><!--class NiveauFiabilite--><g class="entity" data-qualified-name="P2 . Authentification . Identification.NiveauFiabilite" data-source-line="123" id="ent0013"><rect fill="#FFFFFF" height="129.4844" rx="2.5" ry="2.5" style="stroke:#555555;stroke-width:0.5;" width="177.0674" x="779.97" y="50.26"/><rect fill="#F2F2F2" height="32" rx="2.5" ry="2.5" style="stroke:#F2F2F2;stroke-width:0.5;" width="177.0674" x="779.97" y="50.26"/><rect fill="#F2F2F2" height="2.5" style="stroke:#F2F2F2;stroke-width:0.5;" width="177.0674" x="779.97" y="79.76"/><rect fill="none" height="129.4844" rx="2.5" ry="2.5" style="stroke:#555555;stroke-width:0.5;" width="177.0674" x="779.97" y="50.26"/><ellipse cx="827.1492" cy="66.26" fill="#EB937F" rx="11" ry="11" style="stroke:#181818;stroke-width:1;"/><path d="M831.2586,72.26 L823.5398,72.26 L823.5398,59.8694 L831.2586,59.8694 L831.2586,62.0256 L825.9929,62.0256 L825.9929,64.6975 L830.7586,64.6975 L830.7586,66.8537 L825.9929,66.8537 L825.9929,70.1037 L831.2586,70.1037 L831.2586,72.26 Z " fill="#000000"/><text fill="#111111" font-family="Arial" font-size="10" lengthAdjust="spacing" textLength="74.209" x="847.6492" y="69.7219">NiveauFiabilite</text><line style="stroke:#555555;stroke-width:0.5;" x1="780.97" x2="956.0374" y1="82.26" y2="82.26"/><text fill="#000000" font-family="Arial" font-size="14" lengthAdjust="spacing" textLength="90.7607" x="785.97" y="99.2551">TRES_HAUTE</text><text fill="#000000" font-family="Arial" font-size="14" lengthAdjust="spacing" textLength="47.749" x="785.97" y="115.552">HAUTE</text><text fill="#000000" font-family="Arial" font-size="14" lengthAdjust="spacing" textLength="70.2871" x="785.97" y="131.8489">MOYENNE</text><text fill="#000000" font-family="Arial" font-size="14" lengthAdjust="spacing" textLength="48.0088" x="785.97" y="148.1457">FAIBLE</text><text fill="#000000" font-family="Arial" font-size="14" lengthAdjust="spacing" textLength="165.0674" x="785.97" y="164.4426">EXPLICITEMENT_FAIBLE</text><line style="stroke:#555555;stroke-width:0.5;" x1="780.97" x2="956.0374" y1="171.7444" y2="171.7444"/></g><!--class TypeFacture--><g class="entity" data-qualified-name="P2 . Authentification . Identification.TypeFacture" data-source-line="133" id="ent0014"><rect fill="#FFFFFF" height="113.1875" rx="2.5" ry="2.5" style="stroke:#555555;stroke-width:0.5;" width="132.9688" x="802.02" y="330.41"/><rect fill="#F2F2F2" height="32" rx="2.5" ry="2.5" style="stroke:#F2F2F2;stroke-width:0.5;" width="132.9688" x="802.02" y="330.41"/><rect fill="#F2F2F2" height="2.5" style="stroke:#F2F2F2;stroke-width:0.5;" width="132.9688" x="802.02" y="359.91"/><rect fill="none" height="113.1875" rx="2.5" ry="2.5" style="stroke:#555555;stroke-width:0.5;" width="132.9688" x="802.02" y="330.41"/><ellipse cx="834.3639" cy="346.41" fill="#EB937F" rx="11" ry="11" style="stroke:#181818;stroke-width:1;"/><path d="M838.4733,352.41 L830.7545,352.41 L830.7545,340.0194 L838.4733,340.0194 L838.4733,342.1756 L833.2076,342.1756 L833.2076,344.8475 L837.9733,344.8475 L837.9733,347.0038 L833.2076,347.0038 L833.2076,350.2538 L838.4733,350.2538 L838.4733,352.41 Z " fill="#000000"/><text fill="#111111" font-family="Arial" font-size="10" lengthAdjust="spacing" textLength="62.4268" x="852.2181" y="349.8719">TypeFacture</text><line style="stroke:#555555;stroke-width:0.5;" x1="803.02" x2="933.9888" y1="362.41" y2="362.41"/><text fill="#000000" font-family="Arial" font-size="14" lengthAdjust="spacing" textLength="88.9766" x="808.02" y="379.4051">ELECTRICITE</text><text fill="#000000" font-family="Arial" font-size="14" lengthAdjust="spacing" textLength="30.0166" x="808.02" y="395.702">GAZ</text><text fill="#000000" font-family="Arial" font-size="14" lengthAdjust="spacing" textLength="28.6699" x="808.02" y="411.9989">EAU</text><text fill="#000000" font-family="Arial" font-size="14" lengthAdjust="spacing" textLength="120.9688" x="808.02" y="428.2957">TELEPHONE_FIXE</text><line style="stroke:#555555;stroke-width:0.5;" x1="803.02" x2="933.9888" y1="435.5975" y2="435.5975"/></g><!--class ModeVerification--><g class="entity" data-qualified-name="P2 . Authentification . Identification.ModeVerification" data-source-line="140" id="ent0015"><rect fill="#FFFFFF" height="80.5938" rx="2.5" ry="2.5" style="stroke:#555555;stroke-width:0.5;" width="179.6514" x="778.67" y="214.7"/><rect fill="#F2F2F2" height="32" rx="2.5" ry="2.5" style="stroke:#F2F2F2;stroke-width:0.5;" width="179.6514" x="778.67" y="214.7"/><rect fill="#F2F2F2" height="2.5" style="stroke:#F2F2F2;stroke-width:0.5;" width="179.6514" x="778.67" y="244.2"/><rect fill="none" height="80.5938" rx="2.5" ry="2.5" style="stroke:#555555;stroke-width:0.5;" width="179.6514" x="778.67" y="214.7"/><ellipse cx="822.2191" cy="230.7" fill="#EB937F" rx="11" ry="11" style="stroke:#181818;stroke-width:1;"/><path d="M826.3284,236.7 L818.6097,236.7 L818.6097,224.3094 L826.3284,224.3094 L826.3284,226.4656 L821.0628,226.4656 L821.0628,229.1375 L825.8284,229.1375 L825.8284,231.2938 L821.0628,231.2938 L821.0628,234.5438 L826.3284,234.5438 L826.3284,236.7 Z " fill="#000000"/><text fill="#111111" font-family="Arial" font-size="10" lengthAdjust="spacing" textLength="84.209" x="842.5633" y="234.1619">ModeVerification</text><line style="stroke:#555555;stroke-width:0.5;" x1="779.67" x2="957.3214" y1="246.7" y2="246.7"/><text fill="#000000" font-family="Arial" font-size="14" lengthAdjust="spacing" textLength="103.8447" x="784.67" y="263.6951">AUTOMATIQUE</text><text fill="#000000" font-family="Arial" font-size="14" lengthAdjust="spacing" textLength="167.6514" x="784.67" y="279.992">MANUELLE_OPERATEUR</text><line style="stroke:#555555;stroke-width:0.5;" x1="779.67" x2="957.3214" y1="287.2938" y2="287.2938"/></g><!--class Personne--><g class="entity" data-qualified-name="Personne" data-source-line="41" id="ent0002"><rect fill="#F0F0F0" height="35.6094" rx="2.5" ry="2.5" style="stroke:#AAAAAA;stroke-width:0.5;" width="78.4502" x="829.28" y="1041.2"/><ellipse cx="844.28" cy="1059.0047" fill="#ADD1B2" rx="11" ry="11" style="stroke:#181818;stroke-width:1;"/><path d="M847.2488,1064.6453 Q846.6706,1064.9422 846.03,1065.0828 Q845.3894,1065.2391 844.6863,1065.2391 Q842.1863,1065.2391 840.8581,1063.5984 Q839.5456,1061.9422 839.5456,1058.8172 Q839.5456,1055.6922 840.8581,1054.0359 Q842.1863,1052.3797 844.6863,1052.3797 Q845.3894,1052.3797 846.03,1052.5359 Q846.6863,1052.6922 847.2488,1052.9891 L847.2488,1055.7078 Q846.6238,1055.1297 846.03,1054.8641 Q845.4363,1054.5828 844.8113,1054.5828 Q843.4675,1054.5828 842.78,1055.6609 Q842.0925,1056.7234 842.0925,1058.8172 Q842.0925,1060.9109 842.78,1061.9891 Q843.4675,1063.0516 844.8113,1063.0516 Q845.4363,1063.0516 846.03,1062.7859 Q846.6238,1062.5047 847.2488,1061.9266 L847.2488,1064.6453 Z " fill="#000000"/><text fill="#000000" font-family="Arial" font-size="12" font-style="italic" lengthAdjust="spacing" textLength="33.873" x="864.5686" y="1057.3387">&#171;ext&#187;</text><text fill="#777777" font-family="Arial" font-size="10" lengthAdjust="spacing" textLength="46.4502" x="858.28" y="1069.451">Personne</text></g><!--reverse link MethodeIdentification to LoginPassword--><g class="link" data-entity-1="ent0004" data-entity-2="ent0005" data-link-type="extension" data-source-line="147" id="lnk16"><path codeLine="147" d="M289.1816,596.155 C314.8316,599.995 324,601.38 349.48,605.19" fill="none" id="MethodeIdentification-backto-LoginPassword" style="stroke:#444444;stroke-width:1;"/><polygon fill="none" points="271.38,593.49,288.2933,602.0889,290.07,590.2212,271.38,593.49" style="stroke:#444444;stroke-width:1;"/></g><!--reverse link MethodeIdentification to CarteIdentiteElectronique--><g class="link" data-entity-1="ent0004" data-entity-2="ent0006" data-link-type="extension" data-source-line="148" id="lnk17"><path codeLine="148" d="M167.6409,640.7992 C190.5309,711.6892 236.69,826.22 323.98,904 C340.08,918.34 360.21,929.28 380.28,937.55" fill="none" id="MethodeIdentification-backto-CarteIdentiteElectronique" style="stroke:#444444;stroke-width:1;"/><polygon fill="none" points="162.11,623.67,161.9312,642.6428,173.3506,638.9555,162.11,623.67" style="stroke:#444444;stroke-width:1;"/></g><!--reverse link MethodeIdentification to VerificationSMS--><g class="link" data-entity-1="ent0004" data-entity-2="ent0007" data-link-type="extension" data-source-line="149" id="lnk18"><path codeLine="149" d="M182.5511,639.288 C212.2111,691.188 256.79,756.78 323.98,805 C336.56,814.03 350.93,821.49 365.61,827.63" fill="none" id="MethodeIdentification-backto-VerificationSMS" style="stroke:#444444;stroke-width:1;"/><polygon fill="none" points="173.62,623.66,177.3418,642.2651,187.7605,636.311,173.62,623.66" style="stroke:#444444;stroke-width:1;"/></g><!--reverse link MethodeIdentification to VerificationBancaire--><g class="link" data-entity-1="ent0004" data-entity-2="ent0008" data-link-type="extension" data-source-line="150" id="lnk19"><path codeLine="150" d="M231.2747,633.7573 C263.1247,655.2773 287.14,669.89 323.98,689 C335.61,695.03 348.01,700.86 360.48,706.34" fill="none" id="MethodeIdentification-backto-VerificationBancaire" style="stroke:#444444;stroke-width:1;"/><polygon fill="none" points="216.36,623.68,227.9155,638.7289,234.6338,628.7858,216.36,623.68" style="stroke:#444444;stroke-width:1;"/></g><!--reverse link MethodeIdentification to VerificationFacture--><g class="link" data-entity-1="ent0004" data-entity-2="ent0009" data-link-type="extension" data-source-line="151" id="lnk20"><path codeLine="151" d="M186.6705,510.9911 C217.6605,462.4811 261.2,404.04 323.98,358 C336.26,349 350.15,341.19 364.34,334.5" fill="none" id="MethodeIdentification-backto-VerificationFacture" style="stroke:#444444;stroke-width:1;"/><polygon fill="none" points="176.98,526.16,191.7267,514.2213,181.6142,507.761,176.98,526.16" style="stroke:#444444;stroke-width:1;"/></g><!--reverse link MethodeIdentification to VerificationPhoto--><g class="link" data-entity-1="ent0004" data-entity-2="ent0010" data-link-type="extension" data-source-line="152" id="lnk21"><path codeLine="152" d="M168.2924,509.1038 C191.7724,438.2538 238.44,323.68 323.98,243 C330.6,236.76 337.91,231.04 345.62,225.79" fill="none" id="MethodeIdentification-backto-VerificationPhoto" style="stroke:#444444;stroke-width:1;"/><polygon fill="none" points="162.63,526.19,173.9878,510.9913,162.597,507.2164,162.63,526.19" style="stroke:#444444;stroke-width:1;"/></g><!--reverse link MethodeIdentification to Parrainage--><g class="link" data-entity-1="ent0004" data-entity-2="ent0011" data-link-type="extension" data-source-line="153" id="lnk22"><path codeLine="153" d="M288.8928,541.5705 C312.5128,535.9605 319.75,534.25 343.41,528.64" fill="none" id="MethodeIdentification-backto-Parrainage" style="stroke:#444444;stroke-width:1;"/><polygon fill="none" points="271.38,545.73,290.2793,547.4081,287.5063,535.7329,271.38,545.73" style="stroke:#444444;stroke-width:1;"/></g><!--reverse link MethodeIdentification to Delegation--><g class="link" data-entity-1="ent0004" data-entity-2="ent0012" data-link-type="extension" data-source-line="154" id="lnk23"><path codeLine="154" d="M214.7842,514.448 C247.9942,486.118 279.16,463.42 323.98,441 C356.37,424.8 396.14,414.11 425.73,407.72" fill="none" id="MethodeIdentification-backto-Delegation" style="stroke:#444444;stroke-width:1;"/><polygon fill="none" points="201.09,526.13,218.6782,519.0128,210.8902,509.8833,201.09,526.13" style="stroke:#444444;stroke-width:1;"/></g><!--link MethodeIdentification to NiveauFiabilite--><g class="link" data-entity-1="ent0004" data-entity-2="ent0013" data-link-type="dependency" data-source-line="156" id="lnk24"><path codeLine="156" d="M149.66,526.12 C155.96,428 185.64,208.34 323.98,113 C459.95,19.3 658.2244,53.0504 773.7444,84.7904" fill="none" id="MethodeIdentification-to-NiveauFiabilite" style="stroke:#444444;stroke-width:1;"/><polygon fill="#444444" points="779.53,86.38,771.9114,80.1385,774.7087,85.0553,769.7919,87.8526,779.53,86.38" style="stroke:#444444;stroke-width:1;"/><text fill="#000000" font-family="Arial" font-size="13" lengthAdjust="spacing" textLength="94.9863" x="422.33" y="49.0669">niveauFiabilite</text></g><!--link VerificationFacture to TypeFacture--><g class="link" data-entity-1="ent0009" data-entity-2="ent0014" data-link-type="dependency" data-source-line="157" id="lnk25"><path codeLine="157" d="M574.16,323.48 C646.1,339.06 733.8458,358.0605 795.7458,371.4605" fill="none" id="VerificationFacture-to-TypeFacture" style="stroke:#444444;stroke-width:1;"/><polygon fill="#444444" points="801.61,372.73,793.6601,366.9164,796.7232,371.6721,791.9674,374.7352,801.61,372.73" style="stroke:#444444;stroke-width:1;"/><text fill="#000000" font-family="Arial" font-size="13" lengthAdjust="spacing" textLength="78.311" x="653.67" y="335.0669">typeFacture</text></g><!--link VerificationPhoto to ModeVerification--><g class="link" data-entity-1="ent0010" data-entity-2="ent0015" data-link-type="dependency" data-source-line="158" id="lnk26"><path codeLine="158" d="M576.48,225.85 C596.14,233.13 616.75,239.65 636.67,244 C682.73,254.07 729.1303,257.1462 772.3603,257.6062" fill="none" id="VerificationPhoto-to-ModeVerification" style="stroke:#444444;stroke-width:1;"/><polygon fill="#444444" points="778.36,257.67,769.4031,253.5745,773.3603,257.6168,769.3179,261.574,778.36,257.67" style="stroke:#444444;stroke-width:1;"/><text fill="#000000" font-family="Arial" font-size="13" lengthAdjust="spacing" textLength="110.9189" x="637.67" y="240.0669">modeVerification</text></g><!--link Parrainage to Personne--><g class="link" data-entity-1="ent0011" data-entity-2="ent0002" data-link-type="dependency" data-source-line="161" id="lnk27"><path codeLine="161" d="M588.93,539.73 C598.17,545.4 606.92,551.8 614.67,559 C771.5,704.6 844.0584,963.3858 861.7684,1034.9358" fill="none" id="Parrainage-to-Personne" style="stroke:#444444;stroke-width:1;"/><polygon fill="#444444" points="863.21,1040.76,864.9304,1031.0626,862.0087,1035.9065,857.1648,1032.9847,863.21,1040.76" style="stroke:#444444;stroke-width:1;"/><text fill="#000000" font-family="Arial" font-size="13" lengthAdjust="spacing" textLength="83.8843" x="651.17" y="588.0669">parrains (P1)</text><text fill="#000000" font-family="Arial" font-size="13" lengthAdjust="spacing" textLength="6.5" x="601.5527" y="559.4946">*</text><text fill="#000000" font-family="Arial" font-size="13" lengthAdjust="spacing" textLength="6.5" x="854.8468" y="1030.2839">*</text></g><!--link Delegation to Personne--><g class="link" data-entity-1="ent0012" data-entity-2="ent0002" data-link-type="dependency" data-source-line="163" id="lnk28"><path codeLine="163" d="M512.84,406.55 C542.75,412.44 582.95,423.02 614.67,441 C685.79,481.31 707.59,496.33 748.67,567 C845.17,732.99 863.2151,968.0573 866.5151,1035.1173" fill="none" id="Delegation-to-Personne" style="stroke:#444444;stroke-width:1;"/><polygon fill="#444444" points="866.81,1041.11,870.3628,1031.9243,866.5642,1036.116,862.3725,1032.3175,866.81,1041.11" style="stroke:#444444;stroke-width:1;"/><text fill="#000000" font-family="Arial" font-size="13" lengthAdjust="spacing" textLength="73.252" x="656.17" y="451.0669">garant (P1)</text><text fill="#000000" font-family="Arial" font-size="13" lengthAdjust="spacing" textLength="6.5" x="520.5851" y="420.9549">*</text><text fill="#000000" font-family="Arial" font-size="13" lengthAdjust="spacing" textLength="8.271" x="867.5879" y="1030.1035">1</text></g><!--link Personne to MethodeIdentification--><g class="link" data-entity-1="ent0002" data-entity-2="ent0004" data-link-type="dependency" data-source-line="167" id="lnk29"><path codeLine="167" d="M829.03,1070.19 C733.21,1095.57 480.41,1146.94 323.98,1034 C188.88,936.46 157.9401,726.6931 150.6501,629.7831" fill="none" id="Personne-to-MethodeIdentification" style="stroke:#444444;stroke-width:1;"/><polygon fill="#444444" points="150.2,623.8,146.8864,633.0747,150.5751,628.7859,154.8638,632.4746,150.2,623.8" style="stroke:#444444;stroke-width:1;"/><text fill="#000000" font-family="Arial" font-size="13" lengthAdjust="spacing" textLength="89.0386" x="424.83" y="1030.0669">s'identifie par</text><text fill="#000000" font-family="Arial" font-size="13" lengthAdjust="spacing" textLength="8.271" x="813.0393" y="1085.7142">1</text><text fill="#000000" font-family="Arial" font-size="13" lengthAdjust="spacing" textLength="23.0356" x="126.0882" y="643.4404">1..*</text></g><?plantuml-src nLZTRXD75BxtKnm5YIGj0PA221OWBM6TM8qTrt4exGqQxnxR0xipPcRM96sHU0WUe5T5xbLxrNly9Zn9pyp--fT8N32nvFNCcVFpdT_DDZp-YbNRXiu1V7x_0Rp4Z50OFk01CrmAk0dDS6vZ9vnD3UCH138UHsXswVAvJ5I06khmwUDzmClR3sxbJuV5q_uzelmgBMiH3WmO2OeFHmP2hZ2mEjLg-ZKNOwPO3474jFQCKRoV66m6Kfpptn3kBf8qf33kPBzwD6R1QpR4StCL8LZkJ0mZh13e4GlbMow6C62HhfuecOWma4gWWlkL_H07B8cCbTTcCOAdE8kMD8RVQm1FIVhGyJcIaLJmyuWRjFjIXQZIlHlttQ9TJodvDjkyvnPjMZ7PthvRj7U2ZAulCh_HEB1_jNSLLOGqk5AJ6ur6uvd_O56NnaFlyE1-9jQX-N2ENmPdoh9wyT2jUNr_S2jdvZpGbr5832bkzlRse3kR3cPJXSA66buQ9AorFRaEc8yUqOqdJqZdk_PlNg7Yq7EhgbTnzC0jqcR4GuHyEyQuZqhNQgdW3ZrB8OhpsjU6F2McT_IZT-pR1Ar_EJs_LbxkiIqIz-c_BylRSe0UDXg4ES76-jee5fZC3oqq8ndYGWMntW7u7a9cy3cgyg0EpvWBU7kAsgI7YE1MdJmc8sGY8n1yWYnfSDRd4UM99MZFRpd2xQ8c4K5Yw43FfWWNxUPF5txBR_TWJDKBwXanmCx-BWHgDarr8b_RGcVm5iYaf3dO1MNhO9_OQOp9lfHI33YZ-2m8EzuvpFw4OCJU9EvSuALb-oQHXeSSwJVHlhFORSFd3-_f0ySKjMCgJAHlJ38iWXh2RJwFua2g6AE8Zj9hrGznCt98u5CjIj5E_N4gXrnqwEajnNvsOg6Cx3vKLntEgOIAOK4II_CCxLKyONgqaeIoIN1KU5HOcJgqnsFCY0fd7D9PgzbkjYvQSFRqj7dizSwQNT_r82EJL-GI3ME2M9FHnMKAHqK6np9av5ywp41V1fNOox75IJYC70U7SWx54LCc2qo3VaIbNad1hPDAM4GIevAESeMvOtQb_HYDGHi-ywULeBkPzZvdsK9yqgrUrpz_UU9TzFnb5QkvSTuwNrAiXn6EHz8PkqvwtOOU8I0efr5CvDLiIeehiFnaGkLBQqftnKi7BUju3VMUKj0pQiSL7HKEqDNgvxJl4cHbL0bgiSQI75bNn6w8Q0g3fDGgQoOviz0cI93UWHqvfiQGvaK_LuKAqUmZ9IZkViassD4Sk1WeHjKh2Kn2jmis9MiNIhiP46kIzc0kQLbacnHTdj2FEpPI3RM5P25jrsLh5U06IzKgyJLNOyntAOxANsK-KkwL54LfNK1qa564sxEfImCUsDIovSt2ItLFVFe7Q2UQJTDe6_1B_Fp-hmsejiv-yTjjmZMKGUBSfMKoiTzZL652aKWLbki2p3L6TqQIXhtIv4H5wTRQAiL542L54rvg6cd8XOjTfxMmjGWJPMyTnavou8f1MeejIf_-XPWCSHQbtYr1hYnAjP3h8D7QIYp1T0M7JJ20H03IF6qJz3h0JYWeInDY9bnGKIiZ2Vre5R0TfXJZ8X_7ia8Yuxx2x4XtyKt2DInbu2AT5zWOtf2fAM2bG5jnHDPycQsNLBXdqrVK6FEcHhLyWzaJHaCpcGKQ8pANe38KXUavES6cMYPjHQL_HcLoM9qy5X9Wd8SBAuOTEo0mAkoQf5EXYRPBXuVR2P4QwdF1ffhfl-YSDe-QFJTXl6nupQUdVYKmjeG5HSFiRsfeDd8q9q2KbKlJHepEkWYtO6Ss5L84Dj8oZNShRBAEQzzKNCEiW-Q2Kn4ZUdP5XTNsqYpfrjGjdth9gX7YstwMIoAIdaiuv_vSwA80rUSiPx9VSwxOwALgB4-uIolGrEfjcYave3VWSKBZNv1625LHYkjLkM_Vbr75d5nkNsbOI0dntE_sg26STRqsZVPte7jsSJpNOfsvbQ9UcEgV-aUzhbCwspdsVitFl8iS42Bhd9or_PUDvejbnei5h-1Ei9srl9uTZNFqlFQ5Vthglpph-5slvrzqrmJI2RTzKWKZZl3DWsVrYyUZF-WjScu6taowTaRSV6rXRhi-SJv5NVz6sVAlUS7rpytaPQFOJ5VMrTfQmhsz9qj9I-aabjxJLiqwuAvNao1h-cPks5cU622xsbfkzOlTFmtX5MrBm-FYRNv5jtAl59MM2blVRJcPzhiOG2hSTZhxkxMvpaEdGwPiaIubvOBcMv5jd_bGcNK6ObNfQwNq_Jdf6Nyds_qR9SlLBaRfnGdHGcV_coLihL3MQfvQSFis6RCwdAY_5Q_13fR_0G00?></g></svg>